<svg xmlns="http://www.w3.org/2000/svg" width="124" height="109" fill="none" viewBox="0 0 124 109">
  <path fill="#FFC800" stroke="#FF9600" stroke-width="9" d="M57.612 61.586c-2.805-5.103-1.423-11.308 4.269-14.001 6.993-3.31 13.008-1.32 15.17 2.615 1.04 1.89 1.64 5.855 1.423 10.974-.188 4.412-.947 8.952-1.958 12.372-3.784-1.491-7.846-3.334-11.337-5.413-3.935-2.344-6.508-4.62-7.567-6.547Z"/>
  <path fill="#FF9C40" stroke="#884100" d="M3.075 64.811c0-4.886 1.556-11.355 4.445-18.33 2.885-6.966 7.085-14.404 12.34-21.222C30.384 11.604 45.06.527 61.797.527c16.736 0 31.404 11.08 42.016 24.738 10.614 13.66 17.06 29.758 17.437 39.566.066 1.694.02 2.916-.12 3.735-.071.41-.16.691-.253.872-.093.18-.166.218-.187.226-.015.005-.076.023-.225-.042-.154-.068-.357-.207-.611-.442-.506-.47-1.122-1.236-1.848-2.28-1.446-2.08-3.252-5.15-5.386-8.846l-1.135-1.969c-1.852-3.214-3.917-6.8-6.168-10.529-5.444-9.019-12-18.921-19.332-26.574C78.665 11.343 70.488 5.86 61.797 5.86c-8.696 0-16.763 5.55-23.932 13.266-7.181 7.73-13.547 17.724-18.833 26.803-1.999 3.434-3.847 6.742-5.527 9.75l-1.573 2.81c-2.08 3.704-3.85 6.769-5.284 8.823-.72 1.03-1.335 1.776-1.844 2.22-.546.478-.794.458-.875.422-.053-.023-.15-.093-.261-.3-.112-.205-.22-.513-.311-.946-.183-.865-.282-2.141-.282-3.896Z"/>
  <path fill="#5CAF5F" stroke="#2E8F26" stroke-width="3" d="M52.692 32.264c.658-.332 1.439.05 1.515.743l.087.785c.191 1.73 1.83 2.929 3.65 2.671.077-.01.115.003.137.014a.23.23 0 0 1 .093.095.223.223 0 0 1 .03.128c-.003.024-.012.062-.064.119l-4.635 5.061a1.616 1.616 0 0 1-1.85.382l-5.7-2.633a1.392 1.392 0 0 1-.783-1.619l1.62-6.36a.251.251 0 0 1 .08-.142.315.315 0 0 1 .153-.066.305.305 0 0 1 .163.016.237.237 0 0 1 .115.11c.86 1.475 2.812 1.998 4.423 1.184l.966-.488Z"/>
  <path fill="#2A8A28" d="M50.44 33.123c1.223-.666 2.558.544 1.917 1.739l-.423.789-1.365 2.544-1.17 2.18c-.27.502-.907.715-1.424.476l-2.187-1.01a1.856 1.856 0 0 1-1.037-2.181l1.197-4.47c.315-1.178 1.953-1.462 2.634-.47.397.577 1.21.757 1.859.403Z"/>
  <path fill="#5CAF5F" stroke="#2E8F26" stroke-width="3" d="M52.692 32.264c.658-.332 1.439.05 1.515.743l.087.785c.191 1.73 1.83 2.929 3.65 2.671.077-.01.115.003.137.014a.23.23 0 0 1 .093.095.223.223 0 0 1 .03.128c-.003.024-.012.062-.064.119l-4.635 5.061a1.616 1.616 0 0 1-1.85.382l-5.7-2.633a1.392 1.392 0 0 1-.783-1.619l1.62-6.36a.251.251 0 0 1 .08-.142.315.315 0 0 1 .153-.066.305.305 0 0 1 .163.016.237.237 0 0 1 .115.11c.86 1.475 2.812 1.998 4.423 1.184l.966-.488Z"/>
  <path fill="#2A8A28" d="M50.44 33.123c1.223-.666 2.558.544 1.917 1.739l-.423.789-1.365 2.544-1.17 2.18c-.27.502-.907.715-1.424.476l-2.187-1.01a1.856 1.856 0 0 1-1.037-2.181l1.197-4.47c.315-1.178 1.953-1.462 2.634-.47.397.577 1.21.757 1.859.403Z"/>
  <path fill="#FFC800" stroke="#FF9600" stroke-width="9" d="M32.77 48.79c2.748-5.122 8.944-7.788 14.67-5.143 7.032 3.249 8.882 8.92 6.763 12.868-1.018 1.897-4.096 4.705-8.66 7.588-3.935 2.486-8.321 4.621-11.886 5.901-.96-3.71-1.78-7.837-2.056-11.677-.311-4.33.13-7.602 1.168-9.537Z"/>
  <path fill="#5CAF5F" stroke="#2E8F26" stroke-width="3" d="M65.834 15.013a1.087 1.087 0 0 1 1.766.042l.458.671a3.257 3.257 0 0 0 4.472.892c.07-.045.116-.05.147-.048a.277.277 0 0 1 .145.055.277.277 0 0 1 .097.12.235.235 0 0 1 0 .155l-1.686 6.33a1.5 1.5 0 0 1-1.45 1.113h-6.468a1.5 1.5 0 0 1-1.454-1.133l-1.576-6.243a.283.283 0 0 1 .005-.183.325.325 0 0 1 .114-.14.324.324 0 0 1 .17-.063.283.283 0 0 1 .175.056c1.456.951 3.4.611 4.447-.778l.638-.846Z"/>
  <path fill="#2A8A28" d="M64.255 16.69c.788-1.122 2.552-.564 2.552.807v6.114c0 .56-.454 1.014-1.015 1.014h-2.507a2 2 0 0 1-1.945-1.534l-1.054-4.402c-.292-1.223 1.031-2.196 2.13-1.584.627.35 1.426.173 1.84-.415Z"/>
  <path fill="#5CAF5F" stroke="#2E8F26" stroke-width="3" d="M65.834 15.013a1.087 1.087 0 0 1 1.766.042l.458.671a3.257 3.257 0 0 0 4.472.892c.07-.045.116-.05.147-.048a.277.277 0 0 1 .145.055.277.277 0 0 1 .097.12.235.235 0 0 1 0 .155l-1.686 6.33a1.5 1.5 0 0 1-1.45 1.113h-6.468a1.5 1.5 0 0 1-1.454-1.133l-1.576-6.243a.283.283 0 0 1 .005-.183.325.325 0 0 1 .114-.14.324.324 0 0 1 .17-.063.283.283 0 0 1 .175.056c1.456.951 3.4.611 4.447-.778l.638-.846Z"/>
  <path fill="#2A8A28" d="M64.255 16.69c.788-1.122 2.552-.564 2.552.807v6.114c0 .56-.454 1.014-1.015 1.014h-2.507a2 2 0 0 1-1.945-1.534l-1.054-4.402c-.292-1.223 1.031-2.196 2.13-1.584.627.35 1.426.173 1.84-.415Z"/>
  <path fill="#FFC800" stroke="#FF9600" stroke-width="9" d="M55.9 38.02c0-5.558 4.168-10.6 10.725-10.6 8.013 0 12.3 4.401 12.3 8.652 0 .91-.289 2.34-1.037 4.262-.728 1.867-1.79 3.948-3.08 6.078-2.35 3.877-5.277 7.623-7.863 10.233-2.657-2.934-5.398-6.31-7.507-9.653-2.376-3.767-3.538-6.858-3.538-8.971Z"/>
  <path fill="#5CAF5F" stroke="#2E8F26" stroke-width="3" d="M84.147 26.857c.16-.687.986-.986 1.608-.584l.82-1.21-.82 1.21.699.453c1.535.994 3.572.63 4.547-.813a.21.21 0 0 1 .104-.09.264.264 0 0 1 .142-.002.27.27 0 0 1 .128.066c.02.018.045.051.058.127l1.101 6.532a1.403 1.403 0 0 1-.89 1.55l-5.895 2.295c-.643.25-1.397.04-1.827-.51l-4.117-5.267a.255.255 0 0 1-.065-.154.275.275 0 0 1 .047-.155.284.284 0 0 1 .122-.108.269.269 0 0 1 .17-.01c1.758.358 3.447-.668 3.835-2.33l.233-1Z"/>
  <path fill="#2A8A28" d="M83.381 28.992c.255-1.3 2.115-1.44 2.675-.202l.364.803 1.185 2.62 1.016 2.246a.963.963 0 0 1-.534 1.308l-2.267.883a2.138 2.138 0 0 1-2.451-.7l-2.854-3.74c-.761-.998.07-2.343 1.328-2.175.73.098 1.403-.355 1.538-1.043Z"/>
  <path fill="#5CAF5F" stroke="#2E8F26" stroke-width="3" d="M84.147 26.857c.16-.687.986-.986 1.608-.584l.82-1.21-.82 1.21.699.453c1.535.994 3.572.63 4.547-.813a.21.21 0 0 1 .104-.09.264.264 0 0 1 .142-.002.27.27 0 0 1 .128.066c.02.018.045.051.058.127l1.101 6.532a1.403 1.403 0 0 1-.89 1.55l-5.895 2.295c-.643.25-1.397.04-1.827-.51l-4.117-5.267a.255.255 0 0 1-.065-.154.275.275 0 0 1 .047-.155.284.284 0 0 1 .122-.108.269.269 0 0 1 .17-.01c1.758.358 3.447-.668 3.835-2.33l.233-1Z"/>
  <path fill="#2A8A28" d="M83.381 28.992c.255-1.3 2.115-1.44 2.675-.202l.364.803 1.185 2.62 1.016 2.246a.963.963 0 0 1-.534 1.308l-2.267.883a2.138 2.138 0 0 1-2.451-.7l-2.854-3.74c-.761-.998.07-2.343 1.328-2.175.73.098 1.403-.355 1.538-1.043Z"/>
  <path fill="#FFC800" stroke="#FF9600" stroke-width="9" d="M84.62 51.646c-2.37-5.24-.534-11.347 5.4-13.658 7.28-2.835 13.105-.405 14.929 3.626.88 1.944 1.164 5.936.536 11.035-.542 4.395-1.667 8.879-2.952 12.219-3.66-1.75-7.573-3.87-10.894-6.185-3.745-2.612-6.122-5.055-7.02-7.037Z"/>
  <path fill="#5CAF5F" stroke="#2E8F26" stroke-width="3" d="M66.884 30.6a1.087 1.087 0 0 1 1.766.042l.458.672a3.257 3.257 0 0 0 4.472.891c.07-.045.116-.05.148-.048.04.002.093.018.144.055a.277.277 0 0 1 .097.12.236.236 0 0 1 0 .155l-1.686 6.33a1.5 1.5 0 0 1-1.45 1.114h-6.468a1.5 1.5 0 0 1-1.454-1.133l-1.576-6.243a.283.283 0 0 1 .005-.184.325.325 0 0 1 .114-.14.325.325 0 0 1 .17-.062.283.283 0 0 1 .175.055c1.456.951 3.4.612 4.447-.777l.638-.847Z"/>
  <path fill="#2A8A28" d="M65.305 32.277c.788-1.122 2.552-.564 2.552.807v6.114c0 .56-.454 1.015-1.015 1.015h-2.507a2 2 0 0 1-1.945-1.535l-1.053-4.402c-.293-1.222 1.03-2.196 2.128-1.584.628.35 1.427.173 1.84-.415Z"/>
  <path fill="#5CAF5F" stroke="#2E8F26" stroke-width="3" d="M66.884 30.6a1.087 1.087 0 0 1 1.766.042l.458.672a3.257 3.257 0 0 0 4.472.891c.07-.045.116-.05.148-.048.04.002.093.018.144.055a.277.277 0 0 1 .097.12.236.236 0 0 1 0 .155l-1.686 6.33a1.5 1.5 0 0 1-1.45 1.114h-6.468a1.5 1.5 0 0 1-1.454-1.133l-1.576-6.243a.283.283 0 0 1 .005-.184.325.325 0 0 1 .114-.14.325.325 0 0 1 .17-.062.283.283 0 0 1 .175.055c1.456.951 3.4.612 4.447-.777l.638-.847Z"/>
  <path fill="#2A8A28" d="M65.305 32.277c.788-1.122 2.552-.564 2.552.807v6.114c0 .56-.454 1.015-1.015 1.015h-2.507a2 2 0 0 1-1.945-1.535l-1.053-4.402c-.293-1.222 1.03-2.196 2.128-1.584.628.35 1.427.173 1.84-.415Z"/>
  <path fill="#FFC800" stroke="#FF9600" stroke-width="9" d="M56.95 53.608c0-5.558 4.167-10.6 10.725-10.6 8.013 0 12.3 4.4 12.3 8.652 0 .91-.289 2.339-1.037 4.261-.728 1.868-1.79 3.949-3.08 6.078-2.35 3.878-5.277 7.623-7.863 10.234-2.657-2.935-5.399-6.31-7.508-9.653-2.376-3.767-3.537-6.859-3.537-8.972Z"/>
  <path fill="#5CAF5F" stroke="#2E8F26" stroke-width="3" d="M62.633 48c.65-.355 1.445.005 1.547.7l.114.782c.253 1.722 1.927 2.868 3.734 2.555a.228.228 0 0 1 .139.01.241.241 0 0 1 .097.095.228.228 0 0 1 .035.13c-.002.024-.01.063-.06.122l-4.444 5.188a1.61 1.61 0 0 1-1.833.44l-5.803-2.464a1.397 1.397 0 0 1-.835-1.593l1.39-6.392a.256.256 0 0 1 .077-.146.319.319 0 0 1 .152-.072.31.31 0 0 1 .167.01.242.242 0 0 1 .12.109c.91 1.445 2.873 1.905 4.454 1.043l.95-.518Z"/>
  <path fill="#2A8A28" d="M60.418 48.925c1.2-.705 2.575.467 1.974 1.684l-.393.797-1.274 2.584-1.093 2.214c-.251.51-.879.743-1.402.521L56 55.778a1.863 1.863 0 0 1-1.108-2.147l1.035-4.492c.275-1.192 1.903-1.53 2.62-.559.417.564 1.234.719 1.87.345Z"/>
  <path fill="#5CAF5F" stroke="#2E8F26" stroke-width="3" d="M71.009 50.213c.153-.63.95-.914 1.519-.54l.686.453c1.532 1.011 3.669.625 4.683-.846.035-.052.062-.063.075-.067a.21.21 0 0 1 .109-.005.2.2 0 0 1 .096.045c.01.009.03.03.04.09l1.071 6.755c.104.656-.289 1.294-.952 1.546l-5.737 2.178c-.67.255-1.44.048-1.858-.497l-4.204-5.481c-.044-.057-.047-.093-.047-.115 0-.03.012-.073.044-.117a.236.236 0 0 1 .1-.082c.022-.009.059-.02.133-.004l.35-1.405-.35 1.405c1.801.383 3.598-.666 4.005-2.337l.237-.976Zm19.786-8.733c.245-.618 1.083-.804 1.604-.355l.619.532c1.376 1.186 3.526 1.067 4.73-.262.045-.05.075-.058.092-.062a.224.224 0 0 1 .116.01.21.21 0 0 1 .096.062c.01.012.028.038.029.102l.117 6.78c.011.665-.463 1.25-1.15 1.418l-6.037 1.48c-.693.17-1.423-.129-1.763-.722l-3.377-5.898c-.037-.065-.036-.104-.033-.128a.232.232 0 0 1 .062-.12.256.256 0 0 1 .118-.074.228.228 0 0 1 .14.012c1.723.593 3.628-.224 4.263-1.83l.374-.944Z"/>
  <path fill="#2A8A28" d="M89.758 43.71c.3-1.25 2.168-1.37 2.653-.172l.357.885 1.075 2.661.921 2.28c.212.526-.074 1.11-.64 1.307l-2.193.763c-.91.316-1.936.004-2.466-.752l-2.79-3.977c-.681-.97.243-2.22 1.47-2.01.733.125 1.451-.31 1.613-.985Z"/>
  <path fill="#5CAF5F" stroke="#2E8F26" stroke-width="3" d="M22.34 32.97c.308-.603 1.166-.718 1.647-.22l.565.583c1.254 1.296 3.39 1.361 4.715.143.05-.046.084-.053.102-.055a.23.23 0 0 1 .12.02.226.226 0 0 1 .093.074c.01.016.026.044.02.11l-.544 6.73c-.054.665-.58 1.207-1.276 1.316l-6.186.97c-.704.11-1.398-.25-1.68-.87l-2.772-6.127c-.031-.07-.027-.112-.02-.138a.246.246 0 0 1 .075-.119.269.269 0 0 1 .128-.067.236.236 0 0 1 .145.025c1.651.733 3.612.081 4.401-1.463l.466-.911Z"/>
  <path fill="#2A8A28" d="M22.97 33.684c.855-1.04 2.588-.395 2.482.926l-.071.891-.227 2.834-.194 2.428c-.044.56-.551.98-1.132.94l-2.419-.166c-.946-.066-1.716-.75-1.857-1.653l-.719-4.583c-.186-1.19 1.214-2.017 2.247-1.34a1.444 1.444 0 0 0 1.89-.277Zm48.825 18.739c.371-1.237 2.243-1.263 2.66-.037l.305.896.923 2.71.79 2.322c.183.534-.134 1.103-.708 1.272l-2.244.657c-.924.271-1.927-.092-2.415-.874l-2.553-4.095c-.628-1.007.362-2.216 1.578-1.946.724.16 1.464-.238 1.664-.905Z"/>
  <path fill="#FFC800" stroke="#FF9600" stroke-width="9" d="M43.11 65.479c1.665-5.405 7.19-9.146 13.437-7.49 7.647 2.03 10.51 7.33 9.232 11.477-.62 2.01-3.084 5.286-7.022 8.905-3.398 3.122-7.31 5.972-10.567 7.827-1.68-3.494-3.31-7.43-4.343-11.173-1.165-4.219-1.369-7.497-.737-9.546Zm-26.276-9.143c-.693-5.36 2.755-10.78 9.327-11.51 8.024-.894 12.788 2.98 13.315 7.054.113.872.01 2.29-.491 4.254-.486 1.905-1.278 4.059-2.292 6.287-1.847 4.06-4.286 8.054-6.527 10.892-3.016-2.58-6.172-5.585-8.694-8.627-2.843-3.429-4.375-6.313-4.638-8.35Z"/>
  <path fill="#5CAF5F" stroke="#2E8F26" stroke-width="3" d="M33.284 45.213a1.087 1.087 0 0 1 1.766.042l.458.672a3.257 3.257 0 0 0 4.472.891c.07-.045.116-.05.148-.048.04.002.093.018.144.055a.276.276 0 0 1 .097.12c.012.03.022.075 0 .155l-1.686 6.33a1.5 1.5 0 0 1-1.45 1.114h-6.467a1.5 1.5 0 0 1-1.455-1.133l-1.576-6.243a.283.283 0 0 1 .005-.184.325.325 0 0 1 .114-.14.325.325 0 0 1 .17-.062.284.284 0 0 1 .175.055c1.456.951 3.4.611 4.447-.777l.638-.847Z"/>
  <path fill="#2A8A28" d="M31.705 46.89c.788-1.121 2.552-.564 2.552.807v6.114c0 .56-.454 1.015-1.015 1.015h-2.507a2 2 0 0 1-1.945-1.535l-1.054-4.402c-.292-1.222 1.031-2.196 2.13-1.584.627.35 1.426.174 1.84-.414Z"/>
  <path fill="#FFC800" stroke="#FF9600" stroke-width="9" d="M22.3 67.247c0-5.559 4.167-10.6 10.725-10.6 8.013 0 12.3 4.4 12.3 8.652 0 .909-.289 2.339-1.038 4.261-.727 1.868-1.789 3.948-3.08 6.078-2.349 3.878-5.276 7.623-7.862 10.233-2.657-2.934-5.399-6.31-7.508-9.653-2.375-3.766-3.537-6.858-3.537-8.971Zm64.896.489c-2.805-5.103-1.424-11.308 4.268-14.001 6.993-3.31 13.008-1.32 15.171 2.615 1.039 1.89 1.64 5.855 1.423 10.974-.188 4.411-.947 8.952-1.958 12.372-3.784-1.492-7.847-3.334-11.337-5.413-3.936-2.344-6.508-4.62-7.567-6.547Z"/>
  <path fill="#FFC800" stroke="#FF9600" stroke-width="9" d="M69.162 74.251c-2.805-5.103-1.423-11.308 4.269-14.001 6.993-3.31 13.008-1.32 15.17 2.615 1.04 1.89 1.64 5.855 1.423 10.974-.188 4.411-.947 8.952-1.958 12.372-3.784-1.492-7.846-3.334-11.337-5.413-3.935-2.344-6.507-4.62-7.567-6.547Z"/>
  <path fill="#FF9C40" stroke="#884100" d="M122.825 71.975c0 2.194.114 4.318.222 6.35l.018.338c.114 2.14.215 4.174.169 6.108-.092 3.864-.772 7.267-3.063 10.207-2.295 2.947-6.264 5.498-13.086 7.526-6.822 2.028-16.447 3.518-29.992 4.377-4.458.283-9.338.497-14.681.64-3.911.104-7.577.151-11.01.143a255.18 255.18 0 0 1-12.052-.293c-14.51-.724-23.569-2.755-29.194-5.684-1.4-.729-2.585-1.512-3.587-2.343l-.319.385.32-.385c-2.635-2.184-4.033-4.717-4.746-7.521-.725-2.85-.745-5.987-.61-9.346.034-.831.077-1.677.121-2.534.132-2.584.27-5.273.165-7.987-.26-6.755 1.416-10.179 4.363-11.732 1.504-.792 3.397-1.133 5.662-1.123 2.264.009 4.865.367 7.762.943 2.896.576 6.067 1.364 9.472 2.226l1.165.296c3.06.776 6.296 1.598 9.662 2.362C47.18 66.65 55.466 68.09 64 68.09c12.53 0 23.897-3.236 33.213-5.908l.2-.058c3.945-1.132 7.506-2.153 10.644-2.788 3.196-.646 5.896-.878 8.073-.443 2.146.428 3.789 1.504 4.917 3.527 1.145 2.052 1.778 5.118 1.778 9.554Z"/>
  <path stroke="#884100" d="m11.5 58.966-9.975 8.768"/>
</svg>
