<svg xmlns="http://www.w3.org/2000/svg" width="477" height="469" fill="none" viewBox="0 0 477 469">
  <ellipse cx="238.099" cy="234.5" fill="#ADB5ED" fill-opacity=".5" rx="238.099" ry="234.5"/>
  <ellipse cx="239.459" cy="237.85" fill="#ADB5ED" fill-opacity=".5" rx="204.085" ry="201"/>
  <path fill="#fff" d="M346.944 211.72c10.296 35.198-26.19 45.56-59.712 45.56-33.523 0-60.698-16.498-60.698-36.85 0-20.351 27.175-36.85 60.698-36.85 33.522 0 52.461 3.35 59.712 28.14Z"/>
  <ellipse cx="212.928" cy="302.17" fill="#FBD185" rx="103.85" ry="105.444" transform="rotate(-90 212.928 302.17)"/>
  <path fill="#FEE9BD" fill-opacity=".8" d="M318.372 300.312c0 56.329-19.048 0-74.831-14.892-50.561-13.498-136.056 46.405-136.056 8.312 0-38.092 47.081-95.412 105.361-95.412 58.281 0 105.526 45.664 105.526 101.992Z" opacity=".6" style="mix-blend-mode:luminosity"/>
  <path fill="#F8AF44" stroke="#F8B85D" stroke-width="3" d="M202.585 362.805c0 11.176-9.206 20.275-20.609 20.275-11.404 0-20.61-9.099-20.61-20.275 0-11.176 9.206-20.275 20.61-20.275 11.403 0 20.609 9.099 20.609 20.275Z"/>
  <path fill="#FBC97C" stroke="#FBD183" stroke-width="3" d="M269.933 250.245c0 11.176-9.206 20.275-20.609 20.275-11.404 0-20.61-9.099-20.61-20.275 0-11.176 9.206-20.275 20.61-20.275 11.403 0 20.609 9.099 20.609 20.275Zm31.293 45.895c0 7.661-6.312 13.91-14.147 13.91-7.834 0-14.146-6.249-14.146-13.91 0-7.661 6.312-13.91 14.146-13.91 7.835 0 14.147 6.249 14.147 13.91Zm-98.641-30.82c0 7.661-6.312 13.91-14.147 13.91-7.834 0-14.146-6.249-14.146-13.91 0-7.661 6.312-13.91 14.146-13.91 7.835 0 14.147 6.249 14.147 13.91Zm20.408-41.54c0 7.661-6.312 13.91-14.146 13.91-7.835 0-14.147-6.249-14.147-13.91 0-7.661 6.312-13.91 14.147-13.91 7.834 0 14.146 6.249 14.146 13.91Zm19.729 77.385c0 2.295-1.896 4.195-4.283 4.195-2.387 0-4.282-1.9-4.282-4.195 0-2.295 1.895-4.195 4.282-4.195s4.283 1.9 4.283 4.195Z"/>
  <path fill="#F8AF44" stroke="#F8B85D" stroke-width="3" d="M225.715 373.19c0 2.11-1.744 3.86-3.943 3.86s-3.942-1.75-3.942-3.86 1.743-3.86 3.942-3.86 3.943 1.75 3.943 3.86Zm-18.368-74.035c0 3.406-2.81 6.205-6.324 6.205-3.513 0-6.323-2.799-6.323-6.205 0-3.405 2.81-6.205 6.323-6.205 3.514 0 6.324 2.8 6.324 6.205Zm-57.144 56.615c0 2.11-1.744 3.86-3.942 3.86-2.199 0-3.943-1.75-3.943-3.86s1.744-3.86 3.943-3.86c2.198 0 3.942 1.75 3.942 3.86Zm4.762-25.46c0 5.071-4.18 9.22-9.385 9.22-5.204 0-9.384-4.149-9.384-9.22 0-5.071 4.18-9.22 9.384-9.22 5.205 0 9.385 4.149 9.385 9.22Z"/>
  <path fill="#fff" d="M180.651 227.8c0 14.431 4.082 18.76-17.007 18.76-13.946-1.34-12.585-4.329-12.585-18.76 0-14.431 47.736-38.19 59.195-38.19 11.46 0 19.341 7.37-29.603 38.19Z"/>
  <path fill="#fff" d="M180.651 227.8c0 14.431 4.082 18.76-17.007 18.76-13.946-1.34-12.585-4.329-12.585-18.76 0-14.431 47.736-38.19 59.195-38.19 11.46 0 19.341 7.37-29.603 38.19Z"/>
  <path fill="#fff" d="M181.295 236.468c0 2.378-24.49-6.345-9.184 0-7.889 0-14.966 2.224-14.966-5.361 0-7.586 33.608-17.377 41.498-17.377 7.889 0-17.348 6.915-17.348 22.738Zm60.214 10.841c5.011 13.561 11.309 15.91-8.508 23.014-13.57 3.438-13.329.171-18.341-13.39-5.011-13.561 31.595-51.967 42.363-55.827 10.769-3.86 19.775.755-15.514 46.203Z"/>
  <path fill="#fff" d="M241.509 247.309c5.011 13.561 11.309 15.91-8.508 23.014-13.57 3.438-13.329.171-18.341-13.39-5.011-13.561 31.595-51.967 42.363-55.827 10.769-3.86 19.775.755-15.514 46.203Z"/>
  <path fill="#fff" d="M246.471 256.892c.827 2.236-25.216 2.288-8.629 3.094-7.415 2.658-13.292 7.132-15.926.004-2.634-7.128 23.25-28.965 30.664-31.623 7.414-2.658-11.603 13.657-6.109 28.525Zm64.304-132.046c-12.298 18.927-26.475 32.478-32.501 31.287-.504-.1-1.036-.159-1.56-.092-9.726 1.254-8.506-19.682 3.992-38.918 12.838-19.758 37.787-35.393 43.311-32.78 5.524 2.612-.405 20.746-13.242 40.503Z"/>
  <path fill="#fff" d="M310.775 124.846c-12.349 19.007-26.594 32.592-32.577 31.271-.448-.099-.927-.155-1.384-.089-9.834 1.41-8.649-19.604 3.892-38.905 12.838-19.758 37.787-35.393 43.311-32.78 5.524 2.612-.405 20.746-13.242 40.503Z"/>
  <path fill="#FF7976" fill-opacity=".6" d="M303.56 127.897c-10.128 15.586-20.635 27.282-24.058 26.9a1.903 1.903 0 0 0-.823.075c-6.132 2.07-2.457-13.884 7.827-29.713 10.528-16.202 27.782-30.54 30.747-29.138 2.965 1.402-3.166 15.673-13.693 31.876Z"/>
  <path fill="#fff" d="M261.15 105.86c.719 22.606-2.439 41.705-7.177 43.911-.508.237-1.04.473-1.468.835-6.247 5.276-15.695-14.619-16.431-37.76-.762-23.926 5.652-19.957 10.853-20.156-4.082 13.17 13.462-10.755 14.223 13.17Z"/>
  <path fill="#fff" d="M261.15 105.86c.732 23.016-2.57 41.99-7.452 43.576-.366.119-.732.291-1.022.564-6.244 5.86-15.858-13.781-16.602-37.154-.762-23.926 5.652-19.957 10.853-20.156-4.082 13.17 13.462-10.755 14.223 13.17Z"/>
  <path fill="#FF7976" fill-opacity=".6" d="M254.55 112.889c.601 18.875-1.002 34.392-3.609 35.639a1.352 1.352 0 0 0-.544.452c-3.301 4.736-8.641-11.469-9.251-30.637-.625-19.62 4.366-25.106 7.157-25.213 2.791-.107 5.623.139 6.247 19.759Z"/>
  <path fill="#fff" d="M197.395 171.837c4.47-24.967 28.34-41.691 53.315-37.354 24.975 4.337 41.598 28.093 37.128 53.061-4.47 24.967-26.393 30.571-50.618 22.285-23.066-7.891-44.295-13.025-39.825-37.992Z"/>
  <path fill="#2C2C4C" d="M242.435 185.38c-3.988 3.589-5.73 4.728-9.351 3.589-3.621-1.138-3.109-4.881-3.109-7.464 0-3.875 3.238-2.575 6.859-1.437 3.621 1.139 8.092 3.069 5.601 5.312Z"/>
  <path fill="#2C2C4C" d="M234.698 187.29c0 3.939-1.452 7.132-7.643 7.132-6.19 0-8.661-3.851-6.623-7.132 3.057-1.188.433 5.263 6.623 5.263 6.191 0 4.586-6.848 7.643-5.263Z"/>
  <path fill="#2C2C4C" d="M247.075 193.752c-2.477 3.707-5.715 6.098-10.96 3.483-5.244-2.616-4.915-7.284-1.125-9.51 3.337.173-2.943 5.135 2.301 7.75 5.245 2.616 8.191-4.506 9.784-1.723Z"/>
  <ellipse fill="#2C2C4C" rx="4.418" ry="9.219" transform="matrix(.95395 .29995 -.38827 .92155 258.139 168.612)"/>
  <ellipse cx="258.11" cy="171.894" fill="#fff" rx="1.02" ry=".67"/>
  <ellipse cx="257.43" cy="167.539" fill="#fff" rx="1.701" ry="1.675"/>
  <ellipse fill="#2C2C4C" rx="4.418" ry="9.219" transform="matrix(.95395 .29995 -.38827 .92155 225.485 159.232)"/>
  <ellipse cx="225.052" cy="157.115" fill="#fff" rx="1.701" ry="1.675"/>
  <ellipse cx="225.732" cy="161.47" fill="#fff" rx="1.02" ry=".67"/>
  <path stroke="#E55D5A" stroke-width="1.5" d="m226.813 173.021-2.589 3.701m-2.492-4.373-2.589 3.702m-2.492-4.373-2.589 3.701m36.677 8.017-.73-4.308m10.389 6.642-.729-4.308m-4.1 3.141-.73-4.308"/>
  <path fill="#fff" d="M337.94 191.164c4.603-7.005 14.553-7.862 20.321-1.751l.336.356c7.468 7.911 2.528 20.922-8.297 21.855l-.604.052c-10.826.932-17.984-11.036-12.024-20.104l.268-.408Z"/>
  <path fill="#fff" stroke="#EDEDED" stroke-width=".5" d="M254.011 113.383c-2.527 3.344-4.902 6.709-7.136 9.875l-.023.032c-2.242 3.177-4.34 6.149-6.311 8.702-1.971 2.554-3.807 4.677-5.52 6.16-1.719 1.487-3.279 2.298-4.703 2.298-.707 0-1.265-.198-1.707-.559-.445-.363-.791-.908-1.041-1.631-.503-1.453-.6-3.563-.406-6.156.385-5.161 1.911-12.097 3.477-19.212l.013-.06c1.568-7.123 3.274-12.453 5.332-15.998 2.055-3.538 4.432-5.252 7.339-5.252 1.508 0 3.921.077 6.443.516 2.528.441 5.139 1.242 7.065 2.672 1.913 1.42 3.154 3.463 2.964 6.433-.191 2.992-1.837 6.954-5.786 12.18Z"/>
</svg>
