<svg xmlns="http://www.w3.org/2000/svg" width="223" height="164" fill="none" viewBox="0 0 223 164">
  <ellipse cx="59.5" cy="111.5" fill="#fff" opacity=".25" rx="28.5" ry="41.5"/>
  <ellipse cx="51" cy="129.5" fill="#fff" opacity=".25" rx="37" ry="25.5"/>
  <ellipse fill="#fff" opacity=".25" rx="16.653" ry="48.52" transform="matrix(.86859 .49553 -.50448 .86342 69.523 74.145)"/>
  <ellipse cx="130" cy="115" fill="#fff" opacity=".25" rx="49" ry="34"/>
  <ellipse fill="#fff" opacity=".25" rx="14.214" ry="32.863" transform="matrix(.17567 -.98445 .98516 .17165 110.377 144.366)"/>
  <ellipse fill="#fff" opacity=".25" rx="14.214" ry="32.863" transform="matrix(-.17567 -.98445 .98516 -.17165 188.128 124.447)"/>
  <ellipse fill="#fff" opacity=".25" rx="15.206" ry="14.156" transform="matrix(-.17567 -.98445 .98516 -.17165 162.386 91.48)"/>
  <ellipse fill="#fff" opacity=".25" rx="15.206" ry="14.156" transform="matrix(-.17567 -.98445 .98516 -.17165 179.088 114.814)"/>
  <path stroke="#000" stroke-linecap="round" stroke-width="3" d="M61.518 117c2.124 4.439 7.994 10.653 14.482 0m-45.185 33c-2.124-2.509-5.098-9.263 0-16.211" opacity=".25"/>
  <path fill="#000" d="M28.823 140 35 129.5 25 126l3.823 14Z" opacity=".25"/>
  <path stroke="#8A8A8A" d="M28.244 150.566c-2.118 4.38 8.663 11.426 68.726 4.57m39.272 0c-.577 0 13.861 2.285 6.931-7.998.192 2.666 6.814 5.027 31.764-6.856m25.989-5.141c10.01-.952 27.375-4.114 16.748-9.141" opacity=".25"/>
  <ellipse fill="#fff" opacity=".25" rx="16.548" ry="48.827" transform="matrix(.47385 .8806 -.88525 .46512 99.501 77.787)"/>
  <ellipse fill="#FF6DE8" opacity=".25" rx="8.842" ry="31.238" transform="matrix(.4755 .87971 -.88438 .46676 108.487 72.538)"/>
  <path stroke="#000" stroke-width="3" d="M93.419 91c-10.214-5.361-17.807-18.841 33.532-29.87 4.432-.574 11.331.46 3.468 9.19" opacity=".25"/>
  <path stroke="#000" stroke-width="3" d="M54.256 71.301c7.884-14.514 26.534-42.41 36.916-39.018 10.383 3.393 4.423 22.62 0 31.667m-36.916 7.351C22.5 84 30.8 99.01 30.607 109.188c-26.303 13.572-15.574 30.536-6.922 37.322 23.996 15.381 48.068 6.409 57.105 0M54.256 71.301c6.538-1.081 19.612-2.185 19.612 2.053m17.305-9.404c16.343-6.974 47.298-15.833 51.913-9.047 4.614 6.785-14.997 27.143-14.997 27.143M91.173 63.95c-5.162 2.062-12.375 5.567-17.305 9.404m54.221 8.692s17.085 1.758 20.188 2.827m-20.188-2.828c-7.036 5.848-20.98 15.56-30.572 16.784m50.76-13.956c4.723 1.627 4.038-12.44 19.612-6.22 12.459 4.976 5.768 19.226 5.768 19.226 6.153 1.508 18.343 5.881 17.881 11.309m-43.261-24.315c10.618 1.303 31.206 8.495 28.617 26.836m14.644-2.521c8.652-.754 26.418-.339 28.264 7.352 2.307 9.613-15.574 24.315-51.913 22.053-4.423 3.016-15.574 8.822-24.803 7.917m48.452-37.322c-3.377.382-9.563 1.281-14.644 2.521m-33.808 34.801c-3.461 8.671-20.766 20.81-62.296 0m62.296 0c1.346-5.278-.923-14.25-20.766-7.917m-41.53 7.917c15.69 0 17.689-31.788 16.727-47.681m-27.11-13.956c-4.177-3.413-1.527-7.636 3.461-11.519M91.173 97.88c1.699 1.018 3.878 1.264 6.344.95m73.256 14.883c1.497-.733 3.681-1.408 6.121-2.003" opacity=".25" style="mix-blend-mode:darken"/>
  <path stroke="#fff" stroke-linecap="round" stroke-width="3" d="M83.804 79.092c.092 1.669.406 3.338.442 5.005.036 1.624.3 3.198.886 4.726.112.293.545.858.287.163-.33-.884-.606-1.797-.976-2.666-.647-1.521-1.482-2.868-1.525-4.57-.008-.34-.147-1.35-.147-1.01 0 1.062-.142 2.122-.148 3.187-.01 2.012-.532 4.853.607 6.653.401.634.279.079.279-.443 0-1.223.048-2.46-.328-3.646-.256-.807-.746-1.875-1.492-2.394-.476-.33-.684 1.548-.689 1.71-.01.395.192 4.224 1.033 4.135.993-.104 0-5.14-.59-5.673-.212-.192-.293 1.485-.287 1.624.04.935.338 1.777.91 2.541.52.696 1.392 1.135 2.18 1.508 1.376.652 2.55 1.985 4.247 2.021.339.007 1.23.147 1.475-.17.272-.355-1.268-1.063-1.517-1.299-.853-.809-2.105-1.557-2.73-2.518-.32-.496-.618-1.092-.729-1.671-.184-.962.504-.273.877.14.287.316.528.623.59 1.041.047.31.403.376.435.707.1 1.048-.825.325-1.016-.28-.425-1.342-.894-2.636-.894-4.049 0-1.78-.522-3.895 0-5.627.232-.769.295.559.295.785v1.694c0 .992.406-1.051.435-1.32.054-.514.293-.835.45-1.283m9.606-8.988c.245-.606-.038-1.4.648-1.775.43-.235 1.032-.213 1.515-.213.246 0 1.314-.284.633-.284-.977 0-1.417-.1-2.14.481-.488.394-.662 1.028-1.234 1.302-.657.314-1.22.559-1.795.962-.984.692-1.925 1.39-2.82 2.224-.508.474-.577-.107-.577-.489 0-.54.898-.788 1.37-.788 1.346 0 2.57-.373 3.742-1.002.337-.18.81-.583 1.09-.844.555-.516 1.081-.53 1.779-.742.99-.3 1.954-.942 2.836-1.42 1.138-.615 2.272-.928 3.47-1.458 1.142-.506 2.825-1.35 4.11-1.35.727 0 1.566-.37 2.26-.599.835-.274 1.639-.17 2.484-.362.489-.111 1.151-.034 1.603-.237.338-.152.384-.22.785-.22.745 0 1.617-.167 2.308-.458.713-.301 1.742-.59 2.524-.67.372-.04.725-.014 1.097-.08.593-.104 1.033-.436 1.627-.504.626-.073 1.284-.345 1.899-.49.83-.194 1.792-.07 2.644-.07.861 0 1.697.118 2.548.142.522.014 1.087-.026 1.571.205 1.217.582 1.77 2.066 3.253 2.066" opacity=".25"/>
  <path stroke="#fff" stroke-linecap="round" stroke-width="3" d="M136.562 65c-.051-1.006-.741-1.95-1.072-2.913-.349-1.017-.641-1.928-1.159-2.905a10.181 10.181 0 0 0-2.423-3.035c-.832-.71-.689 1.367-.508 1.693.709 1.282 2.788 1.257 4.106 1.414.162.019.67.16.826.035.32-.257.032-1.143-.222-1.355-2.308-1.924-3.745 3.202-.985 3.056 1.253-.067 1.294-1.508 1.294-2.36 0-.343-.008-.711-.54-.546-.69.215-.734 1.111-.746 1.65-.025 1.097.102 2.132 1.278 2.734.613.313 1.798.671 1.557-.38-.252-1.102-1.954-1.61-2.978-1.794-1.276-.228-2.373-.547-3.686-.588-.241-.008-1.742-.631-.937-.173.566.323 1.811.815 2.494.574.568-.2-.998-.682-1.588-.818-4.555-1.045-9.393-1.593-14.066-2.015-.258-.024-.978.047-.755.165.226.119.673.069.905.071a156.7 156.7 0 0 1 3.209.072c2.638.087 5.271.18 7.911.187h1.35c-2.922 0-5.846-.029-8.768 0-.474.004-3.91-.192-3.94.774-.017.574 10.603.149 11.501.13.669-.015 2.613.116 2.001-.13-.679-.272-2.166-.115-2.819-.122a487.54 487.54 0 0 0-9.825 0c-.695.008-1.585-.053-2.272.151-.066.02-.35.16-.262.28.24.324 2.299.079 2.653.079.432 0 1.725-.03 1.295 0-.454.031-.905.033-1.358.079a118.3 118.3 0 0 0-3.368.373c-1.467.19 1.421.315 1.692.323 1.138.031-1.09.608-1.271.645-1.048.218-2.164.397-3.161.775-.184.07-.439.309-.27.502.32.368 1.506.096 1.89-.007 1.113-.298 2.179-.63 3.312-.882 1.592-.355.429-.407-.484-.302-2.449.283-4.969.559-7.196 1.564-.344.156-1.955 1.025-.715.804 1.032-.184 1.971-.462 2.907-.904.188-.09 1.806-.971 1.525-.976-.946-.015-1.987.283-2.939.359-.523.041-1.731.359-.445.359 2.467 0 9.832-.736 7.379-.503-.546.052-2.166.332-1.628.23 1.006-.191 1.981-.471 2.954-.768.925-.281 1.863-.536 2.78-.839.095-.031-1.576-.057-1.89-.057-1.182 0-2.447-.116-3.622.028-.277.034 1.046.096 1.255.1.197.005.813.056.548.388-.337.422-1.215.384-1.716.517-.891.236-1.85.376-2.652.832-.54.306-1.074.604-1.43 1.105-.235.33 1.683-.292 1.986-.517.974-.725 1.89-.874 3.137-.904 1.369-.032 2.638-.247 3.852-.753 1.259-.525 2.584-.876 3.947-1.184.796-.18 1.551-.276 2.367-.358.4-.041.836-.058 1.239-.03.322.024-.849.398-.921.417-2.572.67-5.043 1.963-7.752 2.16-1.274.091-2.295.566-3.51.81-1.294.26-2.617.23-3.94.23-.016 0-1.019.059-.858.186.394.311 1.935.079 2.423.065 1.864-.054 3.486-.541 5.281-.883 2.042-.388 3.904-1.29 5.926-1.664.645-.12 1.224-.35 1.882-.423.66-.075 1.328-.063 1.993-.13.542-.054.786-.213 1.271.08.738.444.197.444-.397.444h-1.604c-.603 0-.744-.233-1.255-.387m-43.44 19.257c.103 1.669.452 3.338.492 5.005.04 1.624.333 3.198.984 4.726.125.293.606.858.319.163-.366-.884-.673-1.797-1.084-2.666-.72-1.521-1.647-2.868-1.694-4.57-.01-.34-.164-1.35-.164-1.01 0 1.062-.158 2.122-.164 3.187-.013 2.012-.591 4.853.674 6.653.446.634.31.079.31-.443 0-1.223.053-2.46-.365-3.646-.284-.807-.829-1.875-1.657-2.394-.53-.33-.761 1.548-.766 1.71-.01.395.213 4.224 1.148 4.135 1.103-.104 0-5.14-.656-5.673-.235-.192-.325 1.485-.319 1.624.045.935.376 1.777 1.011 2.541.579.696 1.547 1.135 2.423 1.508 1.528.652 2.832 1.985 4.718 2.021.377.007 1.368.147 1.64-.17.301-.355-1.41-1.063-1.686-1.299-.948-.809-2.34-1.557-3.032-2.518-.358-.496-.688-1.092-.811-1.671-.205-.962.56-.273.974.14.318.316.586.623.656 1.041.052.31.448.376.483.707.112 1.048-.917.325-1.13-.28-.471-1.342-.992-2.636-.992-4.049 0-1.78-.58-3.895 0-5.627.257-.769.328.559.328.785v1.694c0 .992.45-1.051.482-1.32.06-.514.326-.835.501-1.283"/>
  <path stroke="#fff" stroke-linecap="round" stroke-width="3" d="M95.77 69.125c.245-.606-.038-1.4.648-1.775.43-.235 1.032-.213 1.515-.213.246 0 1.314-.284.633-.284-.977 0-1.417-.1-2.14.481-.488.394-.662 1.028-1.234 1.302-.657.314-1.22.559-1.795.962-.984.692-1.925 1.39-2.82 2.224-.508.474-.577-.107-.577-.489 0-.54.898-.788 1.37-.788 1.346 0 2.57-.373 3.742-1.002.337-.18.81-.583 1.09-.844.555-.516 1.081-.53 1.779-.742.99-.3 1.954-.942 2.836-1.42 1.138-.615 2.272-.928 3.47-1.458 1.142-.506 2.825-1.35 4.11-1.35.727 0 1.566-.37 2.26-.599.835-.274 1.639-.17 2.484-.362.489-.111 1.151-.034 1.603-.237.338-.152.384-.22.785-.22.745 0 1.617-.167 2.308-.458.713-.301 1.742-.59 2.524-.67.372-.04.725-.014 1.097-.08.593-.104 1.033-.436 1.627-.504.626-.073 1.284-.345 1.899-.49.83-.194 1.792-.07 2.644-.07.861 0 1.697.118 2.548.142.522.014 1.087-.026 1.571.205 1.217.582 1.77 2.066 3.253 2.066" opacity=".25"/>
  <path stroke="#8A8A8A" stroke-linecap="round" stroke-width="3" d="M30 152c.163.158.205.296.388.415.172.111.122.304.215.445.054.083.293.37.227.373-.263.01-.47.023-.196.274.296.272.519.479.952.479.239 0 .434.037.666.065.238.029.222.161.462.213.433.094.738.613 1.163.613.4 0 .895.387 1.304.475.314.068.704.058.967.263.258.201.929-.072 1.198.137.262.203.706.091 1.006.156.356.077.757.117 1.093.255.157.064.43.015.6.015.185 0 .315.137.492.137.339 0 .863.091 1.187.206.695.245 1.397.205 2.162.205.173 0 .372.138.548.19.173.052.398.016.58.016.313 0 .653.068.986.068m-15-3h1m-1-2c.045.24.652.381.859.511.253.159.573.115.851.205.186.061.358.103.542.163.226.074.426.258.663.27.165.009.367.159.528.206.182.052.43.062.595.127.206.082.422.161.655.178.304.021.582.255.9.255.272 0 .507.156.776.188.27.032.543.039.814.071.55.064 1.141.252 1.695.252.536 0 1.04.255 1.559.255.55 0 1 .319 1.563.319m3 1.573c1.021 0 2.028.142 3.057.142h2.24c1.583 0 3.155.071 4.74.071 1.386 0 2.853.131 4.233-.004 1.503-.147 3-.287 4.493-.51.827-.123 1.66-.25 2.49-.34 1.046-.114 2.096-.395 3.147-.427 1.085-.034 2.189-.403 3.267-.534 1.538-.188 3.101-.25 4.65-.25 1.463 0 2.93-.213 4.4-.213 1.236 0 2.547-.005 3.76-.246 1.024-.202 2.008-.181 3.05-.181 1.034 0 2.058-.072 3.089-.072h2.843c.256 0 .691-.089.489.285-.15.276-.615.214-.873.214-.328 0-.861.095-1.145.249-.262.143-.66.112-.946.174-.634.138-1.436-.116-2.034.131-.13.053-.34.015-.477.015-.234 0-.396.113-.619.139-.501.058-1.045.004-1.549.004-.854 0-1.697.142-2.527.142-.203 0-.352.143-.55.143-.225 0-.42-.01-.635.055-.311.094-.765.016-1.092.016-.68 0-1.352.285-2.022.285-.236 0-.42.027-.647.067-.178.032-.378.138-.55.146-.421.021-.853.072-1.27.072h-6.481c-.271 0-.733.023-.983.126-.53.219.019.158.364.158h.962c.044 0 .413.029.413-.035 0-.069-.447-.041-.518-.02-.596.179-1.354.127-1.985.127h-3.878c-.289 0-.568.142-.853.142h-.91c-1.147 0-2.295.071-3.457.071-.294 0-.55.071-.837.071h-.364c-.067 0 .227.015.295.036.578.177 1.116.178 1.743.178h4.658M59 157H47" opacity=".25"/>
  <path stroke="#8A8A8A" stroke-linecap="round" stroke-width="3" d="M60 156h1.81c.491 0 1.11-.347 1.59-.509.413-.141.97-.34 1.408-.353.49-.015.904-.284 1.404-.314.289-.017.52-.157.831-.157.384 0 .724-.156 1.112-.156.749 0 1.53-.198 2.287-.24a51.039 51.039 0 0 1 2.85-.074c1.063 0 2.103-.299 3.162-.313.985-.014 1.954-.157 2.941-.157 1.073 0 2.191-.089 3.25-.274.918-.161 1.855-.182 2.782-.196.48-.008.95-.193 1.428-.253.493-.062.986-.084 1.477-.157.36-.053.71-.061 1.072-.061.312 0 .482-.099.75-.152.31-.061.667-.004.984-.004h.196-7.946c-.498 0-1.003-.025-1.5 0-1.083.053 2.166.078 3.25.078h2.135c.255 0 .986-.149 1.188.043.185.177.485.13.714.227.239.101.472.243.73.274.513.062.99.24 1.517.24.067 0 .52.061.562-.035.093-.213-.249-.212-.345-.261-.12-.062-.138-.206-.257-.253-.231-.091-.427-.256-.654-.353-.598-.254-1.222-.309-1.842-.431-.79-.155-1.663-.157-2.464-.157h-3.379c-1.013 0-2.056-.029-3.062.118-.817.12-1.68.274-2.504.274-1.635 0-3.283.079-4.924.079-.85 0-1.588.157-2.44.157M73 152c2.518 0 4.983-.6 7.507-.6 1.617 0 3.217-.225 4.823-.225h1.482c.342 0 .156-.103-.072-.187-.32-.12-.58-.15-.907-.192-1.69-.219-3.481-.071-5.19-.071-1.145 0-2.275-.075-3.42-.075h-.58c-.445 0 .64-.263.765-.283.36-.059.71-.156 1.072-.225.302-.058.533-.268.814-.375.42-.161.72-.435 1.12-.6.146-.061.305-.167.467-.167.286 0 .488.195.75.225.163.019.533.04.653.15.173.161.374.396.58.508.321.175.475.581.797.692M96 154.543c.031.995 2.737.155 3-.543m38-.135c.266 0 .461.135.722.135h1.054c.469 0 .914.015 1.35-.15.436-.165.927-.123 1.385-.19.336-.049.743-.254 1.03-.414.064-.036.062-.103.11-.149.073-.069.192-.016.273-.075.115-.084.272-.188.363-.302.225-.284.212-.63.39-.914.153-.243.213-.656.213-.929 0-.255.224-.773.032-1.007-.199-.242-.255-.661-.6-.824-.493-.233-.75.49-.884.761-.481.974-.176 2.267-1.105 3.047-.323.272-.671.525-1.121.541-.268.01-.797.224-.797-.231 0-.348.786-.716 1.026-.91.225-.183.434-.285.608-.523.058-.079.214-.25.284-.283M143 150v2m31.992-12.968c.082-.098-.503.055-.6.11a1.91 1.91 0 0 1-.983.259c-.281 0-.518.221-.784.221-.432 0-.881.074-1.325.074-.891 0-1.929-.145-2.799.057-.484.113-1.113.026-1.552.328-.46.316-.966.539-1.412.885-.203.158-.297.431-.533.537-.279.125-.536.296-.807.439a7.33 7.33 0 0 1-2.082.696c-.432.067-.741.326-1.16.451a23.17 23.17 0 0 0-1.027.332c-.667.232-1.286.581-1.976.738-.823.187-1.623.773-2.465.844-.628.052-1.328.217-1.941.377-1.417.37-2.891.92-4.343 1.098-1.183.146-2.362.57-3.563.594-.508.011-1.016.181-1.498.222-.338.028.015.074.157.074h.619c.362 0 .649-.03.965.18.082.054.975.188.498.188h-.996c-.781 0 .034.222.361.222h2.152c.775 0 1.709.14 2.454-.09.876-.272 1.916-.123 2.696-.705.341-.254.863-.184 1.239-.386.323-.173.86-.266 1.129-.516.126-.117.272-.032.42-.115.197-.111.412-.163.631-.217.431-.107.858-.238 1.305-.332.99-.207 1.84-1.008 2.795-1.324.406-.134.795-.344 1.192-.463.274-.082.468-.243.76-.295.257-.045.697-.173.917-.311.838-.526 1.716-.953 2.572-1.459.899-.532 1.747-.939 2.732-1.168.136-.032.314-.143.474-.185.309-.08.552-.106.87-.106.27 0 .972-.02 1.165-.254.097-.119-.005.102-.036.143-.101.136-.329.156-.482.181-.17.027-.244.171-.396.217-.146.044-.349.052-.497.078-.548.095-1.016.658-1.549.737-.529.079-1.034.451-1.482.685-.548.286-1.122.436-1.709.664-.623.241-1.166.587-1.85.717-.143.027-.284.048-.427.082-.156.036-.26.217-.424.217-.351 0-.641.366-.987.447-.301.069-.595.349-.898.455-.257.089-.509.219-.76.336-.287.133-.68.145-.988.164-.34.02-.645.424-.988.442-.286.015-.693.278-.933.443a.895.895 0 0 1-.463.147c-.193.015-.386.186-.58.238-.348.094-.705.14-1.042.262-.267.097-.635.079-.863.238" opacity=".25"/>
  <path stroke="#8A8A8A" stroke-linecap="round" stroke-width="3" d="M172 140c-.326 0-.618.298-.928.416-.344.132-.701.201-1.049.321-.684.235-1.134.729-1.783.977a7.884 7.884 0 0 0-.815.36c-.333.174-.726.156-1.058.32-.237.118-.474.238-.702.329-.304.121-.572.347-.887.432-.3.081-.565.279-.856.393-.28.109-.537.173-.782.288-.235.11-.54.186-.799.2-.147.008-.532.076-.638.16-.179.143-.474.067-.669.24-.12.107-.272.065-.404.113-.172.062-.304.169-.484.224-.203.062-.606.083-.767.216-.203.168-.441.109-.686.184-.953.291-2.083.49-2.848 1.169a1.239 1.239 0 0 1-.767.289c-.192 0-.526-.061-.67.056-.178.145-.561.16-.782.16h-.577c-.173 0-.273.135-.44.144-.486.025-.887.432-1.38.432-.627 0-1.266.194-1.904.217-1.124.039-2.201.36-3.325.36m70.244-22c.017.272.576.582.788.677.123.056.303.151.438.151.218 0 .277.279.483.301.323.034.548.301.854.301.208 0 .547.299.631.489.061.141.223.066.223.226 0 .144.039.319-.091.414-.411.3-.805.622-1.23.903-.846.563-1.515 1.138-2.55 1.322-.314.055-.614.154-.924.226-.336.077-.69.014-1.031.066-.714.11-1.468.207-2.15.452-.355.128-.738.13-1.089.272-.371.15-.932.274-1.333.297-.581.033-1.325.211-1.857.468-.291.141-.69.435-.107.435.361 0 .617.011.887-.263.223-.226.774-.189 1.077-.189.373 0 .67-.01 1.023-.133.304-.107.559-.169.871-.239.162-.036.337.026.499-.021.182-.052.432-.134.619-.134.559 0 1.272-.223 1.778-.451.337-.152.752-.104 1.077-.243.344-.146.695-.295 1.057-.435.7-.27 1.435-.378 2.1-.677.307-.138.523-.411.796-.602.311-.218.619-.392.858-.694.151-.191-.018-.719-.165-.841-.131-.109-.429-.046-.594-.046-.36 0-.898-.107-1.234.046-.783.357-1.462.931-2.133 1.46-.556.438-1.374 1.034-2.079 1.187-.749.163.138-1.064.47-1.212.763-.341 1.356-.668 2.001-1.222.279-.239.449-.6.706-.861.262-.265.581-.575.742-.903" opacity=".25"/>
  <path stroke="#000" stroke-linecap="round" stroke-width="3" d="M54.256 71.301c7.883-14.514 26.534-42.41 36.916-39.018 10.383 3.393 4.423 22.62 0 31.667m-36.916 7.351C22.5 84.5 30.192 98.821 30 109c-26.303 13.571-14.967 30.724-6.315 37.51 23.996 15.381 48.068 6.409 57.105 0M54.256 71.301c6.538-1.081 19.612-2.185 19.612 2.053m17.304-9.404c16.343-6.974 47.299-15.833 51.914-9.047 4.614 6.785-14.998 27.143-14.998 27.143M91.172 63.95c-5.16 2.062-12.374 5.567-17.304 9.404m54.22 8.692s17.018 1.98 20.189 2.827m-20.189-2.828c-7.035 5.848-20.979 15.56-30.57 16.784m50.759-13.956c4.223 1.127 4.038-12.44 19.612-6.22 12.459 4.976 5.768 19.226 5.768 19.226 6.152 1.508 18.342 5.881 17.881 11.309m-43.261-24.315c10.618 1.303 31.206 8.495 28.617 26.836m14.644-2.521c8.652-.754 26.418-.339 28.264 7.352 2.307 9.613-15.574 24.315-51.913 22.053-4.423 3.016-15.574 8.822-24.803 7.917m48.452-37.322c-3.377.382-9.563 1.281-14.644 2.521m-33.808 34.801c-3.461 8.671-20.766 20.81-62.296 0m62.296 0c1.346-5.278-.923-14.25-20.766-7.917m-41.53 7.917c15.69 0 17.689-31.788 16.727-47.681m-27.11-13.956c-4.177-3.413-1.527-7.636 3.461-11.519M91.172 97.88c1.7 1.018 3.879 1.264 6.345.95m73.256 14.883c1.497-.733 3.681-1.408 6.121-2.003" opacity=".25" style="mix-blend-mode:darken"/>
  <path stroke="#fff" stroke-linecap="round" stroke-width="3" d="M111 62c-.455.526-1.294.428-1.889.635-.236.082-.503.135-.745.196-.269.067-.482.031-.753.156-.183.085-.376.1-.56.173-.16.063-.277.189-.448.235-.666.181-1.366.39-2.002.65-.63.259-1.257.555-1.873.792-.486.187-.885.41-1.417.533-.532.123-1.099.551-1.626.58-.13.007-.424.112-.56.156a1.95 1.95 0 0 0-.593.338c-.127.105-.337.105-.488.156-.182.062-.32.2-.52.251-.094.024-.421.049-.489.102-.163.128.26-.04.313-.086.132-.116.355-.17.52-.282.136-.092.242-.247.392-.298.383-.13.842-.02 1.21-.18.333-.146-.018-.013-.177.054-.268.114-.36.07-.56.267-.133.13-.355.233-.505.352-.144.116-.315.246 0 .047.144-.09.365-.301.537-.313.304-.021.469-.261.76-.282.612-.044 1.34-.285 1.906-.494.445-.164 1.001-.22 1.353-.564M103 66c.424 0 .662-.556 1.065-.694.121-.042.344-.106.451-.106.153 0 .312-.2.484-.2m1 0c.043-.46 1.006-.548 1.287-.696.394-.207.835-.16 1.156-.502.129-.138.485-.263.645-.348.152-.08.497-.247.662-.275.315-.053.979.035 1.25-.179m23.997-6.793c.094-.138-1.811-.207-2.023-.207-.908 0-1.731.17-2.622.276-1.635.192-3.264.435-4.901.628-.144.017-.768.186-.247.03 1.238-.37 2.527-.47 3.822-.516.84-.03 1.693-.026 2.53-.088.403-.03 1.591-.147 1.192-.207-1.55-.236-3.237-.054-4.809-.054-.442 0-1.219-.098-1.552.207"/>
  <path stroke="#fff" stroke-linecap="round" stroke-width="3" d="M94.044 91.528c-.797 1.373-2.77 1.652-4.148 2.349-.925.468.181-.538.48-.69.533-.272 1.168-.602 1.78-.602.174 0 1.226-.214.665-.257-.866-.065-1.709.099-2.569.125-.249.008-.46.033-.696.103-.047.014-.358.133-.38.08-.176-.418 1.752-.315 1.935-.315h1.571-.658c-.726 0-1.464.035-2.19 0-.259-.013-.748-.23-.286-.44.394-.18.979-.088 1.4-.088h3.375c1.773 0-.419-.265-1.099-.265h-3.08c-.4 0-1.85.214-2.144-.066a33.045 33.045 0 0 1 1.339-.066h1.424c.681 0 1.5.115 2.167-.03.119-.025.628-.102.542-.102h-4.025c-1.358 0-.535-.264.356-.264h2.709" opacity=".25"/>
  <path stroke="#fff" stroke-linecap="round" stroke-width="3" d="M94.044 91.528c-.797 1.373-2.77 1.652-4.148 2.349-.925.468.181-.538.48-.69.533-.272 1.168-.602 1.78-.602.174 0 1.226-.214.665-.257-.866-.065-1.709.099-2.569.125-.249.008-.46.033-.696.103-.047.014-.358.133-.38.08-.176-.418 1.752-.315 1.935-.315h1.571-.658c-.726 0-1.464.035-2.19 0-.259-.013-.748-.23-.286-.44.394-.18.979-.088 1.4-.088h3.375c1.773 0-.419-.265-1.099-.265h-3.08c-.4 0-1.85.214-2.144-.066a33.045 33.045 0 0 1 1.339-.066h1.424c.681 0 1.5.115 2.167-.03.119-.025.628-.102.542-.102h-4.025c-1.358 0-.535-.264.356-.264h2.709" opacity=".25"/>
  <path stroke="#8A8A8A" stroke-linecap="round" stroke-width="3" d="M29 151v1" opacity=".25"/>
  <path stroke="#fff" stroke-linecap="round" stroke-width="3" d="M135 60c.553.438.843 1.559.876 2.337.021.509-.063 1.191.124 1.663"/>
  <path stroke="#000" stroke-linecap="round" stroke-width="3" d="M93.419 91c-10.214-5.361-17.807-18.841 33.532-29.87 4.432-.574 11.331.46 3.468 9.19" opacity=".25"/>
  <path fill="#000" d="M9.8 19H.562v-1.45l6.54-9.607H.765V6.15h8.859v1.442l-6.539 9.615H9.8V19Zm9.351 25H9.914v-1.45l6.54-9.607h-6.338V31.15h8.86v1.442l-6.54 9.615h6.715V44Zm12.217 25h-7.391v-1.274l4.913-6.865h-4.615v-1.59h6.953v1.406l-4.817 6.732h4.957V69Z" opacity=".25"/>
</svg>
