<svg xmlns="http://www.w3.org/2000/svg" width="170" height="156" fill="none" viewBox="0 0 170 156">
  <path fill="#fff" stroke="#AAA2FF" stroke-width="12" d="M158.381 77.872c0 39.154-33.678 71.462-75.94 71.462-42.264 0-75.941-32.308-75.941-71.462S40.178 6.411 82.44 6.411c42.263 0 75.941 32.307 75.941 71.461Z"/>
  <path fill="#C7C2FF" d="M136.904 77.409c0 28.691-24.604 51.95-54.954 51.95S26.996 106.1 26.996 77.409c0-28.692 24.604-51.95 54.954-51.95s54.954 23.258 54.954 51.95Z"/>
  <path fill="#C8D1FF" d="M89.78 26.22c8.342-.464 22.1 6.66 22.591 8.051.491 1.392-73.62 74.049-75.071 73.287-1.452-.762-8.852-10.898-9.343-20.11-.49-9.213 53.482-60.764 61.824-61.228Z"/>
  <path fill="#DFC0FF" d="M135.846 69.623c.265-7.987-7.75-21.145-9.254-21.611-1.505-.467-78.764 70.594-76.423 72.028 2.341 1.434 12.645 7.464 22.949 8.652 10.304 1.188 62.463-51.083 62.728-59.07Z"/>
  <path fill="#fff" stroke="#AAA2FF" stroke-width="12" d="M158.381 77.872c0 39.154-33.678 71.462-75.94 71.462-42.264 0-75.941-32.308-75.941-71.462S40.178 6.411 82.44 6.411c42.263 0 75.941 32.307 75.941 71.461Z"/>
  <path fill="#C7C2FF" d="M136.904 77.409c0 28.691-24.604 51.95-54.954 51.95S26.996 106.1 26.996 77.409c0-28.692 24.604-51.95 54.954-51.95s54.954 23.258 54.954 51.95Z"/>
  <path fill="#C8D1FF" d="M89.78 26.22c8.342-.464 22.1 6.66 22.591 8.051.491 1.392-73.62 74.049-75.071 73.287-1.452-.762-8.852-10.898-9.343-20.11-.49-9.213 53.482-60.764 61.824-61.228Z"/>
  <path fill="#DFC0FF" d="M135.846 69.623c.265-7.987-7.75-21.145-9.254-21.611-1.505-.467-78.764 70.594-76.423 72.028 2.341 1.434 12.645 7.464 22.949 8.652 10.304 1.188 62.463-51.083 62.728-59.07Z"/>
  <path fill="#5C6CFC" d="M58.335 46.993c.944-2.592 3.824-4.001 6.43-3.1 7.667 2.654 22.252 8.008 24.99 11.228 2.642 3.106 17.777 5.549 26.482 6.72 3.173.427 5.139 3.577 4.05 6.566l-14.805 40.645c-.908 2.493-3.618 3.903-6.154 3.119-6.37-1.971-17.896-5.965-24.243-10.766-6.095-4.61-19.127-6.729-27.043-7.624-3.291-.372-5.43-3.621-4.304-6.712l14.597-40.076Z"/>
  <path fill="#AAA2FF" d="M59.623 48.956c.97-2.595 3.894-4.01 6.5-3.085 6.85 2.431 18.979 7.105 21.583 10.557 2.555 3.387 17.293 5.206 26.037 6.001 3.294.3 5.395 3.491 4.249 6.556l-13.737 36.76c-.976 2.613-3.93 4.029-6.556 3.102-7.665-2.708-21.97-8.042-23.118-10.528-1.113-2.41-16.115-4.66-24.825-5.773-3.172-.405-5.109-3.515-4-6.485l13.867-37.105Z"/>
  <path fill="#BCB6FE" d="M61.008 49.894c.97-2.596 3.895-4.01 6.5-3.08 6.487 2.319 17.602 6.65 20 9.895 2.348 3.177 15.814 4.838 24.096 5.571 3.304.293 5.426 3.493 4.277 6.567l-13.011 34.816c-.977 2.614-3.939 4.027-6.564 3.096-7.275-2.583-20.385-7.513-21.438-9.856-1.018-2.266-14.727-4.311-22.981-5.347-3.182-.399-5.134-3.515-4.021-6.493l13.142-35.169Z"/>
  <path fill="#A9A1FC" d="M62.633 50.743c.97-2.596 3.9-4.01 6.503-3.075 6.203 2.228 16.546 6.292 18.793 9.358 2.199 2.998 14.706 4.56 22.615 5.26 3.309.292 5.433 3.495 4.282 6.574l-12.309 32.937c-.976 2.614-3.934 4.029-6.558 3.094-6.965-2.48-19.183-7.1-20.17-9.32-.95-2.14-13.675-4.049-21.563-5.036-3.186-.398-5.148-3.518-4.035-6.498l12.442-33.294Z"/>
  <path stroke="#5C6CFC" stroke-dasharray="2 2" stroke-linecap="round" d="M.5-.5h45.238" transform="matrix(-.31792 .94812 -.96077 -.27733 88.756 54.966)"/>
  <path stroke="#C7C2FF" stroke-dasharray="2 4 6 8" stroke-linecap="round" stroke-width=".5" d="M89.806 65.822s5.04-2.935 9.975.724c4.935 3.66 6.825 6.333 11.025 6.333"/>
  <path stroke="#C7C2FF" stroke-dasharray="1 3 2 1 3 2" stroke-linecap="round" stroke-width=".5" d="M86.656 76.538s5.04-2.934 9.974.725c4.936 3.659 6.826 6.332 11.026 6.332"/>
  <path stroke="#C7C2FF" stroke-dasharray="2 2" stroke-linecap="round" stroke-width=".5" d="M82.456 87.254s5.04-2.934 9.975.725c4.935 3.66 6.825 6.332 11.025 6.332"/>
  <path stroke="#C7C2FF" stroke-dasharray="1 6 2 4" stroke-linecap="round" stroke-width=".5" d="M62.506 57.889s3.15.725 11.025.725 11.025 6.332 11.025 6.332"/>
  <path stroke="#C7C2FF" stroke-dasharray="2 2" stroke-linecap="round" stroke-width=".5" d="M58.306 68.605s3.15.725 11.025.725 11.025 6.332 11.025 6.332"/>
  <path stroke="#C7C2FF" stroke-dasharray="2 4 6 8" stroke-linecap="round" stroke-width=".5" d="M55.156 79.322s3.15.724 11.024.724c7.875 0 11.025 6.332 11.025 6.332"/>
  <path fill="#BFC6FF" stroke="#fff" stroke-width="3" d="M144.681 94.62a1.5 1.5 0 0 1 2.279.056l1.183 1.454a3.948 3.948 0 0 0 4.957.97c.75-.41 1.617.305 1.358 1.12l-2.166 6.808a1.499 1.499 0 0 1-1.429 1.045h-10.609a1.499 1.499 0 0 1-1.436-1.067L136.8 98.31c-.263-.873.666-1.627 1.466-1.189a4.02 4.02 0 0 0 4.918-.837l1.497-1.664Z"/>
  <path fill="#BFC6FF" stroke="#A7A0FF" stroke-width="3" d="M145.134 97.889a1.087 1.087 0 0 1 1.766.042l.458.672a3.257 3.257 0 0 0 4.472.891c.07-.045.116-.05.148-.048.04.002.093.018.144.055a.273.273 0 0 1 .097.12c.012.03.022.075.001.155l-1.687 6.33a1.5 1.5 0 0 1-1.449 1.114h-6.469a1.5 1.5 0 0 1-1.454-1.133l-1.576-6.243a.28.28 0 0 1 .005-.184.323.323 0 0 1 .114-.14.327.327 0 0 1 .17-.062.284.284 0 0 1 .175.055c1.456.951 3.4.611 4.447-.777l.638-.847Z"/>
  <path fill="#FFC800" stroke="#DFC0FF" stroke-width="9" d="M137.3 117.713c0-4.423 3.296-8.39 8.479-8.39 6.637 0 9.821 3.613 9.821 6.727 0 1.53-1.044 4.515-3.27 8.247-1.85 3.1-4.16 6.127-6.26 8.345-2.154-2.424-4.32-5.146-5.981-7.82-1.929-3.106-2.789-5.54-2.789-7.109Z"/>
  <path fill="#A7A0FF" stroke="#fff" stroke-width="3" d="M144.716 110.978a1.501 1.501 0 0 1 1.991.05l5.962 5.562a4.498 4.498 0 0 0 4.797.865l5.709-2.372c1.237-.515 2.476.728 1.959 1.964l-5.734 13.695c-.234.557-.779.92-1.384.92h-25.897a1.5 1.5 0 0 1-1.394-.947l-5.462-13.768c-.489-1.232.746-2.447 1.97-1.938l5.982 2.486a4.5 4.5 0 0 0 4.629-.716l6.872-5.801Z"/>
  <path fill="#A7A0FF" stroke="#A7A0FF" stroke-width="3" d="M145.113 110.215a1.5 1.5 0 0 1 2.068.052l4.894 4.896a4.5 4.5 0 0 0 5.015.929l4.22-1.881c1.224-.545 2.495.667 2.008 1.916l-4.969 12.726c-.225.575-.78.954-1.397.954h-22.739a1.499 1.499 0 0 1-1.406-.98l-4.735-12.799c-.461-1.246.805-2.431 2.017-1.891l4.486 1.999a4.5 4.5 0 0 0 4.852-.774l5.686-5.147Z"/>
  <path fill="#DFC0FF" d="M142.83 113.499c1.268-1.232 3.394-.333 3.394 1.435v12.688c0 .925-.75 1.675-1.675 1.675h-9.244a2 2 0 0 1-1.887-1.338l-3.394-9.676c-.563-1.606 1.008-3.136 2.598-2.532l4.48 1.703a1.998 1.998 0 0 0 2.105-.435l3.623-3.52Z"/>
  <path fill="#BFC6FF" d="M156.93 117.785a1 1 0 0 1 .515-.572l3.142-1.484c.83-.393 1.706.448 1.348 1.293l-4.608 10.892a1 1 0 0 1-.921.61h-1.85a1 1 0 0 1-.943-1.333l3.317-9.406Z"/>
  <path fill="#5C6CFC" d="M144.651 116.314a1.999 1.999 0 0 1 2.265 0l3.214 2.208a2 2 0 0 1 .759 2.298l-1.181 3.436a2 2 0 0 1-1.891 1.35h-4.067a2.002 2.002 0 0 1-1.892-1.35l-1.18-3.436a1.999 1.999 0 0 1 .759-2.298l3.214-2.208Z"/>
  <ellipse cx="143.821" cy="121.102" fill="#fff" rx="1.963" ry="1.855"/>
</svg>
