<svg xmlns="http://www.w3.org/2000/svg" width="173" height="158" fill="none" viewBox="0 0 173 158">
  <path fill="#fff" stroke="#AAA2FF" stroke-width="12" d="M158.869 78.525c0 39.792-33.753 72.487-75.94 72.487s-75.94-32.695-75.94-72.487c0-39.793 33.753-72.487 75.94-72.487s75.94 32.694 75.94 72.487Z"/>
  <path fill="#C7C2FF" d="M137.392 78.055c0 29.071-24.604 52.638-54.954 52.638s-54.954-23.567-54.954-52.638c0-29.072 24.604-52.638 54.954-52.638s54.954 23.566 54.954 52.638Z"/>
  <path fill="#C8D1FF" d="M90.269 26.189c8.341-.47 22.099 6.747 22.59 8.157.491 1.41-73.62 75.03-75.071 74.258-1.452-.772-8.852-11.043-9.343-20.377-.49-9.335 53.482-61.568 61.824-62.038Z"/>
  <path fill="#DFC0FF" d="M136.334 70.166c.265-8.093-7.75-21.424-9.254-21.897-1.505-.473-78.764 71.529-76.423 72.981 2.341 1.453 12.645 7.563 22.95 8.767 10.303 1.203 62.463-51.759 62.727-59.851Z"/>
  <path fill="#fff" stroke="#AAA2FF" stroke-width="12" d="M158.869 78.525c0 39.792-33.753 72.487-75.94 72.487s-75.94-32.695-75.94-72.487c0-39.793 33.753-72.487 75.94-72.487s75.94 32.694 75.94 72.487Z"/>
  <path fill="#C7C2FF" d="M137.392 78.055c0 29.071-24.604 52.638-54.954 52.638s-54.954-23.567-54.954-52.638c0-29.072 24.604-52.638 54.954-52.638s54.954 23.566 54.954 52.638Z"/>
  <path fill="#C8D1FF" d="M90.269 26.189c8.341-.47 22.099 6.747 22.59 8.157.491 1.41-73.62 75.03-75.071 74.258-1.452-.772-8.852-11.043-9.343-20.377-.49-9.335 53.482-61.568 61.824-62.038Z"/>
  <path fill="#DFC0FF" d="M136.334 70.166c.265-8.093-7.75-21.424-9.254-21.897-1.505-.473-78.764 71.529-76.423 72.981 2.341 1.453 12.645 7.563 22.95 8.767 10.303 1.203 62.463-51.759 62.727-59.851Z"/>
  <path fill="#fff" stroke="#AAA2FF" stroke-width="12" d="M158.869 78.525c0 39.792-33.753 72.487-75.94 72.487s-75.94-32.695-75.94-72.487c0-39.793 33.753-72.487 75.94-72.487s75.94 32.694 75.94 72.487Z"/>
  <path fill="#C7C2FF" d="M137.392 78.055c0 29.071-24.604 52.638-54.954 52.638s-54.954-23.567-54.954-52.638c0-29.072 24.604-52.638 54.954-52.638s54.954 23.566 54.954 52.638Z"/>
  <path fill="#C8D1FF" d="M90.269 26.189c8.341-.47 22.099 6.747 22.59 8.157.491 1.41-73.62 75.03-75.071 74.258-1.452-.772-8.852-11.043-9.343-20.377-.49-9.335 53.482-61.568 61.824-62.038Z"/>
  <path fill="#DFC0FF" d="M136.334 70.166c.265-8.093-7.75-21.424-9.254-21.897-1.505-.473-78.764 71.529-76.423 72.981 2.341 1.453 12.645 7.563 22.95 8.767 10.303 1.203 62.463-51.759 62.727-59.851Z"/>
  <path fill="#fff" stroke="#AAA2FF" stroke-width="12" d="M158.869 78.525c0 39.792-33.753 72.487-75.94 72.487s-75.94-32.695-75.94-72.487c0-39.793 33.753-72.487 75.94-72.487s75.94 32.694 75.94 72.487Z"/>
  <path fill="#C7C2FF" d="M137.392 78.055c0 29.071-24.604 52.638-54.954 52.638s-54.954-23.567-54.954-52.638c0-29.072 24.604-52.638 54.954-52.638s54.954 23.566 54.954 52.638Z"/>
  <path fill="#C8D1FF" d="M90.269 26.189c8.341-.47 22.099 6.747 22.59 8.157.491 1.41-73.62 75.03-75.071 74.258-1.452-.772-8.852-11.043-9.343-20.377-.49-9.335 53.482-61.568 61.824-62.038Z"/>
  <path fill="#DFC0FF" d="M136.334 70.166c.265-8.093-7.75-21.424-9.254-21.897-1.505-.473-78.764 71.529-76.423 72.981 2.341 1.453 12.645 7.563 22.95 8.767 10.303 1.203 62.463-51.759 62.727-59.851Z"/>
  <path fill="#fff" stroke="#AAA2FF" stroke-width="12" d="M158.869 78.525c0 39.792-33.753 72.487-75.94 72.487s-75.94-32.695-75.94-72.487c0-39.793 33.753-72.487 75.94-72.487s75.94 32.694 75.94 72.487Z"/>
  <path fill="#C7C2FF" d="M137.392 78.055c0 29.071-24.604 52.638-54.954 52.638s-54.954-23.567-54.954-52.638c0-29.072 24.604-52.638 54.954-52.638s54.954 23.566 54.954 52.638Z"/>
  <path fill="#C8D1FF" d="M90.269 26.189c8.341-.47 22.099 6.747 22.59 8.157.491 1.41-73.62 75.03-75.071 74.258-1.452-.772-8.852-11.043-9.343-20.377-.49-9.335 53.482-61.568 61.824-62.038Z"/>
  <path fill="#DFC0FF" d="M136.334 70.166c.265-8.093-7.75-21.424-9.254-21.897-1.505-.473-78.764 71.529-76.423 72.981 2.341 1.453 12.645 7.563 22.95 8.767 10.303 1.203 62.463-51.759 62.727-59.851Z"/>
  <path fill="#fff" stroke="#AAA2FF" stroke-width="12" d="M158.869 78.525c0 39.792-33.753 72.487-75.94 72.487s-75.94-32.695-75.94-72.487c0-39.793 33.753-72.487 75.94-72.487s75.94 32.694 75.94 72.487Z"/>
  <path fill="#C7C2FF" d="M137.392 78.055c0 29.071-24.604 52.638-54.954 52.638s-54.954-23.567-54.954-52.638c0-29.072 24.604-52.638 54.954-52.638s54.954 23.566 54.954 52.638Z"/>
  <path fill="#C8D1FF" d="M90.269 26.189c8.341-.47 22.099 6.747 22.59 8.157.491 1.41-73.62 75.03-75.071 74.258-1.452-.772-8.852-11.043-9.343-20.377-.49-9.335 53.482-61.568 61.824-62.038Z"/>
  <path fill="#DFC0FF" d="M136.334 70.166c.265-8.093-7.75-21.424-9.254-21.897-1.505-.473-78.764 71.529-76.423 72.981 2.341 1.453 12.645 7.563 22.95 8.767 10.303 1.203 62.463-51.759 62.727-59.851Z"/>
  <path fill="#fff" stroke="#AAA2FF" stroke-width="12" d="M158.869 78.525c0 39.792-33.753 72.487-75.94 72.487s-75.94-32.695-75.94-72.487c0-39.793 33.753-72.487 75.94-72.487s75.94 32.694 75.94 72.487Z"/>
  <path fill="#C7C2FF" d="M137.392 78.055c0 29.071-24.604 52.638-54.954 52.638s-54.954-23.567-54.954-52.638c0-29.072 24.604-52.638 54.954-52.638s54.954 23.566 54.954 52.638Z"/>
  <path fill="#C8D1FF" d="M90.269 26.189c8.341-.47 22.099 6.747 22.59 8.157.491 1.41-73.62 75.03-75.071 74.258-1.452-.772-8.852-11.043-9.343-20.377-.49-9.335 53.482-61.568 61.824-62.038Z"/>
  <path fill="#DFC0FF" d="M136.334 70.166c.265-8.093-7.75-21.424-9.254-21.897-1.505-.473-78.764 71.529-76.423 72.981 2.341 1.453 12.645 7.563 22.95 8.767 10.303 1.203 62.463-51.759 62.727-59.851Z"/>
  <path fill="#fff" stroke="#AAA2FF" stroke-width="12" d="M158.869 78.525c0 39.792-33.753 72.487-75.94 72.487s-75.94-32.695-75.94-72.487c0-39.793 33.753-72.487 75.94-72.487s75.94 32.694 75.94 72.487Z"/>
  <path fill="#C7C2FF" d="M137.392 78.055c0 29.071-24.604 52.638-54.954 52.638s-54.954-23.567-54.954-52.638c0-29.072 24.604-52.638 54.954-52.638s54.954 23.566 54.954 52.638Z"/>
  <path fill="#C8D1FF" d="M90.269 26.189c8.341-.47 22.099 6.747 22.59 8.157.491 1.41-73.62 75.03-75.071 74.258-1.452-.772-8.852-11.043-9.343-20.377-.49-9.335 53.482-61.568 61.824-62.038Z"/>
  <path fill="#DFC0FF" d="M136.334 70.166c.265-8.093-7.75-21.424-9.254-21.897-1.505-.473-78.764 71.529-76.423 72.981 2.341 1.453 12.645 7.563 22.95 8.767 10.303 1.203 62.463-51.759 62.727-59.851Z"/>
  <path fill="#fff" stroke="#AAA2FF" stroke-width="12" d="M158.869 78.525c0 39.792-33.753 72.487-75.94 72.487s-75.94-32.695-75.94-72.487c0-39.793 33.753-72.487 75.94-72.487s75.94 32.694 75.94 72.487Z"/>
  <path fill="#C7C2FF" d="M137.392 78.055c0 29.071-24.604 52.638-54.954 52.638s-54.954-23.567-54.954-52.638c0-29.072 24.604-52.638 54.954-52.638s54.954 23.566 54.954 52.638Z"/>
  <path fill="#C8D1FF" d="M90.269 26.189c8.341-.47 22.099 6.747 22.59 8.157.491 1.41-73.62 75.03-75.071 74.258-1.452-.772-8.852-11.043-9.343-20.377-.49-9.335 53.482-61.568 61.824-62.038Z"/>
  <path fill="#DFC0FF" d="M136.334 70.166c.265-8.093-7.75-21.424-9.254-21.897-1.505-.473-78.764 71.529-76.423 72.981 2.341 1.453 12.645 7.563 22.95 8.767 10.303 1.203 62.463-51.759 62.727-59.851Z"/>
  <path fill="#fff" stroke="#AAA2FF" stroke-width="12" d="M158.869 78.525c0 39.792-33.753 72.487-75.94 72.487s-75.94-32.695-75.94-72.487c0-39.793 33.753-72.487 75.94-72.487s75.94 32.694 75.94 72.487Z"/>
  <path fill="#C7C2FF" d="M137.392 78.055c0 29.071-24.604 52.638-54.954 52.638s-54.954-23.567-54.954-52.638c0-29.072 24.604-52.638 54.954-52.638s54.954 23.566 54.954 52.638Z"/>
  <path fill="#C8D1FF" d="M90.269 26.189c8.341-.47 22.099 6.747 22.59 8.157.491 1.41-73.62 75.03-75.071 74.258-1.452-.772-8.852-11.043-9.343-20.377-.49-9.335 53.482-61.568 61.824-62.038Z"/>
  <path fill="#DFC0FF" d="M136.334 70.166c.265-8.093-7.75-21.424-9.254-21.897-1.505-.473-78.764 71.529-76.423 72.981 2.341 1.453 12.645 7.563 22.95 8.767 10.303 1.203 62.463-51.759 62.727-59.851Z"/>
  <path fill="#fff" stroke="#AAA2FF" stroke-width="12" d="M158.869 78.525c0 39.792-33.753 72.487-75.94 72.487s-75.94-32.695-75.94-72.487c0-39.793 33.753-72.487 75.94-72.487s75.94 32.694 75.94 72.487Z"/>
  <path fill="#C7C2FF" d="M137.392 78.055c0 29.071-24.604 52.638-54.954 52.638s-54.954-23.567-54.954-52.638c0-29.072 24.604-52.638 54.954-52.638s54.954 23.566 54.954 52.638Z"/>
  <path fill="#C8D1FF" d="M90.269 26.189c8.341-.47 22.099 6.747 22.59 8.157.491 1.41-73.62 75.03-75.071 74.258-1.452-.772-8.852-11.043-9.343-20.377-.49-9.335 53.482-61.568 61.824-62.038Z"/>
  <path fill="#DFC0FF" d="M136.334 70.166c.265-8.093-7.75-21.424-9.254-21.897-1.505-.473-78.764 71.529-76.423 72.981 2.341 1.453 12.645 7.563 22.95 8.767 10.303 1.203 62.463-51.759 62.727-59.851Z"/>
  <path fill="#fff" stroke="#AAA2FF" stroke-width="12" d="M158.869 78.525c0 39.792-33.753 72.487-75.94 72.487s-75.94-32.695-75.94-72.487c0-39.793 33.753-72.487 75.94-72.487s75.94 32.694 75.94 72.487Z"/>
  <path fill="#C7C2FF" d="M137.392 78.055c0 29.071-24.604 52.638-54.954 52.638s-54.954-23.567-54.954-52.638c0-29.072 24.604-52.638 54.954-52.638s54.954 23.566 54.954 52.638Z"/>
  <path fill="#C8D1FF" d="M90.269 26.189c8.341-.47 22.099 6.747 22.59 8.157.491 1.41-73.62 75.03-75.071 74.258-1.452-.772-8.852-11.043-9.343-20.377-.49-9.335 53.482-61.568 61.824-62.038Z"/>
  <path fill="#DFC0FF" d="M136.334 70.166c.265-8.093-7.75-21.424-9.254-21.897-1.505-.473-78.764 71.529-76.423 72.981 2.341 1.453 12.645 7.563 22.95 8.767 10.303 1.203 62.463-51.759 62.727-59.851Z"/>
  <path fill="#BFC6FF" stroke="#fff" stroke-width="3" d="M148.031 90.54a1.5 1.5 0 0 1 2.278.057l1.184 1.453a3.947 3.947 0 0 0 4.956.971c.751-.41 1.618.304 1.359 1.119l-2.166 6.809a1.5 1.5 0 0 1-1.429 1.045h-10.609a1.5 1.5 0 0 1-1.436-1.067l-2.018-6.696c-.263-.874.666-1.627 1.466-1.19a4.02 4.02 0 0 0 4.918-.837l1.497-1.663Z"/>
  <path fill="#BFC6FF" stroke="#A7A0FF" stroke-width="3" d="M148.484 93.81a1.087 1.087 0 0 1 1.766.041l.458.672a3.257 3.257 0 0 0 4.472.892c.07-.045.116-.05.148-.048.04.002.093.018.144.055a.273.273 0 0 1 .097.12c.012.03.022.075.001.155l-1.687 6.329a1.5 1.5 0 0 1-1.449 1.114h-6.468a1.5 1.5 0 0 1-1.455-1.133l-1.576-6.243a.288.288 0 0 1 .005-.183.323.323 0 0 1 .114-.14.328.328 0 0 1 .17-.063.285.285 0 0 1 .175.056c1.456.951 3.4.611 4.447-.778l.638-.846Z"/>
  <path fill="#FFC800" stroke="#DFC0FF" stroke-width="9" d="M140.65 113.634c0-4.423 3.296-8.391 8.479-8.391 6.637 0 9.821 3.613 9.821 6.728 0 1.53-1.044 4.515-3.271 8.247-1.849 3.1-4.159 6.127-6.259 8.344-2.155-2.424-4.32-5.145-5.981-7.819-1.929-3.107-2.789-5.54-2.789-7.109Z"/>
  <path fill="#A7A0FF" stroke="#fff" stroke-width="3" d="M148.066 106.899a1.5 1.5 0 0 1 1.991.05l5.962 5.562a4.502 4.502 0 0 0 4.797.865l5.709-2.373c1.237-.514 2.476.729 1.959 1.965l-5.734 13.694a1.5 1.5 0 0 1-1.384.921h-25.897a1.5 1.5 0 0 1-1.394-.947l-5.461-13.768c-.49-1.233.745-2.447 1.97-1.938l5.981 2.486a4.5 4.5 0 0 0 4.629-.717l6.872-5.8Z"/>
  <path fill="#A7A0FF" stroke="#A7A0FF" stroke-width="3" d="M148.464 106.136a1.5 1.5 0 0 1 2.067.051l4.894 4.897a4.501 4.501 0 0 0 5.015.929l4.22-1.881c1.224-.546 2.495.667 2.008 1.916l-4.969 12.725a1.5 1.5 0 0 1-1.397.955h-22.738a1.5 1.5 0 0 1-1.407-.98l-4.735-12.8c-.461-1.245.805-2.431 2.018-1.89l4.485 1.999a4.5 4.5 0 0 0 4.852-.774l5.687-5.147Z"/>
  <path fill="#DFC0FF" d="M146.18 109.42c1.268-1.232 3.394-.334 3.394 1.434v12.689c0 .925-.75 1.675-1.675 1.675h-9.244a2 2 0 0 1-1.887-1.338l-3.394-9.677c-.563-1.605 1.008-3.136 2.598-2.531l4.48 1.703a2 2 0 0 0 2.105-.435l3.623-3.52Z"/>
  <path fill="#BFC6FF" d="M160.28 113.706a.997.997 0 0 1 .515-.572l3.141-1.485c.831-.392 1.707.448 1.349 1.294l-4.609 10.891a1 1 0 0 1-.92.611h-1.85a1 1 0 0 1-.943-1.333l3.317-9.406Z"/>
  <path fill="#5C6CFC" d="M148.001 112.235a1.997 1.997 0 0 1 2.264 0l3.215 2.207a2.001 2.001 0 0 1 .759 2.299l-1.181 3.435a2 2 0 0 1-1.892 1.35H147.1a2 2 0 0 1-1.892-1.35l-1.18-3.435c-.293-.85.018-1.79.759-2.299l3.214-2.207Z"/>
  <ellipse cx="147.17" cy="117.023" fill="#fff" rx="1.963" ry="1.855"/>
  <path stroke="#5C6CFC" stroke-width="3" d="M113.65 84.878c0 5.989-5.887 11.27-13.725 11.27S86.2 90.868 86.2 84.879c0-1.525.365-2.353.812-2.851.464-.516 1.214-.9 2.427-1.13 1.218-.231 2.728-.276 4.54-.252.677.009 1.413.028 2.183.048 1.202.032 2.487.066 3.763.066 1.276 0 2.561-.034 3.763-.066.77-.02 1.506-.04 2.183-.048 1.812-.024 3.322.02 4.54.252 1.213.23 1.963.614 2.427 1.13.447.498.812 1.326.812 2.85Z"/>
  <path fill="#5C6CFC" d="M118.532 78.106c-1.844 3.728-5.769 5.816-8.632 1.699 5.519 1.777 8.839-8.755 11.495-14.022.872-4.715 4.663 5.519 2.597 3.178-2.066-2.34-4.132 4.434-5.46 9.145Zm-70.814 0c1.844 3.728 5.769 5.816 8.632 1.699-5.52 1.777-8.84-8.755-11.495-14.022-.872-4.715-4.663 5.519-2.597 3.178 2.066-2.34 4.132 4.434 5.46 9.145Z"/>
  <path stroke="#5C6CFC" stroke-width="3" d="M52.6 84.878c0 5.989 5.887 11.27 13.725 11.27s13.725-5.281 13.725-11.27c0-1.525-.365-2.353-.812-2.851-.464-.516-1.214-.9-2.427-1.13-1.218-.231-2.728-.276-4.54-.252-.677.009-1.413.028-2.183.048-1.202.032-2.487.066-3.763.066-1.276 0-2.561-.034-3.763-.066-.77-.02-1.506-.04-2.183-.048-1.811-.024-3.322.02-4.54.252-1.213.23-1.963.614-2.427 1.13-.447.498-.812 1.326-.812 2.85Z"/>
  <path fill="#5C6CFC" d="M86.275 86.445c0 1.077-1.41 0-3.15 0s-3.15 1.077-3.15 0c0-1.076 1.41-1.948 3.15-1.948s3.15.872 3.15 1.948Z"/>
</svg>
