<svg xmlns="http://www.w3.org/2000/svg" width="169" height="156" fill="none" viewBox="0 0 169 156">
  <path fill="#fff" stroke="#AAA2FF" stroke-width="12" d="M158.2 77.851c0 39.154-33.678 71.462-75.94 71.462-42.264 0-75.941-32.308-75.941-71.462S39.996 6.39 82.259 6.39 158.2 38.697 158.2 77.85Z"/>
  <path fill="#C7C2FF" d="M136.723 77.388c0 28.691-24.604 51.95-54.955 51.95-30.35 0-54.954-23.259-54.954-51.95 0-28.692 24.604-51.95 54.955-51.95 30.35 0 54.954 23.258 54.954 51.95Z"/>
  <path fill="#C8D1FF" d="M89.6 26.2c8.34-.465 22.099 6.659 22.59 8.05.49 1.392-73.62 74.049-75.072 73.287-1.452-.762-8.851-10.899-9.342-20.11-.491-9.213 53.482-60.764 61.823-61.228Z"/>
  <path fill="#DFC0FF" d="M135.665 69.601c.264-7.986-7.75-21.144-9.255-21.61-1.504-.467-78.763 70.594-76.422 72.028 2.34 1.434 12.645 7.464 22.949 8.652 10.303 1.188 62.463-51.083 62.728-59.07Z"/>
  <path fill="#fff" stroke="#AAA2FF" stroke-width="12" d="M158.2 77.851c0 39.154-33.678 71.462-75.94 71.462-42.264 0-75.941-32.308-75.941-71.462S39.996 6.39 82.259 6.39 158.2 38.697 158.2 77.85Z"/>
  <path fill="#C7C2FF" d="M136.723 77.388c0 28.691-24.604 51.95-54.955 51.95-30.35 0-54.954-23.259-54.954-51.95 0-28.692 24.604-51.95 54.955-51.95 30.35 0 54.954 23.258 54.954 51.95Z"/>
  <path fill="#C8D1FF" d="M89.6 26.2c8.34-.465 22.099 6.659 22.59 8.05.49 1.392-73.62 74.049-75.072 73.287-1.452-.762-8.851-10.899-9.342-20.11-.491-9.213 53.482-60.764 61.823-61.228Z"/>
  <path fill="#DFC0FF" d="M135.665 69.601c.264-7.986-7.75-21.144-9.255-21.61-1.504-.467-78.763 70.594-76.422 72.028 2.34 1.434 12.645 7.464 22.949 8.652 10.303 1.188 62.463-51.083 62.728-59.07Z"/>
  <ellipse cx="81.25" cy="84.056" fill="#958BFF" rx="31.5" ry="30.154"/>
  <path fill="#fff" stroke="#BEBEBE" d="M85.112 104.932c0 1.241-1.058 2.284-2.408 2.284-1.35 0-2.408-1.043-2.408-2.284 0-1.241 1.057-2.283 2.408-2.283 1.35 0 2.408 1.042 2.408 2.283ZM61.85 86.376c0 1.24-1.057 2.283-2.408 2.283-1.35 0-2.408-1.042-2.408-2.283 0-1.24 1.058-2.284 2.408-2.284 1.35 0 2.408 1.043 2.408 2.284Zm46.523 0c0 1.24-1.057 2.283-2.407 2.283-1.351 0-2.408-1.042-2.408-2.283 0-1.24 1.057-2.284 2.408-2.284 1.35 0 2.407 1.043 2.407 2.284Z"/>
  <path fill="#5C6CFC" d="M86.6 73.18c-2.001 2.49-5.791 2.49-7.793 0L64.063 54.845c-2.631-3.272-.302-8.133 3.896-8.133h29.49c4.198 0 6.527 4.861 3.896 8.133L86.6 73.18Z"/>
  <path stroke="#fff" stroke-width="2" d="M67.314 77.1 82.82 93.803m14.422-16.705-15.508 16.7"/>
  <path fill="#fff" d="M71.454 76.275c1.376.76 1.376 2.74 0 3.5l-2.26 1.25c-1.332.736-2.967-.228-2.967-1.751v-2.497c0-1.523 1.635-2.487 2.968-1.75l2.259 1.248Zm22.171 3.501c-1.377-.761-1.377-2.74 0-3.501l2.26-1.249c1.332-.736 2.966.228 2.966 1.75v2.498c0 1.523-1.634 2.487-2.967 1.75l-2.259-1.248Z"/>
  <path fill="#BFC6FF" stroke="#fff" stroke-width="3" d="M143.531 94.437a1.5 1.5 0 0 1 2.278.057l1.184 1.453a3.947 3.947 0 0 0 4.956.97c.751-.41 1.618.305 1.359 1.12l-2.166 6.808a1.5 1.5 0 0 1-1.429 1.046h-10.609a1.5 1.5 0 0 1-1.436-1.067l-2.018-6.696c-.263-.874.666-1.627 1.466-1.19a4.02 4.02 0 0 0 4.918-.837l1.497-1.664Z"/>
  <path fill="#BFC6FF" stroke="#A7A0FF" stroke-width="3" d="M143.984 97.707a1.087 1.087 0 0 1 1.766.041l.458.672a3.257 3.257 0 0 0 4.472.892c.07-.045.116-.05.148-.048.04.002.093.018.144.055a.273.273 0 0 1 .097.12c.012.029.022.075.001.155l-1.687 6.329a1.5 1.5 0 0 1-1.449 1.114h-6.468a1.5 1.5 0 0 1-1.455-1.133l-1.576-6.243a.288.288 0 0 1 .005-.183.323.323 0 0 1 .114-.14.327.327 0 0 1 .17-.063.284.284 0 0 1 .175.056c1.456.951 3.4.611 4.447-.778l.638-.846Z"/>
  <path fill="#FFC800" stroke="#DFC0FF" stroke-width="9" d="M136.15 117.531c0-4.423 3.296-8.391 8.479-8.391 6.637 0 9.821 3.613 9.821 6.727 0 1.531-1.044 4.515-3.271 8.247-1.849 3.101-4.159 6.128-6.259 8.345-2.155-2.424-4.32-5.146-5.981-7.819-1.929-3.107-2.789-5.54-2.789-7.109Z"/>
  <path fill="#A7A0FF" stroke="#fff" stroke-width="3" d="M143.566 110.796a1.5 1.5 0 0 1 1.991.049l5.962 5.563a4.502 4.502 0 0 0 4.797.865l5.709-2.373c1.237-.514 2.476.729 1.959 1.965l-5.734 13.694a1.5 1.5 0 0 1-1.384.921h-25.897a1.5 1.5 0 0 1-1.394-.947l-5.461-13.768c-.49-1.233.745-2.447 1.97-1.938l5.981 2.486a4.5 4.5 0 0 0 4.629-.717l6.872-5.8Z"/>
  <path fill="#A7A0FF" stroke="#A7A0FF" stroke-width="3" d="M143.964 110.033a1.5 1.5 0 0 1 2.067.051l4.894 4.897a4.501 4.501 0 0 0 5.015.929l4.22-1.881c1.224-.546 2.495.667 2.008 1.916l-4.969 12.725a1.499 1.499 0 0 1-1.397.954h-22.738a1.5 1.5 0 0 1-1.407-.979l-4.735-12.8c-.461-1.245.805-2.431 2.018-1.89l4.485 1.999a4.501 4.501 0 0 0 4.852-.774l5.687-5.147Z"/>
  <path fill="#DFC0FF" d="M141.68 113.317c1.268-1.232 3.394-.334 3.394 1.434v12.689c0 .925-.75 1.675-1.675 1.675h-9.244a2 2 0 0 1-1.887-1.339l-3.394-9.676c-.563-1.605 1.008-3.136 2.598-2.531l4.48 1.703a2.002 2.002 0 0 0 2.105-.435l3.623-3.52Z"/>
  <path fill="#BFC6FF" d="M155.78 117.602a.998.998 0 0 1 .515-.571l3.141-1.485c.831-.392 1.707.448 1.349 1.294l-4.609 10.891a.998.998 0 0 1-.92.61h-1.85a1 1 0 0 1-.943-1.332l3.317-9.407Z"/>
  <path fill="#5C6CFC" d="M143.501 116.132a1.997 1.997 0 0 1 2.264 0l3.215 2.207a2.001 2.001 0 0 1 .759 2.299l-1.181 3.435a2 2 0 0 1-1.892 1.35H142.6a2 2 0 0 1-1.892-1.35l-1.18-3.435c-.293-.85.018-1.79.759-2.299l3.214-2.207Z"/>
  <ellipse cx="142.67" cy="120.92" fill="#fff" rx="1.963" ry="1.855"/>
</svg>
