<svg xmlns="http://www.w3.org/2000/svg" width="115" height="121" fill="none" viewBox="0 0 115 121">
  <g filter="url(#a)">
    <path fill="#EDEDED" d="M56.05 24.932c5.104 9.693 5.903 38.187 1.913 46.02C44.112 70.08 13.985 56.011 8.88 46.317c-5.106-9.693 7.714-20.7 21.848-13.836 2.42-15.497 20.216-17.243 25.321-7.55Z"/>
    <path fill="#EDEDED" d="M9.264 68.373c9.758-5.868 40.15-10.031 49.01-7.298.732 12.863-10.697 42.305-20.455 48.173-9.757 5.868-19.92-6.593-14.277-20.437C6.669 88.446-.494 74.24 9.264 68.373Z"/>
    <path fill="#EDEDED" d="M66.932 108.981C59.51 100.675 51.5 73.157 53.39 64.673c13.683-2.178 46.534 4.91 53.956 13.216 7.422 8.305-4.728 19.127-20.207 15.546 1.583 15.59-12.784 23.851-20.207 15.546Z"/>
    <path fill="#EDEDED" d="M106.668 58.826C97.898 65.91 68.44 74 59.253 72.453c-2.676-12.64 4.172-43.281 12.942-50.365 8.77-7.085 20.723 3.925 17.237 18.369 16.76-1.844 26.006 11.284 17.236 18.369Z"/>
  </g>
  <ellipse cx="55.8" cy="60.36" fill="#BEBEBE" rx="12.6" ry="11.203"/>
  <path fill="#BEBEBE" d="M50.108 66.677c2.322-3.933 8.012-3.933 10.334 0l6.313 10.693c2.36 4-.522 9.05-5.167 9.05H48.962c-4.645 0-7.528-5.05-5.167-9.05l6.313-10.693Z"/>
  <path fill="#E3E3E3" stroke="#C7C7C7" stroke-width="3" d="m27.906 10.85 8.135 3.78c1.71.794 3.709.513 5.044-.708l4.947-4.525c.971-.89 2.609-.15 2.587 1.17l-.27 16.69c-.01.605-.4 1.13-.984 1.323l-25.638 8.49a1.59 1.59 0 0 1-1.683-.466L8.704 23.682a1.439 1.439 0 0 1 1.223-2.406l7.212.622c1.785.154 3.46-.714 4.287-2.221l4.515-8.23c.372-.677 1.232-.938 1.966-.597Z"/>
  <path fill="#919491" d="M23.997 15.345c.77-1.536 3.098-1.358 3.73.285l1.886 4.904 1.922 4.994 1.646 4.28a1.804 1.804 0 0 1-1.127 2.384L21.645 35.64a2.121 2.121 0 0 1-2.266-.648l-8.236-9.706a1.915 1.915 0 0 1 1.54-3.187l6.525.212c.78.025 1.49-.385 1.825-1.055l2.964-5.91Z"/>
  <defs>
    <filter id="a" width="113.188" height="101.33" x=".852" y="18.936" color-interpolation-filters="sRGB" filterUnits="userSpaceOnUse">
      <feFlood flood-opacity="0" result="BackgroundImageFix"/>
      <feColorMatrix in="SourceAlpha" result="hardAlpha" values="0 0 0 0 0 0 0 0 0 0 0 0 0 0 0 0 0 0 127 0"/>
      <feOffset dy="4"/>
      <feGaussianBlur stdDeviation="2"/>
      <feComposite in2="hardAlpha" operator="out"/>
      <feColorMatrix values="0 0 0 0 0 0 0 0 0 0 0 0 0 0 0 0 0 0 0.25 0"/>
      <feBlend in2="BackgroundImageFix" result="effect1_dropShadow_170_1046"/>
      <feBlend in="SourceGraphic" in2="effect1_dropShadow_170_1046" result="shape"/>
    </filter>
  </defs>
</svg>
