<svg xmlns="http://www.w3.org/2000/svg" width="54" height="51" fill="none" viewBox="0 0 54 51">
  <path fill="#000" d="m9.774.511-2.64 2.636 3.928 3.927L13.7 4.437 9.773.511h.001Zm34.454 0-3.929 3.926 2.639 2.637 3.926-3.925L44.226.511h.002ZM27 1.681c-.619.008-1.245.043-1.875.12-.019 0-.038-.004-.056 0-7.605.872-13.658 7.016-14.71 14.588-.84 6.094 1.673 11.62 5.86 15.178a9.821 9.821 0 0 1 3.281 5.681v11.25h4.275c.652 1.12 1.843 1.875 3.225 1.875 1.382 0 2.573-.755 3.225-1.875H34.5v-7.5h.176v-2.227c0-2.75 1.429-5.52 3.75-7.675 3.105-3.108 5.449-7.524 5.449-12.596 0-9.263-7.624-16.905-16.875-16.819Zm0 3.75c7.247-.101 13.125 5.831 13.125 13.069 0 3.926-1.819 7.384-4.337 9.9l.06.06a14.61 14.61 0 0 0-4.575 8.79h-8.201c-.413-3.214-1.79-6.324-4.395-8.556-3.313-2.812-5.288-7.05-4.628-11.835.82-5.906 5.612-10.655 11.485-11.306.485-.067.973-.108 1.462-.12L27 5.431ZM.75 18.5v3.75h5.625V18.5H.75Zm46.875 0v3.75h5.625V18.5h-5.625ZM11.062 33.676l-3.926 3.925 2.638 2.638 3.923-3.926-2.634-2.637Zm31.876 0L40.3 36.312l3.925 3.927 2.638-2.638-3.926-3.925ZM23.25 41h7.5v3.75h-7.5V41Z"/>
</svg>
