<svg width="344" height="74" viewBox="0 0 344 74" fill="none" xmlns="http://www.w3.org/2000/svg">
<rect x="1.5" y="1.5" width="302" height="71" rx="35.5" fill="#0A9EE4" stroke="#A5A9B7" stroke-width="3"/>
<path d="M86.7918 47C86.4291 47 86.1304 46.8827 85.8958 46.648C85.6611 46.4133 85.5438 46.1147 85.5438 45.752V23.256C85.5438 22.8933 85.6611 22.5947 85.8958 22.36C86.1304 22.1253 86.4291 22.008 86.7918 22.008H101.8C102.141 22.008 102.429 22.1253 102.664 22.36C102.92 22.5733 103.048 22.8613 103.048 23.224C103.048 23.544 102.92 23.8213 102.664 24.056C102.429 24.2907 102.141 24.408 101.8 24.408H88.0398V33.24H98.0558C98.4184 33.24 98.7171 33.3573 98.9518 33.592C99.1864 33.8267 99.3038 34.1147 99.3038 34.456C99.3038 34.7973 99.1864 35.0853 98.9518 35.32C98.7171 35.5547 98.4184 35.672 98.0558 35.672H88.0398V44.6H101.8C102.141 44.6 102.429 44.7173 102.664 44.952C102.92 45.1867 103.048 45.464 103.048 45.784C103.048 46.1467 102.92 46.4453 102.664 46.68C102.429 46.8933 102.141 47 101.8 47H86.7918ZM115.348 47.16C113.663 47.16 112.148 46.776 110.804 46.008C109.46 45.2187 108.393 44.152 107.604 42.808C106.836 41.464 106.452 39.9387 106.452 38.232C106.452 36.5467 106.825 35.032 107.572 33.688C108.34 32.344 109.375 31.288 110.676 30.52C111.977 29.7307 113.449 29.336 115.092 29.336C116.521 29.336 117.812 29.6453 118.964 30.264C120.116 30.8613 121.044 31.6613 121.748 32.664V23.256C121.748 22.872 121.865 22.5733 122.1 22.36C122.335 22.1253 122.633 22.008 122.996 22.008C123.359 22.008 123.657 22.1253 123.892 22.36C124.127 22.5733 124.244 22.872 124.244 23.256V38.36C124.201 40.024 123.785 41.528 122.996 42.872C122.228 44.1947 121.172 45.24 119.828 46.008C118.505 46.776 117.012 47.16 115.348 47.16ZM115.348 44.92C116.585 44.92 117.684 44.632 118.644 44.056C119.625 43.4587 120.393 42.6587 120.948 41.656C121.524 40.6533 121.812 39.512 121.812 38.232C121.812 36.9733 121.524 35.8427 120.948 34.84C120.393 33.816 119.625 33.016 118.644 32.44C117.684 31.864 116.585 31.576 115.348 31.576C114.132 31.576 113.033 31.864 112.052 32.44C111.071 33.016 110.292 33.816 109.716 34.84C109.14 35.8427 108.852 36.9733 108.852 38.232C108.852 39.512 109.14 40.6533 109.716 41.656C110.292 42.6587 111.071 43.4587 112.052 44.056C113.033 44.632 114.132 44.92 115.348 44.92ZM131.765 47C131.381 47 131.072 46.8933 130.837 46.68C130.624 46.4453 130.517 46.136 130.517 45.752V30.744C130.517 30.36 130.624 30.0613 130.837 29.848C131.072 29.6133 131.381 29.496 131.765 29.496C132.128 29.496 132.416 29.6133 132.629 29.848C132.864 30.0613 132.981 30.36 132.981 30.744V45.752C132.981 46.136 132.864 46.4453 132.629 46.68C132.416 46.8933 132.128 47 131.765 47ZM131.733 26.168C131.264 26.168 130.858 25.9973 130.517 25.656C130.176 25.3147 130.005 24.8987 130.005 24.408C130.005 23.8747 130.176 23.4587 130.517 23.16C130.88 22.84 131.296 22.68 131.765 22.68C132.213 22.68 132.608 22.84 132.949 23.16C133.312 23.4587 133.493 23.8747 133.493 24.408C133.493 24.8987 133.322 25.3147 132.981 25.656C132.64 25.9973 132.224 26.168 131.733 26.168ZM146.103 47C144.972 47 143.959 46.7333 143.063 46.2C142.188 45.6667 141.495 44.9413 140.983 44.024C140.471 43.0853 140.215 42.0187 140.215 40.824V25.176C140.215 24.8133 140.322 24.5147 140.535 24.28C140.77 24.0453 141.068 23.928 141.431 23.928C141.794 23.928 142.092 24.0453 142.327 24.28C142.562 24.5147 142.679 24.8133 142.679 25.176V40.824C142.679 41.912 142.999 42.808 143.639 43.512C144.279 44.1947 145.1 44.536 146.103 44.536H146.967C147.308 44.536 147.586 44.6533 147.799 44.888C148.012 45.1227 148.119 45.4213 148.119 45.784C148.119 46.1467 147.991 46.4453 147.735 46.68C147.479 46.8933 147.159 47 146.775 47H146.103ZM138.135 32.28C137.815 32.28 137.548 32.184 137.335 31.992C137.122 31.7787 137.015 31.5227 137.015 31.224C137.015 30.904 137.122 30.648 137.335 30.456C137.548 30.2427 137.815 30.136 138.135 30.136H146.295C146.615 30.136 146.882 30.2427 147.095 30.456C147.308 30.648 147.415 30.904 147.415 31.224C147.415 31.5227 147.308 31.7787 147.095 31.992C146.882 32.184 146.615 32.28 146.295 32.28H138.135ZM159.842 47.16C158.199 47.16 156.727 46.776 155.426 46.008C154.125 45.2187 153.09 44.152 152.322 42.808C151.575 41.464 151.202 39.9493 151.202 38.264C151.202 36.5573 151.586 35.032 152.354 33.688C153.143 32.344 154.21 31.288 155.554 30.52C156.898 29.7307 158.413 29.336 160.098 29.336C161.783 29.336 163.287 29.7307 164.61 30.52C165.954 31.288 167.01 32.344 167.778 33.688C168.567 35.032 168.973 36.5573 168.994 38.264L168.002 39.032C168.002 40.568 167.639 41.9547 166.914 43.192C166.21 44.408 165.239 45.3787 164.002 46.104C162.786 46.808 161.399 47.16 159.842 47.16ZM160.098 44.92C161.335 44.92 162.434 44.632 163.394 44.056C164.375 43.48 165.143 42.6907 165.698 41.688C166.274 40.664 166.562 39.5227 166.562 38.264C166.562 36.984 166.274 35.8427 165.698 34.84C165.143 33.8373 164.375 33.048 163.394 32.472C162.434 31.8747 161.335 31.576 160.098 31.576C158.882 31.576 157.783 31.8747 156.802 32.472C155.821 33.048 155.042 33.8373 154.466 34.84C153.89 35.8427 153.602 36.984 153.602 38.264C153.602 39.5227 153.89 40.664 154.466 41.688C155.042 42.6907 155.821 43.48 156.802 44.056C157.783 44.632 158.882 44.92 160.098 44.92ZM167.746 47C167.383 47 167.085 46.8933 166.85 46.68C166.615 46.4453 166.498 46.1467 166.498 45.784V40.312L167.106 37.784L168.994 38.264V45.784C168.994 46.1467 168.877 46.4453 168.642 46.68C168.407 46.8933 168.109 47 167.746 47ZM174.81 36.216C174.874 34.8933 175.216 33.7093 175.834 32.664C176.474 31.6187 177.296 30.7973 178.298 30.2C179.322 29.6027 180.453 29.304 181.69 29.304C182.672 29.304 183.429 29.4427 183.962 29.72C184.496 29.9973 184.698 30.4027 184.57 30.936C184.485 31.256 184.336 31.4693 184.122 31.576C183.93 31.6827 183.685 31.7253 183.386 31.704C183.109 31.6827 182.789 31.6613 182.426 31.64C181.232 31.5333 180.165 31.6613 179.226 32.024C178.309 32.3653 177.573 32.8987 177.018 33.624C176.485 34.3493 176.218 35.2133 176.218 36.216H174.81ZM175.002 47C174.618 47 174.32 46.8933 174.106 46.68C173.893 46.4667 173.786 46.168 173.786 45.784V30.712C173.786 30.328 173.893 30.0293 174.106 29.816C174.32 29.6027 174.618 29.496 175.002 29.496C175.386 29.496 175.685 29.6027 175.898 29.816C176.112 30.0293 176.218 30.328 176.218 30.712V45.784C176.218 46.168 176.112 46.4667 175.898 46.68C175.685 46.8933 175.386 47 175.002 47ZM199.386 47C199.023 47 198.724 46.8827 198.49 46.648C198.255 46.4133 198.138 46.1147 198.138 45.752V23.256C198.138 22.8933 198.255 22.5947 198.49 22.36C198.724 22.1253 199.023 22.008 199.386 22.008H205.786C207.364 22.008 208.762 22.36 209.978 23.064C211.194 23.7467 212.143 24.696 212.826 25.912C213.508 27.128 213.85 28.536 213.85 30.136C213.85 31.6933 213.508 33.08 212.826 34.296C212.143 35.4907 211.194 36.44 209.978 37.144C208.762 37.8267 207.364 38.168 205.786 38.168H200.634V45.752C200.634 46.1147 200.516 46.4133 200.282 46.648C200.047 46.8827 199.748 47 199.386 47ZM200.634 35.768H205.786C206.874 35.768 207.844 35.5333 208.698 35.064C209.551 34.5733 210.212 33.9013 210.682 33.048C211.172 32.1947 211.418 31.224 211.418 30.136C211.418 29.0053 211.172 28.0133 210.682 27.16C210.212 26.3067 209.551 25.6347 208.698 25.144C207.844 24.6533 206.874 24.408 205.786 24.408H200.634V35.768ZM224.722 47.16C222.994 47.16 221.458 46.7867 220.114 46.04C218.792 45.272 217.746 44.216 216.978 42.872C216.232 41.528 215.858 39.992 215.858 38.264C215.858 36.5147 216.21 34.9787 216.914 33.656C217.64 32.312 218.632 31.256 219.89 30.488C221.149 29.72 222.6 29.336 224.242 29.336C225.864 29.336 227.272 29.7093 228.466 30.456C229.682 31.1813 230.621 32.1947 231.282 33.496C231.944 34.7973 232.274 36.28 232.274 37.944C232.274 38.2853 232.168 38.5627 231.954 38.776C231.741 38.968 231.464 39.064 231.122 39.064H217.522V37.016H231.378L230.002 38.008C230.024 36.7707 229.8 35.6613 229.33 34.68C228.861 33.6987 228.189 32.9307 227.314 32.376C226.461 31.8213 225.437 31.544 224.242 31.544C223.026 31.544 221.96 31.832 221.042 32.408C220.125 32.984 219.41 33.784 218.898 34.808C218.408 35.8107 218.162 36.9627 218.162 38.264C218.162 39.5653 218.44 40.7173 218.994 41.72C219.57 42.7227 220.349 43.512 221.33 44.088C222.312 44.664 223.442 44.952 224.722 44.952C225.49 44.952 226.258 44.824 227.026 44.568C227.816 44.2907 228.445 43.9493 228.914 43.544C229.149 43.352 229.416 43.256 229.714 43.256C230.013 43.2347 230.269 43.3093 230.482 43.48C230.76 43.736 230.898 44.0133 230.898 44.312C230.92 44.6107 230.802 44.8667 230.546 45.08C229.842 45.6773 228.946 46.1787 227.858 46.584C226.77 46.968 225.725 47.16 224.722 47.16ZM237.467 36.216C237.531 34.8933 237.872 33.7093 238.491 32.664C239.131 31.6187 239.952 30.7973 240.955 30.2C241.979 29.6027 243.109 29.304 244.347 29.304C245.328 29.304 246.085 29.4427 246.619 29.72C247.152 29.9973 247.355 30.4027 247.227 30.936C247.141 31.256 246.992 31.4693 246.779 31.576C246.587 31.6827 246.341 31.7253 246.043 31.704C245.765 31.6827 245.445 31.6613 245.083 31.64C243.888 31.5333 242.821 31.6613 241.883 32.024C240.965 32.3653 240.229 32.8987 239.675 33.624C239.141 34.3493 238.875 35.2133 238.875 36.216H237.467ZM237.659 47C237.275 47 236.976 46.8933 236.763 46.68C236.549 46.4667 236.443 46.168 236.443 45.784V30.712C236.443 30.328 236.549 30.0293 236.763 29.816C236.976 29.6027 237.275 29.496 237.659 29.496C238.043 29.496 238.341 29.6027 238.555 29.816C238.768 30.0293 238.875 30.328 238.875 30.712V45.784C238.875 46.168 238.768 46.4667 238.555 46.68C238.341 46.8933 238.043 47 237.659 47ZM253.307 47C252.965 47 252.677 46.8827 252.443 46.648C252.208 46.4133 252.091 46.1147 252.091 45.752V29.336C252.091 27.9067 252.336 26.6373 252.827 25.528C253.339 24.4187 254.149 23.544 255.259 22.904C256.368 22.2427 257.851 21.912 259.707 21.912C260.56 21.912 261.371 22.008 262.139 22.2C262.907 22.392 263.525 22.6693 263.995 23.032C264.485 23.3733 264.731 23.8 264.731 24.312C264.731 25.2293 264.208 25.688 263.163 25.688C262.8 25.688 262.469 25.6027 262.171 25.432C261.872 25.24 261.563 25.0267 261.243 24.792C260.944 24.536 260.613 24.3227 260.251 24.152C259.888 23.96 259.451 23.864 258.939 23.864C258.085 23.864 257.328 24.0347 256.667 24.376C256.005 24.7173 255.483 25.2933 255.099 26.104C254.736 26.8933 254.555 27.9707 254.555 29.336V45.752C254.555 46.1147 254.437 46.4133 254.203 46.648C253.968 46.8827 253.669 47 253.307 47ZM250.043 32.28C249.701 32.28 249.424 32.184 249.211 31.992C249.019 31.7787 248.923 31.5227 248.923 31.224C248.923 30.904 249.019 30.648 249.211 30.456C249.424 30.2427 249.701 30.136 250.043 30.136H258.427C258.747 30.136 259.013 30.2427 259.227 30.456C259.44 30.648 259.547 30.904 259.547 31.224C259.547 31.5227 259.44 31.7787 259.227 31.992C259.013 32.184 258.747 32.28 258.427 32.28H250.043ZM263.227 47C262.843 47 262.533 46.8933 262.299 46.68C262.085 46.4453 261.979 46.136 261.979 45.752V30.744C261.979 30.36 262.085 30.0613 262.299 29.848C262.533 29.6133 262.843 29.496 263.227 29.496C263.589 29.496 263.877 29.6133 264.091 29.848C264.325 30.0613 264.443 30.36 264.443 30.744V45.752C264.443 46.136 264.325 46.4453 264.091 46.68C263.877 46.8933 263.589 47 263.227 47ZM274.281 47C273.428 47 272.66 46.7653 271.977 46.296C271.316 45.8267 270.793 45.176 270.409 44.344C270.046 43.512 269.865 42.552 269.865 41.464V23.224C269.865 22.8613 269.972 22.5733 270.185 22.36C270.42 22.1253 270.718 22.008 271.081 22.008C271.444 22.008 271.732 22.1253 271.945 22.36C272.18 22.5733 272.297 22.8613 272.297 23.224V41.464C272.297 42.3813 272.478 43.128 272.841 43.704C273.225 44.28 273.705 44.568 274.281 44.568H275.081C275.401 44.568 275.657 44.6853 275.849 44.92C276.041 45.1333 276.137 45.4213 276.137 45.784C276.137 46.1467 275.998 46.4453 275.721 46.68C275.465 46.8933 275.124 47 274.697 47H274.281Z" fill="white"/>
<path d="M85.8958 46.648L86.6029 45.9409L85.8958 46.648ZM85.8958 22.36L86.6029 23.0671V23.0671L85.8958 22.36ZM102.664 22.36L101.957 23.0671L101.989 23.0992L102.024 23.1282L102.664 22.36ZM102.664 24.056L101.988 23.3188L101.972 23.3335L101.957 23.3489L102.664 24.056ZM88.0397 24.408V23.408H87.0397V24.408H88.0397ZM88.0397 33.24H87.0397V34.24H88.0397V33.24ZM98.9518 33.592L99.6589 32.8849V32.8849L98.9518 33.592ZM98.9518 35.32L99.6589 36.0271V36.0271L98.9518 35.32ZM88.0397 35.672V34.672H87.0397V35.672H88.0397ZM88.0397 44.6H87.0397V45.6H88.0397V44.6ZM102.664 44.952L101.957 45.6591L101.972 45.6745L101.988 45.6892L102.664 44.952ZM102.664 46.68L103.336 47.4199L103.339 47.4172L102.664 46.68ZM86.7917 46C86.6672 46 86.6317 45.9697 86.6029 45.9409L85.1886 47.3551C85.6292 47.7956 86.191 48 86.7917 48V46ZM86.6029 45.9409C86.5741 45.9121 86.5437 45.8765 86.5437 45.752H84.5437C84.5437 46.3528 84.7481 46.9146 85.1886 47.3551L86.6029 45.9409ZM86.5437 45.752V23.256H84.5437V45.752H86.5437ZM86.5437 23.256C86.5437 23.1315 86.5741 23.0959 86.6029 23.0671L85.1886 21.6529C84.7481 22.0934 84.5437 22.6552 84.5437 23.256H86.5437ZM86.6029 23.0671C86.6317 23.0383 86.6672 23.008 86.7917 23.008V21.008C86.191 21.008 85.6292 21.2124 85.1886 21.6529L86.6029 23.0671ZM86.7917 23.008H101.8V21.008H86.7917V23.008ZM101.8 23.008C101.884 23.008 101.915 23.0259 101.957 23.0671L103.371 21.6529C102.943 21.2248 102.398 21.008 101.8 21.008V23.008ZM102.024 23.1282C102.034 23.1367 102.037 23.1415 102.038 23.1421C102.038 23.1425 102.038 23.1421 102.038 23.1421C102.038 23.1424 102.04 23.1472 102.043 23.159C102.045 23.1712 102.048 23.1922 102.048 23.224H104.048C104.048 22.5943 103.81 22.0134 103.304 21.5918L102.024 23.1282ZM102.048 23.224C102.048 23.2369 102.047 23.2439 102.046 23.2465C102.045 23.2489 102.045 23.2507 102.044 23.2529C102.042 23.2558 102.032 23.2789 101.988 23.3188L103.339 24.7932C103.782 24.3871 104.048 23.85 104.048 23.224H102.048ZM101.957 23.3489C101.915 23.3901 101.884 23.408 101.8 23.408V25.408C102.398 25.408 102.943 25.1912 103.371 24.7631L101.957 23.3489ZM101.8 23.408H88.0397V25.408H101.8V23.408ZM87.0397 24.408V33.24H89.0397V24.408H87.0397ZM88.0397 34.24H98.0557V32.24H88.0397V34.24ZM98.0557 34.24C98.1803 34.24 98.2158 34.2703 98.2446 34.2991L99.6589 32.8849C99.2183 32.4444 98.6565 32.24 98.0557 32.24V34.24ZM98.2446 34.2991C98.2859 34.3403 98.3037 34.3714 98.3037 34.456H100.304C100.304 33.8579 100.087 33.313 99.6589 32.8849L98.2446 34.2991ZM98.3037 34.456C98.3037 34.5406 98.2859 34.5717 98.2446 34.6129L99.6589 36.0271C100.087 35.599 100.304 35.0541 100.304 34.456H98.3037ZM98.2446 34.6129C98.2158 34.6417 98.1803 34.672 98.0557 34.672V36.672C98.6565 36.672 99.2183 36.4676 99.6589 36.0271L98.2446 34.6129ZM98.0557 34.672H88.0397V36.672H98.0557V34.672ZM87.0397 35.672V44.6H89.0397V35.672H87.0397ZM88.0397 45.6H101.8V43.6H88.0397V45.6ZM101.8 45.6C101.884 45.6 101.915 45.6179 101.957 45.6591L103.371 44.2449C102.943 43.8168 102.398 43.6 101.8 43.6V45.6ZM101.988 45.6892C102.032 45.7291 102.042 45.7522 102.044 45.7551C102.045 45.7573 102.045 45.7591 102.046 45.7615C102.047 45.7641 102.048 45.7711 102.048 45.784H104.048C104.048 45.158 103.782 44.6209 103.339 44.2148L101.988 45.6892ZM102.048 45.784C102.048 45.8804 102.027 45.9069 101.988 45.9428L103.339 47.4172C103.812 46.9838 104.048 46.4129 104.048 45.784H102.048ZM101.991 45.9401C101.955 45.9727 101.913 46 101.8 46V48C102.369 48 102.903 47.814 103.336 47.4199L101.991 45.9401ZM101.8 46H86.7917V48H101.8V46ZM110.804 46.008L110.298 46.8703L110.308 46.8762L110.804 46.008ZM107.604 42.808L106.736 43.3042L106.742 43.3144L107.604 42.808ZM107.572 33.688L106.704 33.1918L106.698 33.2024L107.572 33.688ZM110.676 30.52L111.184 31.3813L111.195 31.375L110.676 30.52ZM118.964 30.264L118.491 31.145L118.497 31.1484L118.504 31.1518L118.964 30.264ZM121.748 32.664L120.93 33.2386L122.748 35.8285V32.664H121.748ZM122.1 22.36L122.773 23.0999L122.79 23.0839L122.807 23.0671L122.1 22.36ZM123.892 22.36L123.185 23.0671L123.202 23.0839L123.219 23.0999L123.892 22.36ZM124.244 38.36L125.244 38.3856L125.244 38.3728V38.36H124.244ZM122.996 42.872L122.134 42.3656L122.131 42.3699L122.996 42.872ZM119.828 46.008L119.332 45.1397L119.326 45.1432L119.828 46.008ZM118.644 44.056L119.159 44.9135L119.164 44.9102L118.644 44.056ZM120.948 41.656L120.081 41.1579L120.077 41.1649L120.073 41.1719L120.948 41.656ZM120.948 34.84L120.069 35.3163L120.075 35.3273L120.081 35.3381L120.948 34.84ZM118.644 32.44L118.129 33.2975L118.138 33.3024L118.644 32.44ZM112.052 32.44L112.558 33.3024L112.558 33.3024L112.052 32.44ZM109.716 34.84L110.583 35.3381L110.588 35.3303L109.716 34.84ZM109.716 41.656L108.849 42.1541L109.716 41.656ZM112.052 44.056L111.532 44.9102L111.539 44.9144L111.546 44.9184L112.052 44.056ZM115.348 46.16C113.821 46.16 112.48 45.8139 111.3 45.1398L110.308 46.8762C111.816 47.7381 113.505 48.16 115.348 48.16V46.16ZM111.31 45.1457C110.113 44.4427 109.169 43.4986 108.466 42.3016L106.742 43.3144C107.617 44.8054 108.807 45.9946 110.298 46.8703L111.31 45.1457ZM108.472 42.3119C107.799 41.1341 107.452 39.7829 107.452 38.232H105.452C105.452 40.0944 105.873 41.7939 106.736 43.3041L108.472 42.3119ZM107.452 38.232C107.452 36.6999 107.79 35.3551 108.446 34.1736L106.698 33.2024C105.861 34.7089 105.452 36.3935 105.452 38.232H107.452ZM108.44 34.1841C109.124 32.9872 110.036 32.0586 111.184 31.3812L110.168 29.6588C108.713 30.5174 107.556 31.7008 106.704 33.1919L108.44 34.1841ZM111.195 31.375C112.327 30.688 113.617 30.336 115.092 30.336V28.336C113.281 28.336 111.627 28.7733 110.157 29.665L111.195 31.375ZM115.092 30.336C116.372 30.336 117.498 30.6116 118.491 31.145L119.437 29.383C118.126 28.6791 116.671 28.336 115.092 28.336V30.336ZM118.504 31.1518C119.522 31.6795 120.324 32.3754 120.93 33.2386L122.566 32.0894C121.765 30.9472 120.71 30.0431 119.424 29.3762L118.504 31.1518ZM122.748 32.664V23.256H120.748V32.664H122.748ZM122.748 23.256C122.748 23.1651 122.762 23.1221 122.767 23.1097C122.77 23.1015 122.77 23.1021 122.773 23.0999L121.427 21.6201C120.941 22.0623 120.748 22.6546 120.748 23.256H122.748ZM122.807 23.0671C122.836 23.0383 122.871 23.008 122.996 23.008V21.008C122.395 21.008 121.833 21.2124 121.393 21.6529L122.807 23.0671ZM122.996 23.008C123.121 23.008 123.156 23.0383 123.185 23.0671L124.599 21.6529C124.159 21.2124 123.597 21.008 122.996 21.008V23.008ZM123.219 23.0999C123.222 23.1021 123.222 23.1015 123.225 23.1097C123.23 23.1221 123.244 23.1651 123.244 23.256H125.244C125.244 22.6546 125.051 22.0623 124.565 21.6201L123.219 23.0999ZM123.244 23.256V38.36H125.244V23.256H123.244ZM123.244 38.3344C123.206 39.8409 122.831 41.1775 122.134 42.3656L123.858 43.3784C124.739 41.8785 125.197 40.2071 125.244 38.3856L123.244 38.3344ZM122.131 42.3699C121.453 43.5382 120.525 44.4581 119.332 45.1398L120.324 46.8762C121.819 46.0219 123.003 44.8511 123.861 43.3741L122.131 42.3699ZM119.326 45.1432C118.169 45.8149 116.852 46.16 115.348 46.16V48.16C117.172 48.16 118.842 47.7371 120.33 46.8728L119.326 45.1432ZM115.348 45.92C116.747 45.92 118.027 45.5923 119.158 44.9135L118.13 43.1985C117.341 43.6717 116.424 43.92 115.348 43.92V45.92ZM119.164 44.9102C120.293 44.2227 121.184 43.2953 121.823 42.1401L120.073 41.1719C119.603 42.022 118.957 42.6946 118.124 43.2018L119.164 44.9102ZM121.815 42.1541C122.487 40.9841 122.812 39.6676 122.812 38.232H120.812C120.812 39.3564 120.561 40.3226 120.081 41.1579L121.815 42.1541ZM122.812 38.232C122.812 36.8145 122.486 35.5094 121.815 34.3419L120.081 35.3381C120.562 36.176 120.812 37.1322 120.812 38.232H122.812ZM121.827 34.3637C121.188 33.1834 120.293 32.2481 119.15 31.5776L118.138 33.3024C118.958 33.7839 119.599 34.4486 120.069 35.3163L121.827 34.3637ZM119.158 31.5825C118.027 30.9037 116.747 30.576 115.348 30.576V32.576C116.424 32.576 117.341 32.8243 118.13 33.2975L119.158 31.5825ZM115.348 30.576C113.967 30.576 112.691 30.9053 111.546 31.5776L112.558 33.3024C113.375 32.8227 114.297 32.576 115.348 32.576V30.576ZM111.546 31.5776C110.407 32.2461 109.504 33.1768 108.844 34.3497L110.588 35.3303C111.08 34.4552 111.735 33.7859 112.558 33.3024L111.546 31.5776ZM108.849 34.3419C108.178 35.5094 107.852 36.8145 107.852 38.232H109.852C109.852 37.1322 110.102 36.176 110.583 35.3381L108.849 34.3419ZM107.852 38.232C107.852 39.6676 108.177 40.9841 108.849 42.1541L110.583 41.1579C110.103 40.3226 109.852 39.3564 109.852 38.232H107.852ZM108.849 42.1541C109.508 43.3018 110.406 44.2247 111.532 44.9102L112.572 43.2018C111.735 42.6926 111.076 42.0155 110.583 41.1579L108.849 42.1541ZM111.546 44.9184C112.691 45.5907 113.967 45.92 115.348 45.92V43.92C114.297 43.92 113.375 43.6733 112.558 43.1936L111.546 44.9184ZM130.837 46.68L130.097 47.3527L130.129 47.3879L130.164 47.4199L130.837 46.68ZM130.837 29.848L131.544 30.5551V30.5551L130.837 29.848ZM132.629 29.848L131.889 30.5207L131.921 30.5559L131.956 30.5879L132.629 29.848ZM132.629 46.68L131.922 45.9729L132.629 46.68ZM130.517 25.656L131.224 24.9489V24.9489L130.517 25.656ZM130.517 23.16L131.176 23.9126L131.179 23.9098L130.517 23.16ZM132.949 23.16L132.265 23.8895L132.288 23.9115L132.313 23.9319L132.949 23.16ZM132.981 25.656L132.274 24.9489V24.9489L132.981 25.656ZM131.765 46C131.575 46 131.523 45.9523 131.51 45.9401L130.164 47.4199C130.62 47.8343 131.187 48 131.765 48V46ZM131.577 46.0073C131.565 45.9938 131.517 45.9424 131.517 45.752H129.517C129.517 46.3296 129.683 46.8968 130.097 47.3527L131.577 46.0073ZM131.517 45.752V30.744H129.517V45.752H131.517ZM131.517 30.744C131.517 30.6432 131.531 30.5897 131.539 30.5683C131.542 30.558 131.545 30.554 131.545 30.554C131.545 30.5538 131.545 30.5541 131.545 30.5545C131.544 30.555 131.544 30.5552 131.544 30.5551L130.13 29.1409C129.681 29.5894 129.517 30.1707 129.517 30.744H131.517ZM131.544 30.5551C131.562 30.5376 131.601 30.496 131.765 30.496V28.496C131.161 28.496 130.582 28.689 130.13 29.1409L131.544 30.5551ZM131.765 30.496C131.838 30.496 131.87 30.5076 131.876 30.5101C131.879 30.5115 131.88 30.5123 131.88 30.5124C131.881 30.5126 131.884 30.5146 131.889 30.5207L133.369 29.1753C132.938 28.7013 132.365 28.496 131.765 28.496V30.496ZM131.956 30.5879C131.959 30.5901 131.959 30.5895 131.962 30.5977C131.967 30.6101 131.981 30.6531 131.981 30.744H133.981C133.981 30.1426 133.788 29.5503 133.302 29.1081L131.956 30.5879ZM131.981 30.744V45.752H133.981V30.744H131.981ZM131.981 45.752C131.981 45.9159 131.939 45.9554 131.922 45.9729L133.336 47.3871C133.788 46.9353 133.981 46.3561 133.981 45.752H131.981ZM131.922 45.9729C131.919 45.9758 131.917 45.978 131.906 45.9823C131.891 45.9877 131.849 46 131.765 46V48C132.336 48 132.898 47.825 133.336 47.3871L131.922 45.9729ZM131.733 25.168C131.537 25.168 131.384 25.1087 131.224 24.9489L129.81 26.3631C130.333 26.886 130.99 27.168 131.733 27.168V25.168ZM131.224 24.9489C131.074 24.7985 131.005 24.6384 131.005 24.408H129.005C129.005 25.159 129.278 25.8308 129.81 26.3631L131.224 24.9489ZM131.005 24.408C131.005 24.1072 131.09 23.9874 131.176 23.9126L129.858 22.4074C129.261 22.9299 129.005 23.6421 129.005 24.408H131.005ZM131.179 23.9098C131.365 23.7456 131.547 23.68 131.765 23.68V21.68C131.044 21.68 130.395 21.9344 129.855 22.4102L131.179 23.9098ZM131.765 23.68C131.947 23.68 132.1 23.7348 132.265 23.8895L133.633 22.4305C133.115 21.9452 132.479 21.68 131.765 21.68V23.68ZM132.313 23.9319C132.412 24.0135 132.493 24.1281 132.493 24.408H134.493C134.493 23.6213 134.211 22.9038 133.585 22.3881L132.313 23.9319ZM132.493 24.408C132.493 24.6384 132.424 24.7985 132.274 24.9489L133.688 26.3631C134.22 25.8308 134.493 25.159 134.493 24.408H132.493ZM132.274 24.9489C132.124 25.0993 131.963 25.168 131.733 25.168V27.168C132.484 27.168 133.156 26.8954 133.688 26.3631L132.274 24.9489ZM143.063 46.2L142.542 47.0538L142.552 47.0593L143.063 46.2ZM140.983 44.024L140.105 44.5029L140.11 44.5114L140.983 44.024ZM140.535 24.28L139.828 23.5729L139.811 23.5897L139.795 23.6073L140.535 24.28ZM142.327 24.28L141.62 24.9871V24.9871L142.327 24.28ZM143.639 43.512L142.899 44.1847L142.904 44.1903L142.909 44.1959L143.639 43.512ZM147.799 44.888L148.539 44.2153V44.2153L147.799 44.888ZM147.735 46.68L148.375 47.4482L148.393 47.4331L148.411 47.4172L147.735 46.68ZM137.335 31.992L136.628 32.6991L136.646 32.7177L136.666 32.7353L137.335 31.992ZM137.335 30.456L138.004 31.1993L138.024 31.1817L138.042 31.1631L137.335 30.456ZM147.095 30.456L146.388 31.1631L146.406 31.1817L146.426 31.1993L147.095 30.456ZM147.095 31.992L147.764 32.7353L147.784 32.7177L147.802 32.6991L147.095 31.992ZM146.103 46C145.137 46 144.303 45.7742 143.574 45.3407L142.552 47.0593C143.615 47.6924 144.808 48 146.103 48V46ZM143.584 45.3462C142.86 44.9049 142.286 44.3075 141.856 43.5366L140.11 44.5114C140.704 45.5752 141.517 46.4284 142.542 47.0538L143.584 45.3462ZM141.861 43.5451C141.438 42.77 141.215 41.8713 141.215 40.824H139.215C139.215 42.166 139.504 43.4007 140.105 44.5029L141.861 43.5451ZM141.215 40.824V25.176H139.215V40.824H141.215ZM141.215 25.176C141.215 25.0239 141.253 24.9768 141.275 24.9527L139.795 23.6073C139.39 24.0525 139.215 24.6028 139.215 25.176H141.215ZM141.242 24.9871C141.271 24.9583 141.306 24.928 141.431 24.928V22.928C140.83 22.928 140.268 23.1324 139.828 23.5729L141.242 24.9871ZM141.431 24.928C141.556 24.928 141.591 24.9583 141.62 24.9871L143.034 23.5729C142.594 23.1324 142.032 22.928 141.431 22.928V24.928ZM141.62 24.9871C141.649 25.0159 141.679 25.0515 141.679 25.176H143.679C143.679 24.5752 143.475 24.0134 143.034 23.5729L141.62 24.9871ZM141.679 25.176V40.824H143.679V25.176H141.679ZM141.679 40.824C141.679 42.1225 142.068 43.2701 142.899 44.1847L144.379 42.8393C143.93 42.3459 143.679 41.7015 143.679 40.824H141.679ZM142.909 44.1959C143.753 45.0958 144.846 45.536 146.103 45.536V43.536C145.355 43.536 144.805 43.2935 144.369 42.8281L142.909 44.1959ZM146.103 45.536H146.967V43.536H146.103V45.536ZM146.967 45.536C146.995 45.536 147.014 45.5384 147.025 45.5405C147.035 45.5425 147.04 45.5445 147.041 45.545C147.042 45.5454 147.043 45.5456 147.044 45.5465C147.046 45.5476 147.051 45.5514 147.059 45.5607L148.539 44.2153C148.12 43.755 147.566 43.536 146.967 43.536V45.536ZM147.059 45.5607C147.081 45.5848 147.119 45.6319 147.119 45.784H149.119C149.119 45.2108 148.944 44.6605 148.539 44.2153L147.059 45.5607ZM147.119 45.784C147.119 45.8804 147.099 45.9069 147.059 45.9428L148.411 47.4172C148.883 46.9838 149.119 46.4129 149.119 45.784H147.119ZM147.095 45.9118C147.045 45.9529 146.963 46 146.775 46V48C147.355 48 147.913 47.8337 148.375 47.4482L147.095 45.9118ZM146.775 46H146.103V48H146.775V46ZM138.135 31.28C138.031 31.28 138.012 31.2561 138.004 31.2487L136.666 32.7353C137.085 33.1119 137.599 33.28 138.135 33.28V31.28ZM138.042 31.2849C138.03 31.2729 138.024 31.2647 138.021 31.2607C138.02 31.2586 138.019 31.2572 138.019 31.2565C138.018 31.2558 138.018 31.2555 138.018 31.2554C138.018 31.2553 138.018 31.2551 138.018 31.2547C138.018 31.2542 138.017 31.2531 138.017 31.2512C138.016 31.2475 138.015 31.2389 138.015 31.224H136.015C136.015 31.7909 136.229 32.3004 136.628 32.6991L138.042 31.2849ZM138.015 31.224C138.015 31.1995 138.017 31.1848 138.018 31.1781C138.019 31.1717 138.02 31.1719 138.018 31.1766C138.016 31.1815 138.013 31.1876 138.009 31.1932C138.005 31.1988 138.002 31.2008 138.004 31.1993L136.666 29.7127C136.216 30.1173 136.015 30.6568 136.015 31.224H138.015ZM138.042 31.1631C138.051 31.1542 138.057 31.1499 138.06 31.1481C138.062 31.1463 138.064 31.1453 138.066 31.1445C138.069 31.1435 138.088 31.136 138.135 31.136V29.136C137.568 29.136 137.041 29.3358 136.628 29.7489L138.042 31.1631ZM138.135 31.136H146.295V29.136H138.135V31.136ZM146.295 31.136C146.342 31.136 146.361 31.1435 146.364 31.1445C146.366 31.1453 146.368 31.1463 146.37 31.148C146.373 31.1499 146.379 31.1542 146.388 31.1631L147.802 29.7489C147.389 29.3358 146.862 29.136 146.295 29.136V31.136ZM146.426 31.1993C146.428 31.2008 146.425 31.1988 146.421 31.1932C146.417 31.1876 146.414 31.1815 146.412 31.1766C146.41 31.1719 146.411 31.1717 146.412 31.1781C146.413 31.1848 146.415 31.1995 146.415 31.224H148.415C148.415 30.6568 148.214 30.1173 147.764 29.7127L146.426 31.1993ZM146.415 31.224C146.415 31.2389 146.414 31.2475 146.413 31.2512C146.413 31.2531 146.412 31.2542 146.412 31.2547C146.412 31.2551 146.412 31.2553 146.412 31.2554C146.412 31.2555 146.412 31.2558 146.411 31.2565C146.411 31.2572 146.41 31.2586 146.409 31.2607C146.406 31.2647 146.4 31.2729 146.388 31.2849L147.802 32.6991C148.201 32.3004 148.415 31.7909 148.415 31.224H146.415ZM146.426 31.2487C146.418 31.2561 146.399 31.28 146.295 31.28V33.28C146.831 33.28 147.345 33.1119 147.764 32.7353L146.426 31.2487ZM146.295 31.28H138.135V33.28H146.295V31.28ZM155.426 46.008L154.907 46.8631L154.918 46.8692L155.426 46.008ZM152.322 42.808L151.448 43.2937L151.454 43.3041L152.322 42.808ZM152.354 33.688L151.492 33.1815L151.486 33.1919L152.354 33.688ZM155.554 30.52L156.05 31.3883L156.06 31.3823L155.554 30.52ZM164.61 30.52L164.098 31.3787L164.106 31.3836L164.114 31.3882L164.61 30.52ZM167.778 33.688L166.91 34.1842L166.916 34.1944L167.778 33.688ZM168.994 38.264L169.606 39.0547L170 38.7497L169.994 38.2515L168.994 38.264ZM168.002 39.032L167.39 38.2413L167.002 38.5415V39.032H168.002ZM166.914 43.192L166.051 42.6863L166.049 42.691L166.914 43.192ZM164.002 46.104L164.503 46.9694L164.508 46.9667L164.002 46.104ZM163.394 44.056L162.888 43.1935L162.88 43.1985L163.394 44.056ZM165.698 41.688L164.826 41.1977L164.823 41.2039L165.698 41.688ZM165.698 34.84L164.823 35.3241L164.827 35.3311L164.831 35.3381L165.698 34.84ZM163.394 32.472L162.866 33.3211L162.877 33.3279L162.888 33.3344L163.394 32.472ZM156.802 32.472L157.308 33.3344L157.315 33.3304L157.322 33.3262L156.802 32.472ZM154.466 34.84L153.599 34.3419V34.3419L154.466 34.84ZM154.466 41.688L153.594 42.1783L153.599 42.1861L154.466 41.688ZM156.802 44.056L157.308 43.1936L156.802 44.056ZM166.85 46.68L166.143 47.3871L166.16 47.4039L166.177 47.4199L166.85 46.68ZM166.498 40.312L165.526 40.0782L165.498 40.1934V40.312H166.498ZM167.106 37.784L167.352 36.8148L166.371 36.5652L166.134 37.5502L167.106 37.784ZM168.994 38.264H169.994V37.4864L169.24 37.2948L168.994 38.264ZM168.642 46.68L169.315 47.4199L169.332 47.4039L169.349 47.3871L168.642 46.68ZM159.842 46.16C158.362 46.16 157.068 45.8161 155.934 45.1468L154.918 46.8692C156.386 47.7359 158.037 48.16 159.842 48.16V46.16ZM155.945 45.153C154.791 44.4532 153.876 43.5111 153.19 42.3119L151.454 43.3041C152.304 44.7929 153.458 45.9841 154.907 46.863L155.945 45.153ZM153.196 42.3224C152.54 41.1409 152.202 39.7961 152.202 38.264H150.202C150.202 40.1025 150.611 41.7871 151.448 43.2936L153.196 42.3224ZM152.202 38.264C152.202 36.7131 152.549 35.3619 153.222 34.1841L151.486 33.1919C150.623 34.7021 150.202 36.4016 150.202 38.264H152.202ZM153.216 34.1944C153.918 32.9998 154.859 32.069 156.05 31.3882L155.058 29.6518C153.561 30.507 152.369 31.6882 151.492 33.1816L153.216 34.1944ZM156.06 31.3823C157.238 30.6904 158.576 30.336 160.098 30.336V28.336C158.25 28.336 156.558 28.7709 155.048 29.6577L156.06 31.3823ZM160.098 30.336C161.62 30.336 162.944 30.6904 164.098 31.3787L165.122 29.6613C163.63 28.7709 161.946 28.336 160.098 28.336V30.336ZM164.114 31.3882C165.303 32.0677 166.23 32.9952 166.91 34.1841L168.646 33.1919C167.79 31.6928 166.605 30.5083 165.106 29.6518L164.114 31.3882ZM166.916 34.1944C167.609 35.3746 167.975 36.7267 167.994 38.2765L169.994 38.2515C169.971 36.388 169.526 34.6894 168.64 33.1816L166.916 34.1944ZM168.382 37.4733L167.39 38.2413L168.614 39.8227L169.606 39.0547L168.382 37.4733ZM167.002 39.032C167.002 40.4033 166.68 41.6132 166.051 42.6863L167.777 43.6977C168.598 42.2961 169.002 40.7327 169.002 39.032H167.002ZM166.049 42.691C165.433 43.7541 164.588 44.6015 163.496 45.2413L164.508 46.9667C165.891 46.1558 166.987 45.0619 167.779 43.693L166.049 42.691ZM163.501 45.2386C162.453 45.8451 161.243 46.16 159.842 46.16V48.16C161.556 48.16 163.119 47.7709 164.503 46.9694L163.501 45.2386ZM160.098 45.92C161.497 45.92 162.777 45.5923 163.908 44.9135L162.88 43.1985C162.091 43.6717 161.174 43.92 160.098 43.92V45.92ZM163.9 44.9184C165.037 44.251 165.932 43.3305 166.573 42.1721L164.823 41.2039C164.354 42.0509 163.713 42.709 162.888 43.1936L163.9 44.9184ZM166.57 42.1783C167.236 40.9939 167.562 39.6818 167.562 38.264H165.562C165.562 39.3636 165.312 40.3341 164.826 41.1977L166.57 42.1783ZM167.562 38.264C167.562 36.8284 167.237 35.5119 166.565 34.3419L164.831 35.3381C165.311 36.1734 165.562 37.1396 165.562 38.264H167.562ZM166.573 34.3559C165.932 33.1975 165.037 32.277 163.9 31.6096L162.888 33.3344C163.713 33.819 164.354 34.4771 164.823 35.3241L166.573 34.3559ZM163.922 31.6229C162.789 30.9177 161.504 30.576 160.098 30.576V32.576C161.167 32.576 162.079 32.8316 162.866 33.3211L163.922 31.6229ZM160.098 30.576C158.71 30.576 157.429 30.9195 156.282 31.6178L157.322 33.3262C158.137 32.8299 159.054 32.576 160.098 32.576V30.576ZM156.296 31.6096C155.162 32.2751 154.26 33.191 153.599 34.3419L155.333 35.3381C155.824 34.4836 156.479 33.8209 157.308 33.3344L156.296 31.6096ZM153.599 34.3419C152.927 35.5119 152.602 36.8284 152.602 38.264H154.602C154.602 37.1396 154.853 36.1734 155.333 35.3381L153.599 34.3419ZM152.602 38.264C152.602 39.6818 152.928 40.9939 153.594 42.1783L155.338 41.1977C154.852 40.3341 154.602 39.3636 154.602 38.264H152.602ZM153.599 42.1861C154.26 43.337 155.162 44.2529 156.296 44.9184L157.308 43.1936C156.479 42.7071 155.824 42.0444 155.333 41.1899L153.599 42.1861ZM156.296 44.9184C157.441 45.5907 158.717 45.92 160.098 45.92V43.92C159.047 43.92 158.125 43.6733 157.308 43.1936L156.296 44.9184ZM167.746 46C167.594 46 167.547 45.962 167.523 45.9401L166.177 47.4199C166.623 47.8247 167.173 48 167.746 48V46ZM167.557 45.9729C167.528 45.9441 167.498 45.9085 167.498 45.784H165.498C165.498 46.3848 165.702 46.9466 166.143 47.3871L167.557 45.9729ZM167.498 45.784V40.312H165.498V45.784H167.498ZM167.47 40.5458L168.078 38.0178L166.134 37.5502L165.526 40.0782L167.47 40.5458ZM166.86 38.7532L168.748 39.2332L169.24 37.2948L167.352 36.8148L166.86 38.7532ZM167.994 38.264V45.784H169.994V38.264H167.994ZM167.994 45.784C167.994 45.9085 167.964 45.9441 167.935 45.9729L169.349 47.3871C169.79 46.9466 169.994 46.3848 169.994 45.784H167.994ZM167.969 45.9401C167.945 45.962 167.898 46 167.746 46V48C168.319 48 168.869 47.8247 169.315 47.4199L167.969 45.9401ZM174.81 36.216L173.811 36.1677L173.761 37.216H174.81V36.216ZM175.834 32.664L174.981 32.1418L174.977 32.1482L174.974 32.1547L175.834 32.664ZM178.298 30.2L177.794 29.3362L177.786 29.3409L178.298 30.2ZM184.57 30.936L185.536 31.1937L185.54 31.1816L185.543 31.1694L184.57 30.936ZM184.122 31.576L183.675 30.6816L183.656 30.6913L183.637 30.7018L184.122 31.576ZM183.386 31.704L183.31 32.7011L183.315 32.7015L183.386 31.704ZM182.426 31.64L182.337 32.636L182.352 32.6374L182.368 32.6383L182.426 31.64ZM179.226 32.024L179.575 32.9613L179.587 32.9568L179.226 32.024ZM177.018 33.624L176.224 33.0166L176.218 33.024L176.213 33.0316L177.018 33.624ZM176.218 36.216V37.216H177.218V36.216H176.218ZM174.106 46.68L173.399 47.3871V47.3871L174.106 46.68ZM174.106 29.816L174.813 30.5231V30.5231L174.106 29.816ZM175.898 29.816L175.191 30.5231V30.5231L175.898 29.816ZM175.898 46.68L175.191 45.9729L175.898 46.68ZM175.809 36.2643C175.866 35.0893 176.166 34.0662 176.695 33.1733L174.974 32.1547C174.265 33.3525 173.883 34.6974 173.811 36.1677L175.809 36.2643ZM176.687 33.1862C177.247 32.272 177.954 31.5692 178.81 31.0591L177.786 29.3409C176.637 30.0254 175.702 30.9654 174.981 32.1418L176.687 33.1862ZM178.802 31.0638C179.666 30.5596 180.622 30.304 181.69 30.304V28.304C180.284 28.304 178.978 28.6457 177.794 29.3362L178.802 31.0638ZM181.69 30.304C182.601 30.304 183.173 30.4367 183.501 30.6072L184.424 28.8328C183.685 28.4487 182.742 28.304 181.69 28.304V30.304ZM183.501 30.6072C183.641 30.6801 183.639 30.7183 183.62 30.6792C183.611 30.6612 183.608 30.645 183.607 30.6393C183.607 30.6361 183.609 30.6551 183.598 30.7026L185.543 31.1694C185.65 30.7239 185.636 30.24 185.409 29.7848C185.186 29.3404 184.817 29.0373 184.424 28.8328L183.501 30.6072ZM183.604 30.6783C183.584 30.7546 183.567 30.7738 183.575 30.7625C183.58 30.756 183.59 30.7424 183.609 30.7262C183.627 30.7097 183.65 30.6942 183.675 30.6816L184.569 32.4704C185.127 32.1917 185.407 31.6788 185.536 31.1937L183.604 30.6783ZM183.637 30.7018C183.666 30.6857 183.631 30.7189 183.457 30.7065L183.315 32.7015C183.739 32.7317 184.195 32.6796 184.608 32.4502L183.637 30.7018ZM183.463 30.7069C183.178 30.685 182.852 30.6633 182.485 30.6417L182.368 32.6383C182.726 32.6594 183.04 32.6803 183.31 32.7011L183.463 30.7069ZM182.515 30.644C181.197 30.5263 179.972 30.6637 178.866 31.0912L179.587 32.9568C180.357 32.659 181.266 32.5404 182.337 32.636L182.515 30.644ZM178.878 31.0868C177.797 31.4889 176.901 32.1306 176.224 33.0166L177.813 34.2314C178.244 33.6667 178.821 33.2418 179.575 32.9612L178.878 31.0868ZM176.213 33.0316C175.539 33.9481 175.218 35.0256 175.218 36.216H177.218C177.218 35.401 177.431 34.7506 177.824 34.2164L176.213 33.0316ZM176.218 35.216H174.81V37.216H176.218V35.216ZM175.002 46C174.901 46 174.848 45.9859 174.827 45.9783C174.816 45.9746 174.812 45.972 174.812 45.972C174.812 45.9719 174.812 45.972 174.813 45.9724C174.813 45.9728 174.813 45.973 174.813 45.9729L173.399 47.3871C173.848 47.8356 174.429 48 175.002 48V46ZM174.813 45.9729C174.813 45.9728 174.813 45.973 174.814 45.9735C174.814 45.9739 174.814 45.9742 174.814 45.974C174.814 45.974 174.812 45.97 174.808 45.9597C174.8 45.9383 174.786 45.8848 174.786 45.784H172.786C172.786 46.3573 172.951 46.9386 173.399 47.3871L174.813 45.9729ZM174.786 45.784V30.712H172.786V45.784H174.786ZM174.786 30.712C174.786 30.6112 174.8 30.5577 174.808 30.5363C174.812 30.526 174.814 30.522 174.814 30.522C174.814 30.5218 174.814 30.5221 174.814 30.5225C174.813 30.523 174.813 30.5232 174.813 30.5231L173.399 29.1089C172.951 29.5574 172.786 30.1387 172.786 30.712H174.786ZM174.813 30.5231C174.813 30.523 174.813 30.5232 174.813 30.5236C174.812 30.524 174.812 30.5241 174.812 30.524C174.812 30.524 174.816 30.5214 174.827 30.5177C174.848 30.5101 174.901 30.496 175.002 30.496V28.496C174.429 28.496 173.848 28.6604 173.399 29.1089L174.813 30.5231ZM175.002 30.496C175.103 30.496 175.157 30.5101 175.178 30.5177C175.188 30.5214 175.192 30.524 175.192 30.524C175.192 30.5241 175.192 30.524 175.192 30.5236C175.191 30.5232 175.191 30.523 175.191 30.5231L176.605 29.1089C176.157 28.6604 175.576 28.496 175.002 28.496V30.496ZM175.191 30.5231C175.191 30.5232 175.191 30.523 175.191 30.5225C175.19 30.5221 175.19 30.5218 175.19 30.522C175.19 30.522 175.193 30.526 175.197 30.5363C175.204 30.5577 175.218 30.6112 175.218 30.712H177.218C177.218 30.1387 177.054 29.5574 176.605 29.1089L175.191 30.5231ZM175.218 30.712V45.784H177.218V30.712H175.218ZM175.218 45.784C175.218 45.8848 175.204 45.9383 175.197 45.9597C175.193 45.97 175.19 45.974 175.19 45.974C175.19 45.9742 175.19 45.9739 175.191 45.9735C175.191 45.973 175.191 45.9728 175.191 45.9729L176.605 47.3871C177.054 46.9386 177.218 46.3573 177.218 45.784H175.218ZM175.191 45.9729C175.191 45.973 175.191 45.9728 175.192 45.9724C175.192 45.972 175.192 45.9719 175.192 45.972C175.192 45.972 175.188 45.9746 175.178 45.9783C175.157 45.9859 175.103 46 175.002 46V48C175.576 48 176.157 47.8356 176.605 47.3871L175.191 45.9729ZM198.49 46.648L199.197 45.9409L198.49 46.648ZM198.49 22.36L199.197 23.0671V23.0671L198.49 22.36ZM209.978 23.064L209.476 23.9295L209.488 23.936L209.978 23.064ZM212.826 34.296L213.694 34.7922L213.697 34.7855L212.826 34.296ZM209.978 37.144L210.467 38.0161L210.479 38.0094L209.978 37.144ZM200.633 38.168V37.168H199.633V38.168H200.633ZM200.281 46.648L200.989 47.3551L200.281 46.648ZM200.633 35.768H199.633V36.768H200.633V35.768ZM208.697 35.064L209.179 35.9402L209.188 35.9356L209.196 35.9309L208.697 35.064ZM210.682 33.048L209.815 32.5495L209.81 32.5578L209.805 32.5661L210.682 33.048ZM210.682 27.16L209.805 27.6419L209.81 27.6502L209.815 27.6585L210.682 27.16ZM208.697 25.144L208.199 26.0109V26.0109L208.697 25.144ZM200.633 24.408V23.408H199.633V24.408H200.633ZM199.385 46C199.261 46 199.225 45.9697 199.197 45.9409L197.782 47.3551C198.223 47.7956 198.785 48 199.385 48V46ZM199.197 45.9409C199.168 45.9121 199.137 45.8765 199.137 45.752H197.137C197.137 46.3528 197.342 46.9146 197.782 47.3551L199.197 45.9409ZM199.137 45.752V23.256H197.137V45.752H199.137ZM199.137 23.256C199.137 23.1315 199.168 23.0959 199.197 23.0671L197.782 21.6529C197.342 22.0934 197.137 22.6552 197.137 23.256H199.137ZM199.197 23.0671C199.225 23.0383 199.261 23.008 199.385 23.008V21.008C198.785 21.008 198.223 21.2124 197.782 21.6529L199.197 23.0671ZM199.385 23.008H205.786V21.008H199.385V23.008ZM205.786 23.008C207.21 23.008 208.431 23.3241 209.476 23.9294L210.479 22.1986C209.092 21.3959 207.518 21.008 205.786 21.008V23.008ZM209.488 23.936C210.544 24.5287 211.361 25.3457 211.954 26.4015L213.697 25.4225C212.925 24.0463 211.843 22.9646 210.467 22.192L209.488 23.936ZM211.954 26.4015C212.541 27.4472 212.85 28.6819 212.85 30.136H214.85C214.85 28.3901 214.476 26.8088 213.697 25.4225L211.954 26.4015ZM212.85 30.136C212.85 31.5423 212.543 32.7568 211.954 33.8065L213.697 34.7855C214.474 33.4032 214.85 31.8444 214.85 30.136H212.85ZM211.957 33.7999C211.364 34.8378 210.543 35.6611 209.476 36.2786L210.479 38.0094C211.844 37.2189 212.922 36.1435 213.694 34.7921L211.957 33.7999ZM209.488 36.272C208.44 36.8602 207.216 37.168 205.786 37.168V39.168C207.513 39.168 209.083 38.7932 210.467 38.016L209.488 36.272ZM205.786 37.168H200.633V39.168H205.786V37.168ZM199.633 38.168V45.752H201.633V38.168H199.633ZM199.633 45.752C199.633 45.8765 199.603 45.9121 199.574 45.9409L200.989 47.3551C201.429 46.9146 201.633 46.3528 201.633 45.752H199.633ZM199.574 45.9409C199.546 45.9697 199.51 46 199.385 46V48C199.986 48 200.548 47.7956 200.989 47.3551L199.574 45.9409ZM200.633 36.768H205.786V34.768H200.633V36.768ZM205.786 36.768C207.022 36.768 208.162 36.4999 209.179 35.9402L208.216 34.1878C207.527 34.5667 206.725 34.768 205.786 34.768V36.768ZM209.196 35.9309C210.206 35.35 210.999 34.5456 211.558 33.5299L209.805 32.5661C209.425 33.2571 208.895 33.7967 208.199 34.1971L209.196 35.9309ZM211.548 33.5465C212.135 32.5259 212.417 31.38 212.417 30.136H210.417C210.417 31.068 210.209 31.8634 209.815 32.5495L211.548 33.5465ZM212.417 30.136C212.417 28.8568 212.139 27.6878 211.548 26.6615L209.815 27.6585C210.206 28.3388 210.417 29.1539 210.417 30.136H212.417ZM211.558 26.6781C210.999 25.6624 210.206 24.858 209.196 24.2771L208.199 26.0109C208.895 26.4113 209.425 26.9509 209.805 27.6419L211.558 26.6781ZM209.196 24.2771C208.175 23.6903 207.03 23.408 205.786 23.408V25.408C206.717 25.408 207.513 25.6164 208.199 26.0109L209.196 24.2771ZM205.786 23.408H200.633V25.408H205.786V23.408ZM199.633 24.408V35.768H201.633V24.408H199.633ZM220.114 46.04L219.612 46.9048L219.62 46.9096L219.629 46.9142L220.114 46.04ZM216.978 42.872L216.104 43.3577L216.11 43.3681L216.978 42.872ZM216.914 33.656L216.034 33.1811L216.032 33.1862L216.914 33.656ZM219.89 30.488L220.411 31.3416L219.89 30.488ZM228.466 30.456L227.936 31.304L227.945 31.3095L227.954 31.3148L228.466 30.456ZM231.282 33.496L232.174 33.0429L231.282 33.496ZM231.954 38.776L232.623 39.5193L232.643 39.5017L232.661 39.4831L231.954 38.776ZM217.522 39.064H216.522V40.064H217.522V39.064ZM217.522 37.016V36.016H216.522V37.016H217.522ZM231.378 37.016L231.963 37.8272L234.475 36.016H231.378V37.016ZM230.002 38.008L229.002 37.9908L228.968 39.9864L230.587 38.8192L230.002 38.008ZM229.33 34.68L230.232 34.2485L229.33 34.68ZM227.314 32.376L226.769 33.2145L226.779 33.2205L227.314 32.376ZM221.042 32.408L220.51 31.5611L221.042 32.408ZM218.898 34.808L218.004 34.3608L218 34.3684L218.898 34.808ZM218.994 41.72L218.119 42.2041L218.123 42.2111L218.127 42.2181L218.994 41.72ZM221.33 44.088L220.824 44.9504V44.9504L221.33 44.088ZM227.026 44.568L227.342 45.5167L227.35 45.5141L227.358 45.5115L227.026 44.568ZM228.914 43.544L228.281 42.77L228.271 42.7785L228.261 42.7872L228.914 43.544ZM229.714 43.256V44.256H229.75L229.785 44.2535L229.714 43.256ZM230.482 43.48L231.161 42.7452L231.135 42.7212L231.107 42.6991L230.482 43.48ZM230.898 44.312H229.898V44.3477L229.901 44.3832L230.898 44.312ZM230.546 45.08L229.906 44.3117L229.899 44.3175L230.546 45.08ZM227.858 46.584L228.191 47.527L228.199 47.5241L228.207 47.5211L227.858 46.584ZM224.722 46.16C223.143 46.16 221.778 45.8202 220.6 45.1658L219.629 46.9142C221.139 47.7532 222.846 48.16 224.722 48.16V46.16ZM220.616 45.1752C219.448 44.4968 218.528 43.5688 217.846 42.3759L216.11 43.3681C216.964 44.8632 218.135 46.0472 219.612 46.9048L220.616 45.1752ZM217.852 42.3864C217.198 41.2086 216.858 39.8435 216.858 38.264H214.858C214.858 40.1405 215.265 41.8474 216.104 43.3576L217.852 42.3864ZM216.858 38.264C216.858 36.651 217.182 35.2814 217.797 34.1258L216.032 33.1862C215.239 34.6759 214.858 36.3783 214.858 38.264H216.858ZM217.794 34.1309C218.439 32.9369 219.309 32.014 220.411 31.3416L219.369 29.6344C217.954 30.498 216.84 31.6871 216.034 33.1811L217.794 34.1309ZM220.411 31.3416C221.495 30.68 222.762 30.336 224.242 30.336V28.336C222.437 28.336 220.802 28.76 219.369 29.6344L220.411 31.3416ZM224.242 30.336C225.705 30.336 226.923 30.6709 227.936 31.304L228.996 29.608C227.62 28.7477 226.022 28.336 224.242 28.336V30.336ZM227.954 31.3148C229.003 31.9403 229.812 32.8106 230.391 33.949L232.174 33.0429C231.43 31.5788 230.362 30.4224 228.979 29.5972L227.954 31.3148ZM230.391 33.949C230.971 35.0915 231.274 36.4153 231.274 37.944H233.274C233.274 36.1447 232.916 34.5032 232.174 33.0429L230.391 33.949ZM231.274 37.944C231.274 38.01 231.264 38.0406 231.261 38.049C231.259 38.055 231.256 38.0596 231.247 38.0689L232.661 39.4831C233.087 39.057 233.274 38.5126 233.274 37.944H231.274ZM231.285 38.0327C231.28 38.0373 231.274 38.0417 231.259 38.047C231.241 38.0532 231.199 38.064 231.122 38.064V40.064C231.661 40.064 232.193 39.9069 232.623 39.5193L231.285 38.0327ZM231.122 38.064H217.522V40.064H231.122V38.064ZM218.522 39.064V37.016H216.522V39.064H218.522ZM217.522 38.016H231.378V36.016H217.522V38.016ZM230.793 36.2048L229.417 37.1968L230.587 38.8192L231.963 37.8272L230.793 36.2048ZM231.002 38.0252C231.026 36.6543 230.777 35.388 230.232 34.2485L228.428 35.1115C228.822 35.9347 229.021 36.8871 229.002 37.9908L231.002 38.0252ZM230.232 34.2485C229.686 33.1068 228.891 32.1919 227.85 31.5315L226.779 33.2205C227.487 33.6695 228.036 34.2906 228.428 35.1115L230.232 34.2485ZM227.859 31.5376C226.817 30.8602 225.596 30.544 224.242 30.544V32.544C225.278 32.544 226.105 32.7825 226.769 33.2144L227.859 31.5376ZM224.242 30.544C222.862 30.544 221.606 30.8732 220.51 31.5611L221.574 33.2549C222.313 32.7908 223.191 32.544 224.242 32.544V30.544ZM220.51 31.5611C219.429 32.2402 218.593 33.1826 218.004 34.3608L219.793 35.2552C220.228 34.3854 220.821 33.7278 221.574 33.2549L220.51 31.5611ZM218 34.3684C217.432 35.5289 217.162 36.8355 217.162 38.264H219.162C219.162 37.0898 219.383 36.0924 219.796 35.2476L218 34.3684ZM217.162 38.264C217.162 39.7114 217.472 41.0341 218.119 42.2041L219.869 41.2359C219.407 40.4006 219.162 39.4193 219.162 38.264H217.162ZM218.127 42.2181C218.788 43.369 219.69 44.2849 220.824 44.9504L221.836 43.2256C221.008 42.7391 220.352 42.0764 219.861 41.2219L218.127 42.2181ZM220.824 44.9504C221.977 45.6273 223.287 45.952 224.722 45.952V43.952C223.598 43.952 222.646 43.7007 221.836 43.2256L220.824 44.9504ZM224.722 45.952C225.603 45.952 226.478 45.8048 227.342 45.5167L226.71 43.6193C226.038 43.8432 225.377 43.952 224.722 43.952V45.952ZM227.358 45.5115C228.226 45.2062 228.977 44.8111 229.568 44.3008L228.261 42.7872C227.913 43.0876 227.405 43.3751 226.695 43.6245L227.358 45.5115ZM229.547 44.318C229.606 44.2697 229.65 44.256 229.714 44.256V42.256C229.181 42.256 228.691 42.4343 228.281 42.77L229.547 44.318ZM229.785 44.2535C229.831 44.2502 229.849 44.2557 229.85 44.256C229.851 44.2562 229.851 44.2563 229.851 44.2563C229.851 44.2562 229.851 44.2562 229.851 44.2562C229.851 44.2562 229.852 44.2565 229.852 44.2571C229.853 44.2577 229.855 44.2589 229.858 44.2609L231.107 42.6991C230.678 42.3556 230.166 42.2212 229.643 42.2585L229.785 44.2535ZM229.804 44.2148C229.873 44.2781 229.895 44.3173 229.9 44.3272C229.902 44.3318 229.901 44.3312 229.9 44.3261C229.899 44.3208 229.898 44.3155 229.898 44.312H231.898C231.898 43.6644 231.585 43.1373 231.161 42.7452L229.804 44.2148ZM229.901 44.3832C229.901 44.3823 229.9 44.3728 229.903 44.3575C229.906 44.3418 229.911 44.3257 229.917 44.3113C229.931 44.2809 229.94 44.2834 229.906 44.3118L231.186 45.8482C231.657 45.4558 231.943 44.9003 231.896 44.2408L229.901 44.3832ZM229.899 44.3175C229.303 44.8233 228.515 45.2721 227.509 45.6469L228.207 47.5211C229.377 47.0853 230.381 46.5314 231.193 45.8425L229.899 44.3175ZM227.525 45.641C226.528 45.9929 225.596 46.16 224.722 46.16V48.16C225.854 48.16 227.012 47.9431 228.191 47.527L227.525 45.641ZM237.467 36.216L236.468 36.1677L236.417 37.216H237.467V36.216ZM238.49 32.664L237.638 32.1418L237.634 32.1482L237.63 32.1547L238.49 32.664ZM240.954 30.2L240.451 29.3362L240.443 29.3409L240.954 30.2ZM247.227 30.936L248.193 31.1937L248.196 31.1816L248.199 31.1694L247.227 30.936ZM246.779 31.576L246.331 30.6816L246.312 30.6913L246.293 30.7018L246.779 31.576ZM246.042 31.704L245.966 32.7011L245.971 32.7015L246.042 31.704ZM245.083 31.64L244.994 32.636L245.009 32.6374L245.024 32.6383L245.083 31.64ZM241.883 32.024L242.231 32.9613L242.243 32.9568L241.883 32.024ZM239.674 33.624L238.88 33.0166L238.874 33.024L238.869 33.0316L239.674 33.624ZM238.874 36.216V37.216H239.874V36.216H238.874ZM236.762 46.68L236.055 47.3871V47.3871L236.762 46.68ZM236.762 29.816L237.47 30.5231V30.5231L236.762 29.816ZM238.555 29.816L237.847 30.5231V30.5231L238.555 29.816ZM238.555 46.68L237.847 45.9729L238.555 46.68ZM238.465 36.2643C238.522 35.0893 238.823 34.0662 239.351 33.1733L237.63 32.1547C236.921 33.3525 236.539 34.6974 236.468 36.1677L238.465 36.2643ZM239.343 33.1862C239.903 32.272 240.61 31.5692 241.466 31.0591L240.443 29.3409C239.294 30.0254 238.358 30.9654 237.638 32.1418L239.343 33.1862ZM241.458 31.0638C242.323 30.5596 243.278 30.304 244.346 30.304V28.304C242.94 28.304 241.634 28.6457 240.451 29.3362L241.458 31.0638ZM244.346 30.304C245.257 30.304 245.829 30.4367 246.157 30.6072L247.08 28.8328C246.341 28.4487 245.398 28.304 244.346 28.304V30.304ZM246.157 30.6072C246.297 30.6801 246.296 30.7183 246.276 30.6792C246.267 30.6612 246.264 30.645 246.264 30.6393C246.263 30.6361 246.266 30.6551 246.254 30.7026L248.199 31.1694C248.306 30.7239 248.293 30.24 248.065 29.7848C247.843 29.3404 247.473 29.0373 247.08 28.8328L246.157 30.6072ZM246.26 30.6783C246.24 30.7546 246.223 30.7738 246.231 30.7625C246.236 30.756 246.247 30.7424 246.265 30.7262C246.284 30.7097 246.306 30.6942 246.331 30.6816L247.226 32.4704C247.783 32.1917 248.063 31.6788 248.193 31.1937L246.26 30.6783ZM246.293 30.7018C246.322 30.6857 246.287 30.7189 246.114 30.7065L245.971 32.7015C246.395 32.7317 246.851 32.6796 247.264 32.4502L246.293 30.7018ZM246.119 30.7069C245.834 30.685 245.508 30.6633 245.141 30.6417L245.024 32.6383C245.382 32.6594 245.696 32.6803 245.966 32.7011L246.119 30.7069ZM245.171 30.644C243.853 30.5263 242.629 30.6637 241.522 31.0912L242.243 32.9568C243.014 32.659 243.923 32.5404 244.994 32.636L245.171 30.644ZM241.534 31.0868C240.453 31.4889 239.558 32.1306 238.88 33.0166L240.469 34.2314C240.901 33.6667 241.477 33.2418 242.231 32.9612L241.534 31.0868ZM238.869 33.0316C238.195 33.9481 237.874 35.0256 237.874 36.216H239.874C239.874 35.401 240.087 34.7506 240.48 34.2164L238.869 33.0316ZM238.874 35.216H237.467V37.216H238.874V35.216ZM237.658 46C237.558 46 237.504 45.9859 237.483 45.9783C237.473 45.9746 237.469 45.972 237.469 45.972C237.468 45.9719 237.469 45.972 237.469 45.9724C237.469 45.9728 237.47 45.973 237.47 45.9729L236.055 47.3871C236.504 47.8356 237.085 48 237.658 48V46ZM237.47 45.9729C237.47 45.9728 237.47 45.973 237.47 45.9735C237.47 45.9739 237.471 45.9742 237.471 45.974C237.47 45.974 237.468 45.97 237.464 45.9597C237.457 45.9383 237.443 45.8848 237.443 45.784H235.443C235.443 46.3573 235.607 46.9386 236.055 47.3871L237.47 45.9729ZM237.443 45.784V30.712H235.443V45.784H237.443ZM237.443 30.712C237.443 30.6112 237.457 30.5577 237.464 30.5363C237.468 30.526 237.47 30.522 237.471 30.522C237.471 30.5218 237.47 30.5221 237.47 30.5225C237.47 30.523 237.47 30.5232 237.47 30.5231L236.055 29.1089C235.607 29.5574 235.443 30.1387 235.443 30.712H237.443ZM237.47 30.5231C237.47 30.523 237.469 30.5232 237.469 30.5236C237.469 30.524 237.468 30.5241 237.469 30.524C237.469 30.524 237.473 30.5214 237.483 30.5177C237.504 30.5101 237.558 30.496 237.658 30.496V28.496C237.085 28.496 236.504 28.6604 236.055 29.1089L237.47 30.5231ZM237.658 30.496C237.759 30.496 237.813 30.5101 237.834 30.5177C237.844 30.5214 237.848 30.524 237.848 30.524C237.849 30.5241 237.848 30.524 237.848 30.5236C237.848 30.5232 237.847 30.523 237.847 30.5231L239.262 29.1089C238.813 28.6604 238.232 28.496 237.658 28.496V30.496ZM237.847 30.5231C237.847 30.5232 237.847 30.523 237.847 30.5225C237.847 30.5221 237.846 30.5218 237.846 30.522C237.847 30.522 237.849 30.526 237.853 30.5363C237.86 30.5577 237.874 30.6112 237.874 30.712H239.874C239.874 30.1387 239.71 29.5574 239.262 29.1089L237.847 30.5231ZM237.874 30.712V45.784H239.874V30.712H237.874ZM237.874 45.784C237.874 45.8848 237.86 45.9383 237.853 45.9597C237.849 45.97 237.847 45.974 237.846 45.974C237.846 45.9742 237.847 45.9739 237.847 45.9735C237.847 45.973 237.847 45.9728 237.847 45.9729L239.262 47.3871C239.71 46.9386 239.874 46.3573 239.874 45.784H237.874ZM237.847 45.9729C237.847 45.973 237.848 45.9728 237.848 45.9724C237.848 45.972 237.849 45.9719 237.848 45.972C237.848 45.972 237.844 45.9746 237.834 45.9783C237.813 45.9859 237.759 46 237.658 46V48C238.232 48 238.813 47.8356 239.262 47.3871L237.847 45.9729ZM252.443 46.648L251.736 47.3551L252.443 46.648ZM252.827 25.528L251.919 25.1089L251.915 25.1162L251.912 25.1235L252.827 25.528ZM255.259 22.904L255.758 23.7702L255.765 23.7666L255.771 23.7629L255.259 22.904ZM262.139 22.2L262.381 21.2299V21.2299L262.139 22.2ZM263.995 23.032L263.383 23.8233L263.403 23.8386L263.424 23.8529L263.995 23.032ZM262.171 25.432L261.63 26.2732L261.652 26.2873L261.675 26.3002L262.171 25.432ZM261.243 24.792L260.592 25.5513L260.621 25.576L260.651 25.5984L261.243 24.792ZM260.251 24.152L259.783 25.0358L259.804 25.0468L259.825 25.0568L260.251 24.152ZM256.667 24.376L257.125 25.2646V25.2646L256.667 24.376ZM255.099 26.104L254.195 25.6759L254.19 25.6865L255.099 26.104ZM254.203 46.648L253.496 45.9409H253.496L254.203 46.648ZM249.211 31.992L248.467 32.661L248.503 32.7001L248.542 32.7353L249.211 31.992ZM249.211 30.456L248.504 29.7489V29.7489L249.211 30.456ZM259.227 30.456L258.52 31.1631L258.538 31.1817L258.558 31.1993L259.227 30.456ZM259.227 31.992L259.896 32.7353L259.915 32.7177L259.934 32.6991L259.227 31.992ZM262.299 46.68L261.559 47.3527L261.591 47.3879L261.626 47.4199L262.299 46.68ZM262.299 29.848L263.006 30.5551V30.5551L262.299 29.848ZM264.091 29.848L263.351 30.5207L263.383 30.5559L263.418 30.5879L264.091 29.848ZM264.091 46.68L263.384 45.9729H263.384L264.091 46.68ZM253.307 46C253.222 46 253.191 45.9821 253.15 45.9409L251.736 47.3551C252.164 47.7832 252.709 48 253.307 48V46ZM253.15 45.9409C253.121 45.9121 253.091 45.8765 253.091 45.752H251.091C251.091 46.3528 251.295 46.9146 251.736 47.3551L253.15 45.9409ZM253.091 45.752V29.336H251.091V45.752H253.091ZM253.091 29.336C253.091 28.0214 253.316 26.8938 253.741 25.9325L251.912 25.1235C251.356 26.3809 251.091 27.7919 251.091 29.336H253.091ZM253.735 25.9471C254.156 25.0348 254.819 24.3122 255.758 23.7702L254.759 22.0378C253.48 22.7758 252.522 23.8026 251.919 25.1089L253.735 25.9471ZM255.771 23.7629C256.672 23.2257 257.957 22.912 259.707 22.912V20.912C257.745 20.912 256.064 21.2596 254.747 22.0451L255.771 23.7629ZM259.707 22.912C260.485 22.912 261.213 22.9994 261.896 23.1701L262.381 21.2299C261.528 21.0166 260.636 20.912 259.707 20.912V22.912ZM261.896 23.1701C262.573 23.3393 263.053 23.5683 263.383 23.8233L264.606 22.2407C263.998 21.7704 263.241 21.4447 262.381 21.2299L261.896 23.1701ZM263.424 23.8529C263.697 24.0433 263.731 24.1857 263.731 24.312H265.731C265.731 23.4143 265.273 22.7034 264.566 22.2111L263.424 23.8529ZM263.731 24.312C263.731 24.4488 263.711 24.5244 263.698 24.5589C263.687 24.5874 263.68 24.5917 263.679 24.5924C263.673 24.5978 263.561 24.688 263.163 24.688V26.688C263.81 26.688 264.482 26.5489 264.998 26.0956C265.54 25.6205 265.731 24.9612 265.731 24.312H263.731ZM263.163 24.688C262.964 24.688 262.806 24.6433 262.667 24.5638L261.675 26.3002C262.133 26.562 262.636 26.688 263.163 26.688V24.688ZM262.712 24.5908C262.432 24.4111 262.139 24.2095 261.834 23.9856L260.651 25.5984C260.986 25.8438 261.312 26.0689 261.63 26.2732L262.712 24.5908ZM261.894 24.0327C261.525 23.7172 261.119 23.4553 260.677 23.2472L259.825 25.0568C260.108 25.19 260.363 25.3548 260.592 25.5513L261.894 24.0327ZM260.719 23.2682C260.18 22.9833 259.574 22.864 258.939 22.864V24.864C259.327 24.864 259.596 24.9367 259.783 25.0358L260.719 23.2682ZM258.939 22.864C257.949 22.864 257.031 23.0628 256.208 23.4874L257.125 25.2646C257.625 25.0066 258.221 24.864 258.939 24.864V22.864ZM256.208 23.4874C255.314 23.9486 254.653 24.709 254.195 25.6759L256.002 26.5321C256.312 25.8777 256.696 25.486 257.125 25.2646L256.208 23.4874ZM254.19 25.6865C253.743 26.6603 253.555 27.9002 253.555 29.336H255.555C255.555 28.0411 255.73 27.1263 256.007 26.5215L254.19 25.6865ZM253.555 29.336V45.752H255.555V29.336H253.555ZM253.555 45.752C253.555 45.8765 253.524 45.9121 253.496 45.9409L254.91 47.3551C255.35 46.9146 255.555 46.3528 255.555 45.752H253.555ZM253.496 45.9409C253.467 45.9697 253.431 46 253.307 46V48C253.908 48 254.469 47.7956 254.91 47.3551L253.496 45.9409ZM250.043 31.28C249.966 31.28 249.924 31.2692 249.906 31.263C249.891 31.2577 249.885 31.2533 249.88 31.2487L248.542 32.7353C248.972 33.1229 249.504 33.28 250.043 33.28V31.28ZM249.954 31.323C249.937 31.3046 249.933 31.294 249.931 31.2889C249.929 31.2831 249.923 31.2645 249.923 31.224H247.923C247.923 31.7587 248.103 32.256 248.467 32.661L249.954 31.323ZM249.923 31.224C249.923 31.1639 249.932 31.1415 249.931 31.1431C249.931 31.1438 249.929 31.1475 249.926 31.1528C249.923 31.158 249.919 31.1616 249.918 31.1631L248.504 29.7489C248.091 30.1616 247.923 30.6897 247.923 31.224H249.923ZM249.918 31.1631C249.927 31.1538 249.932 31.1517 249.938 31.1493C249.946 31.1461 249.977 31.136 250.043 31.136V29.136C249.474 29.136 248.93 29.3228 248.504 29.7489L249.918 31.1631ZM250.043 31.136H258.427V29.136H250.043V31.136ZM258.427 31.136C258.474 31.136 258.493 31.1435 258.495 31.1445C258.497 31.1453 258.499 31.1463 258.502 31.148C258.505 31.1499 258.511 31.1542 258.52 31.1631L259.934 29.7489C259.521 29.3358 258.994 29.136 258.427 29.136V31.136ZM258.558 31.1993C258.559 31.2008 258.557 31.1988 258.553 31.1932C258.549 31.1876 258.546 31.1815 258.544 31.1766C258.542 31.1719 258.542 31.1717 258.543 31.1781C258.545 31.1848 258.547 31.1995 258.547 31.224H260.547C260.547 30.6568 260.345 30.1173 259.896 29.7127L258.558 31.1993ZM258.547 31.224C258.547 31.2389 258.545 31.2475 258.545 31.2512C258.544 31.2531 258.544 31.2542 258.544 31.2547C258.544 31.2551 258.544 31.2553 258.544 31.2554C258.544 31.2555 258.544 31.2558 258.543 31.2565C258.543 31.2572 258.542 31.2586 258.541 31.2607C258.538 31.2647 258.532 31.2729 258.52 31.2849L259.934 32.6991C260.333 32.3004 260.547 31.7909 260.547 31.224H258.547ZM258.558 31.2487C258.55 31.2561 258.53 31.28 258.427 31.28V33.28C258.963 33.28 259.477 33.1119 259.896 32.7353L258.558 31.2487ZM258.427 31.28H250.043V33.28H258.427V31.28ZM263.227 46C263.036 46 262.985 45.9523 262.971 45.9401L261.626 47.4199C262.082 47.8343 262.649 48 263.227 48V46ZM263.039 46.0073C263.026 45.9938 262.979 45.9424 262.979 45.752H260.979C260.979 46.3296 261.144 46.8968 261.559 47.3527L263.039 46.0073ZM262.979 45.752V30.744H260.979V45.752H262.979ZM262.979 30.744C262.979 30.6432 262.993 30.5897 263 30.5683C263.004 30.558 263.007 30.554 263.007 30.554C263.007 30.5538 263.007 30.5541 263.006 30.5545C263.006 30.555 263.006 30.5552 263.006 30.5551L261.592 29.1409C261.143 29.5894 260.979 30.1707 260.979 30.744H262.979ZM263.006 30.5551C263.023 30.5376 263.063 30.496 263.227 30.496V28.496C262.623 28.496 262.043 28.689 261.592 29.1409L263.006 30.5551ZM263.227 30.496C263.3 30.496 263.331 30.5076 263.337 30.5101C263.341 30.5115 263.342 30.5123 263.342 30.5124C263.342 30.5126 263.345 30.5146 263.351 30.5207L264.831 29.1753C264.4 28.7013 263.827 28.496 263.227 28.496V30.496ZM263.418 30.5879C263.42 30.5901 263.421 30.5895 263.424 30.5977C263.429 30.6101 263.443 30.6531 263.443 30.744H265.443C265.443 30.1426 265.25 29.5503 264.763 29.1081L263.418 30.5879ZM263.443 30.744V45.752H265.443V30.744H263.443ZM263.443 45.752C263.443 45.9159 263.401 45.9554 263.384 45.9729L264.798 47.3871C265.25 46.9353 265.443 46.3561 265.443 45.752H263.443ZM263.384 45.9729C263.381 45.9758 263.379 45.978 263.367 45.9823C263.353 45.9877 263.311 46 263.227 46V48C263.797 48 264.36 47.825 264.798 47.3871L263.384 45.9729ZM271.977 46.296L271.398 47.1115L271.404 47.1158L271.41 47.12L271.977 46.296ZM270.409 44.344L269.492 44.7436L269.497 44.7534L269.501 44.7631L270.409 44.344ZM270.185 22.36L269.478 21.6529V21.6529L270.185 22.36ZM271.945 22.36L271.205 23.0327L271.237 23.0679L271.272 23.0999L271.945 22.36ZM272.841 43.704L271.995 44.2368L272.002 44.2478L272.009 44.2587L272.841 43.704ZM275.849 44.92L275.075 45.5532L275.09 45.5715L275.106 45.589L275.849 44.92ZM275.721 46.68L276.361 47.4482L276.367 47.4434L275.721 46.68ZM274.281 46C273.624 46 273.054 45.8231 272.544 45.472L271.41 47.12C272.265 47.7076 273.232 48 274.281 48V46ZM272.556 45.4805C272.055 45.1249 271.637 44.6193 271.317 43.9249L269.501 44.7631C269.949 45.7327 270.577 46.5285 271.398 47.1115L272.556 45.4805ZM271.326 43.9444C271.028 43.2609 270.865 42.4413 270.865 41.464H268.865C268.865 42.6627 269.065 43.7631 269.492 44.7436L271.326 43.9444ZM270.865 41.464V23.224H268.865V41.464H270.865ZM270.865 23.224C270.865 23.1402 270.877 23.098 270.883 23.0833C270.887 23.072 270.889 23.07 270.892 23.0671L269.478 21.6529C269.04 22.0907 268.865 22.6534 268.865 23.224H270.865ZM270.892 23.0671C270.921 23.0383 270.956 23.008 271.081 23.008V21.008C270.48 21.008 269.918 21.2124 269.478 21.6529L270.892 23.0671ZM271.081 23.008C271.154 23.008 271.186 23.0196 271.192 23.0221C271.195 23.0235 271.196 23.0243 271.196 23.0244C271.197 23.0246 271.2 23.0266 271.205 23.0327L272.685 21.6873C272.254 21.2133 271.681 21.008 271.081 21.008V23.008ZM271.272 23.0999C271.278 23.1055 271.28 23.1084 271.281 23.1086C271.281 23.1088 271.281 23.1098 271.283 23.1133C271.285 23.1193 271.297 23.1508 271.297 23.224H273.297C273.297 22.6242 273.092 22.051 272.618 21.6201L271.272 23.0999ZM271.297 23.224V41.464H273.297V23.224H271.297ZM271.297 41.464C271.297 42.5062 271.502 43.4548 271.995 44.2368L273.687 43.1712C273.454 42.8012 273.297 42.2564 273.297 41.464H271.297ZM272.009 44.2587C272.535 45.0484 273.3 45.568 274.281 45.568V43.568C274.11 43.568 273.915 43.5116 273.673 43.1493L272.009 44.2587ZM274.281 45.568H275.081V43.568H274.281V45.568ZM275.081 45.568C275.1 45.568 275.109 45.5697 275.109 45.5699C275.11 45.57 275.105 45.5689 275.096 45.5651C275.092 45.5632 275.088 45.5611 275.085 45.5588C275.081 45.5564 275.078 45.5542 275.075 45.5523C275.07 45.5484 275.07 45.5475 275.075 45.5532L276.623 44.2868C276.229 43.8056 275.682 43.568 275.081 43.568V45.568ZM275.106 45.589C275.106 45.5895 275.107 45.5902 275.108 45.5921C275.109 45.5942 275.112 45.6003 275.116 45.6122C275.124 45.6366 275.137 45.6898 275.137 45.784H277.137C277.137 45.2418 276.99 44.6926 276.592 44.251L275.106 45.589ZM275.137 45.784C275.137 45.8348 275.128 45.8544 275.126 45.8589C275.124 45.8635 275.114 45.8833 275.075 45.9166L276.367 47.4434C276.868 47.0191 277.137 46.4414 277.137 45.784H275.137ZM275.081 45.9118C275.05 45.9375 274.957 46 274.697 46V48C275.291 48 275.88 47.8492 276.361 47.4482L275.081 45.9118ZM274.697 46H274.281V48H274.697V46Z" fill="white"/>
<path d="M73.2811 15.0435C72.4136 14.0222 71.2371 13.4485 70.0103 13.4485C68.7836 13.4485 67.6071 14.0222 66.7395 15.0435L49.192 35.7053V43.4079H55.7336L73.2811 22.746C74.1484 21.7245 74.6356 20.3392 74.6356 18.8947C74.6356 17.4503 74.1484 16.065 73.2811 15.0435Z" fill="white"/>
<path fill-rule="evenodd" clip-rule="evenodd" d="M37.6263 24.3421C37.6263 22.8974 38.1138 21.5118 38.9814 20.4902C39.849 19.4687 41.0257 18.8947 42.2526 18.8947H51.5052C52.1187 18.8947 52.7071 19.1817 53.1409 19.6925C53.5747 20.2033 53.8184 20.8961 53.8184 21.6184C53.8184 22.3408 53.5747 23.0336 53.1409 23.5444C52.7071 24.0552 52.1187 24.3421 51.5052 24.3421H42.2526V51.579H65.3841V40.6842C65.3841 39.9619 65.6278 39.2691 66.0616 38.7583C66.4954 38.2475 67.0838 37.9606 67.6973 37.9606C68.3107 37.9606 68.8991 38.2475 69.3329 38.7583C69.7667 39.2691 70.0104 39.9619 70.0104 40.6842V51.579C70.0104 53.0237 69.523 54.4093 68.6554 55.4309C67.7878 56.4525 66.6111 57.0264 65.3841 57.0264H42.2526C41.0257 57.0264 39.849 56.4525 38.9814 55.4309C38.1138 54.4093 37.6263 53.0237 37.6263 51.579V24.3421Z" fill="white"/>
</svg>
