<svg version="1.2" xmlns="http://www.w3.org/2000/svg" viewBox="0 0 204 304" width="204" height="304">
	<title>logo-svg</title>
	<defs>
		<clipPath clipPathUnits="userSpaceOnUse" id="cp1">
			<path d="m10.55 114.88h183.73v183.73h-183.73z"/>
		</clipPath>
		<clipPath clipPathUnits="userSpaceOnUse" id="cp2">
			<path d="m14 2.29h162.72v284.71h-162.72z"/>
		</clipPath>
	</defs>
	<style>
		.s0 { fill: #2c2c4c } 
		.s1 { fill: #ff7068 } 
		.s2 { fill: #e8e0dd } 
		.s3 { fill: #d3d9f4 } 
		.s4 { fill: #ffffff } 
		.s5 { fill: #e55d5a } 
		.s6 { fill: #b4bddb } 
		.s7 { fill: #ff6479 } 
	</style>
	<g id="Clip-Path" clip-path="url(#cp1)">
		<g id="Layer">
			<path id="Layer" class="s0" d="m102.4 298.6c-50.8 0-91.8-41.1-91.8-91.9 0-50.8 41-91.8 91.8-91.8 50.8 0 91.9 41 91.9 91.8 0 50.8-41.1 91.9-91.9 91.9z"/>
		</g>
	</g>
	<path id="Layer" class="s1" d="m62.5 75.1q3.5 4.5 6.3 9.5 2.8 5 4.7 10.4 2 5.4 3 11 1.1 5.7 1.3 11.4 0.1 0.9-0.3 1.8-0.5 0.8-1.4 1.2l-9 5.2q-0.7 0.4-1.6 0.5c-0.8-0.1-1.4-0.8-1.9-1.4q-8.1-10.5-13.7-22.5-0.7-1.3-0.7-2.7c0.1-1.1 0.8-1.9 1.5-2.8q7.3-9.4 10.3-21"/>
	<path id="Layer" class="s1" d="m61.9 75.5c-0.6-0.8 0.7-1.5 1.3-0.8q8.8 11.6 12.7 25.6 1.6 5.8 2.2 11.8c0.3 2.9 1.5 6.9-1.4 8.8-2.1 1.3-4.3 2.5-6.4 3.7-1.3 0.7-3.2 2.3-4.8 2.2-1.1 0-1.9-0.9-2.5-1.7-1.5-1.8-2.8-3.7-4-5.5q-3.8-5.5-6.9-11.3c-1.3-2.6-4.5-6.8-3.4-9.9 0.7-1.8 2.4-3.4 3.5-5q1.7-2.5 3.2-5.2 3.2-6.1 4.9-12.7 0.1-0.2 0.4-0.4 0.2-0.1 0.5 0 0.3 0 0.4 0.3 0.2 0.2 0.1 0.5-3 11.4-10.1 20.8c-1.1 1.4-1.8 2.7-1.3 4.5q0.5 1.3 1.2 2.5 1.1 2.3 2.3 4.5 2.7 5.1 6 9.9 1.5 2.3 3.2 4.5c0.8 1.1 1.1 2 2.6 2.2 1.5 0.2 2.3-0.5 3.6-1.3l5.3-3c0.9-0.5 1.9-0.9 2.4-1.9 0.4-0.9 0.2-1.9 0.1-2.9q-0.3-5.4-1.4-10.8-1.2-5.3-3.1-10.4-1.9-5.2-4.6-9.9-2.6-4.8-6-9.1z"/>
	<path id="Layer" class="s1" d="m163.7 33.7q0.2 0.1 0.3 0.2 0.1 0.2 0.1 0.3 0.1 0.2 0 0.3c-3.2 18.5-5 38-13.8 54.9q-6.6 12.7-14.6 24.6c-1.7 2.5-3.8 6.9-7.2 7.3-1.7 0.3-3.5-0.6-5.1-1.2-2-0.9-4.5-0.4-4.5-0.6-0.1-0.2 2.7-10.6 3.9-14.9 1.1-4 1.1-8.8 2.8-12.7 3.4-7.5 6.9-14.9 10.6-22.3q5.5-10.8 12.4-20.9 3.3-4.7 7.1-9.2c2-2.3 4.4-6 7.7-5.9q0.2 0 0.3 0.1z"/>
	<path id="Layer" class="s2" d="m106.2 115.1q-0.2-0.2-0.2-0.5 0-0.3 0.2-0.5 0.2-0.2 0.5-0.2 0.2 0 0.4 0.2 0.2 0.2 0.2 0.5 0 0.3-0.2 0.5-0.2 0.2-0.4 0.2-0.3 0-0.5-0.2z"/>
	<path id="Layer" class="s3" d="m57.3 223.9c3.6 4.9 9.2 7.8 14.8 10q13.5 5.3 27.9 6.1 5.9 0.4 11.8-0.5c5-0.8 9.9-2.6 14.7-4.4l12.7-4.7q3.9-1.3 7.5-3.4 2.7-1.6 4.8-3.9 2.1-2.2 3.4-5c11.7 6.5 17.3 22.3 12.2 34.7q-2.4 5.8-6.7 10.4-3.2 3.6-7 6.7-3.8 3-8.1 5.3-4.3 2.3-9 3.7-4.6 1.5-9.4 2.2c-2.5 0.3-5.1 0.5-7.6 0.7-18.7 1.1-38.1 2.2-55.5-4.7-10.4-4.1-19.9-11.2-24.9-21.1-5-10-4.8-22.9 2.2-31.6 2.7-3.3 6.5-6.1 10.8-6.4"/>
	<path id="Layer" class="s3" d="m51.9 217.2c0.9-0.1 0.9 1.4 0 1.5-8.8 1-14.2 10.2-15.4 18.3-1.3 8.1 1 16.4 5.6 23 9 12.9 24.9 19 39.9 20.9 8 1.1 16.2 1.1 24.3 0.8 8.2-0.3 16.8-0.3 24.9-2.1 14.2-3.2 29.6-13 35.2-27 5-12.3-0.5-27.3-11.8-33.9l0.9-0.2c-3.5 6.9-9.5 10.1-16.5 12.7-7.5 2.8-14.9 6-22.6 8-7.4 2-15.1 1.9-22.7 0.9q-11.2-1.4-21.7-5.5c-5.8-2.3-11.4-5.2-15.2-10.2-0.6-0.7 0.4-1.7 1-1 5.2 6.6 13.5 9.8 21.3 12.1 8.7 2.7 18.1 4.2 27.2 3.8 9.4-0.4 18.1-4.2 26.8-7.4 4.2-1.6 8.6-2.9 12.6-5.1q2.7-1.6 5-3.9 2.2-2.3 3.6-5.2 0.2-0.2 0.5-0.3 0.2-0.1 0.5 0.1c13.8 7.9 18.4 26.5 10.2 40.1-8.1 13.3-23.3 22.2-38.6 24.2-9.5 1.3-19.3 1.5-28.9 1.5-9.1 0-18.3-0.7-27.1-3.1-14.7-3.9-29.5-13.3-34.5-28.4-2.3-7-2.3-14.9 0.5-21.7 2.7-6.3 7.9-12 15-12.8z"/>
	<path id="Layer" class="s4" d="m80.9 121.4q5.6-2.1 11.6-2.9 5.9-0.8 11.8-0.2c6.3 0.5 12.4 2.2 18.4 4 3.9 1.2 7.8 2.6 11.3 4.6q4.8 3 8.6 7 5 5.1 8.9 11.1 3.9 5.9 6.6 12.5 2.7 6.6 4 13.6 1.4 7 1.5 14.2c0 3.8-0.4 7.8-2.1 11.3q-1.1 2.3-2.7 4.3l-4.2 6.1c-2.3 3.3-4.6 6.5-7.4 9.4-7.7 7.9-18.6 11.9-29.4 14-17.6 3.2-36.6 1.4-52.1-7.6-15.4-9-26.7-25.9-26.5-43.9q0.1-7.4 2.3-14.6 1.1-3.7 2.7-7.4 1.5-3.6 3.4-7 2-3.4 4.3-6.6 2.3-3.2 4.9-6.1 2.7-2.9 5.6-5.6 3-2.6 6.2-4.8 3.2-2.3 6.6-4.2 3.5-1.9 7.1-3.4"/>
	<path id="Layer" class="s4" d="m82.2 118.5c0.9-0.3 1.2 1.1 0.4 1.4-23.2 9.5-42.4 33.3-42.7 59-0.2 23.6 18.6 42.9 40.2 49.2 11.8 3.5 24.6 3.8 36.7 1.7 11.8-2.1 23.6-6.6 31.7-15.9q3.5-4.2 6.5-8.8c1.8-2.4 3.6-4.8 5.2-7.4 3.3-5.6 3-12.7 2.4-19q-0.9-8.9-3.8-17.3-2.9-8.4-7.8-15.9-4.9-7.6-11.6-13.7c-5.4-4.8-11.8-7.2-18.6-9.3-6.5-2-13.1-3.5-20-3.7q-10.1-0.2-19.7 3.2c-0.9 0.4-1.2-1-0.4-1.4q5.7-2 11.7-2.8 5.9-0.8 11.9-0.3c7.8 0.7 15.5 2.9 22.8 5.5 13.5 4.8 23.3 16.9 29.5 29.6 5.3 10.8 8.2 23.1 7.6 35.2q-0.1 4.8-2 9.2c-1.6 3.1-3.9 6-6 8.8-3.7 5.4-7.4 10.7-12.6 14.7-9.8 7.6-22.6 10.7-34.7 11.7-12.8 1.2-26-0.5-37.8-5.8-21.7-9.8-36.4-32.8-31.7-56.8 4.6-22.9 21.4-42.3 42.7-51.1z"/>
	<path id="Layer" class="s4" d="m80.6 117q-3.8-17.2-11.6-33c-2.2-4.4-4.8-8.8-8.9-11.3q-2 6.3-5.2 12.1-3.2 5.9-7.4 11-4.2 5.2-9.3 9.4-5.1 4.3-11 7.5c-2.4 1.3-5.9 2.3-7.6 0.1q-0.9-1.2-1-2.8c-1.4-8.9-0.3-18 1-26.9 1.2-7.8 2.6-15.6 5.4-23q2.4-6.3 6.1-12 3.7-5.8 8.5-10.6c1.5-1.6 3.3-3.1 5.5-3.4 3.8-0.5 6.9 2.9 9.2 6l5.4 7.4c6.6 8.8 13.2 17.7 18.1 27.6q6.9 13.9 9.7 29.2 1 5.4 1.6 10.8"/>
	<path id="Layer" class="s4" d="m89.9 115.1c0.1 0.9-1.4 0.9-1.5 0-2.2-18.5-7.9-36-18.1-51.6-4.4-6.7-9.2-13-13.9-19.3-2.2-2.9-4.3-6.7-7.6-8.5-4.1-2.4-7.5 0.9-10.1 3.8q-8.1 8.7-12.5 19.7c-3 7.4-4.5 15.3-5.7 23.1-1.4 8.6-2.5 17.3-1.5 25.9 0.2 1.5 0.3 2.7 1.2 3.9 0.9 1.3 2.2 1.4 3.7 1.1q2.3-0.6 4.3-1.9 4.5-2.6 8.6-5.9 3.9-3.2 7.4-6.9 3.4-3.8 6.3-7.9 2.9-4.2 5.1-8.8 2.3-4.5 3.8-9.4 0.1-0.1 0.2-0.2 0.1-0.2 0.2-0.2 0.2-0.1 0.4-0.1 0.1 0 0.3 0.1c6.6 4.3 9.8 12.6 12.8 19.6q5.2 12.2 8 25.2c0.2 0.9-1.2 1.3-1.4 0.4q-2.6-12-7.3-23.5c-2.9-7.1-6.1-16.1-12.9-20.4l1.1-0.5q-1.9 6-4.9 11.6-2.9 5.6-6.8 10.5-3.9 5-8.6 9.2-4.7 4.2-10 7.5c-2.6 1.5-5.8 3.7-8.9 3.1-3.1-0.6-3.6-3.4-3.9-6.1-1.3-9.5 0.1-19.1 1.7-28.4 1.4-8.9 3.4-17.6 7.3-25.7q2.7-5.8 6.6-10.8c2.3-3.1 4.9-6.4 8-8.7 6.2-4.5 11.2 1.5 14.7 6.3 5.6 7.5 11.4 15 16.5 23 9.8 15.4 15.2 32.7 17.4 50.8z"/>
	<path id="Layer" class="s4" d="m113.3 115.7l-6.1-1.6q3.3-16.7 7.6-33.1c3.6-13.6 7.9-27.3 15.4-39.3q5.7-9.1 13.5-16.4c2.1-1.9 4.3-3.7 6.5-5.6q4.9-4.3 10.4-7.9 5.3-3.2 10.9-5.6 0.4-0.2 0.7-0.2c0.7 0 1 0.9 1 1.6q1.3 11.9 0.5 23.9-0.8 12-3.6 23.7c-1.4 6-3.8 12.6-9.5 14.8-2.8-12.7 3.5-25.5 5.1-38.5-1.5-1.5-4-0.1-5.5 1.4-11.2 11.1-19.6 24.7-28 38.2q-2.1 3.3-3.9 6.9-1.9 4.6-3.2 9.4-4.4 15-9.9 29.7"/>
	<path id="Layer" class="s4" d="m113.5 115q0.3 0.1 0.4 0.4 0.1 0.2 0.1 0.5-0.1 0.3-0.3 0.4-0.3 0.2-0.6 0.1l-6.1-1.6q-0.3-0.1-0.4-0.4-0.2-0.2-0.1-0.5c3.2-16.4 6.9-33 12.3-48.8 4.2-12.7 10.2-24.7 19.1-34.8 4.5-5.1 9.8-9.5 15.1-13.9 5.4-4.3 11.6-8.6 18.1-10.9 1.7-0.5 2.5 0.2 2.8 1.9 0.7 3.3 0.6 6.9 0.8 10.3q0.3 11.1-1 22.1c-0.9 6.5-1.9 13.2-4 19.5-1.5 4.7-4 9.3-8.8 11.3q-0.1 0.1-0.3 0.1-0.1 0.1-0.3 0-0.1-0.1-0.3-0.2-0.1-0.1-0.1-0.3c-2-9.7 0.8-19.2 3-28.5 0.5-2.2 1-4.3 1.4-6.5 0.3-1.2 1-3.7-0.9-3.4-1 0.1-1.9 0.9-2.7 1.6-3.1 2.8-5.9 6.3-8.6 9.6-5.7 7.2-10.7 14.8-15.6 22.6-2.3 3.7-4.8 7.3-6.8 11.2-2.2 4.4-3.4 9.2-4.8 13.9q-4.1 13.4-9 26.6c-0.3 0.9-1.7 0.5-1.4-0.4 4.1-11.1 7.5-22.3 11.1-33.6 2.8-9.1 8.7-17.1 13.9-25 5.2-8 10.7-15.8 17.2-22.8 1.8-1.9 5-6.2 8.2-5.2 1.3 0.3 1.5 1 1.3 2.3-0.3 2.3-0.7 4.6-1.3 6.9-2.2 9.9-5.7 20-3.6 30.3l-1.1-0.4c5.7-2.5 7.9-8.7 9.3-14.3q2.6-11.2 3.4-22.6 0.7-10 0-19.9-0.1-1.6-0.2-3.2-0.1-1.1-0.3-2.2h-0.7c-1.3-0.3-3.4 1.3-4.6 1.8q-4 2-7.6 4.4-8.1 5.6-15.3 12.4-6.8 6.4-12 14.1c-7.1 10.7-11.5 22.8-15 35-3.7 13-6.7 26.1-9.3 39.3l-0.5-0.9 6.1 1.7z"/>
	<path id="Layer" class="s2" d="m72 89.7q5.2 8.7 12.4 15.7c1.5 1.5 3.1 3 4 4.9 0.9 1.9 0.8 4.5-0.8 5.9-1.9 1.7-5.3 1-7 2.9l-1-3.6-6.4-22.6"/>
	<path id="Layer" class="s2" d="m71.3 89.5q0.1-0.3 0.3-0.4 0.3-0.2 0.6-0.1 0.2 0.1 0.4 0.3 3.4 5.7 7.7 10.7c2.5 2.8 5.5 5.2 7.7 8.2 1.5 2.1 2.4 5 1 7.4-1.7 3-5.6 2-7.9 4.1q-0.1 0.1-0.3 0.1-0.2 0.1-0.4 0-0.2 0-0.3-0.1-0.2-0.2-0.2-0.4-3.7-13.1-7.4-26.2-0.1-0.3 0.1-0.5 0.1-0.3 0.4-0.4 0.3 0 0.5 0.1 0.3 0.1 0.4 0.4 3.7 13.1 7.4 26.2l-1.2-0.3c2-1.8 5.3-1.3 7.2-3.2 3.1-3.4-1.4-7.5-3.7-9.8q-7.1-7-12.3-15.6-0.1-0.2 0-0.5z"/>
	<path id="Layer" class="s2" d="m129.5 82.9c-0.4 3.9-5.8 19.7-7.1 23.3-1.5 4.3-3.2 7.9-4.5 12.2 0 0.3-1.2-1.2-1.5-1.2l-9-0.1q-0.3-0.1-0.5-0.2-0.2-0.2-0.2-0.5 0-0.2 0.1-0.4 0.1-0.3 0.4-0.4l-0.2-0.4q-0.3 0.2-0.6 0-0.3-0.1-0.3-0.5c-0.3-2-0.5-4.3 0.7-6.1 1.3-1.8 3.7-1.8 5.3-3.1 4.5-3.6 8.3-8.8 11.5-13.4 0.4-0.5 6-10 5.9-9.2z"/>
	<path id="Layer" class="s2" d="m174 29q-0.7 2.7-1.4 5.5l-0.8 5.4q0.3 0.1 0.5 0.4 0.2 0.2 0.1 0.5c-1.2 7.9-3.6 15.5-5.9 23.1q-3.2 11.1-7.5 21.9c-5.1 12.4-12.6 23.5-20.5 34.4-1.1 1.5-2.4 9.2-4.2 7.8q-2.4-1.8-5-3.2-5.8-3-12.1-4.8-3.1-0.8-6.2-1.3c0.1-0.6 3.1-0.7 6.9-0.7 6.2-0.1 14.4 0.2 16.1-0.4q0.2 0 0.4-0.2 1.2-1.7 2.4-3.5c1.8-2.5 3.5-5.1 5.1-7.8q1.7-2.9 3-6.1c1.7-4.2 3.2-8.4 5.2-12.5l1.4-2.9c2.6-5.2 5.2-10.5 7.5-15.9q8.4-19.5 13.6-40.1 0.1-0.3 0.4-0.4 0.2-0.2 0.5-0.1 0.3 0.1 0.5 0.4 0.1 0.2 0 0.5z"/>
	<path id="Layer" class="s2" d="m18 93.4q0.2 4.1 1.6 8.1c0.6 1.5 1.6 3.2 3.3 3.5q1.4 0.1 2.7-0.6c16-6.8 28.4-20.2 37.9-34.8-3.5 10.3-7.4 20.7-14.1 29.4-6.7 8.6-16.7 15.4-27.6 15.6q-1.3 0.2-2.3-0.6-0.8-0.9-0.8-2l-2-16"/>
	<path id="Layer" class="s2" d="m17.3 93.4c-0.1-1 1.4-1 1.4 0 0.2 3 0.7 6.5 2.3 9.2 2 3.3 6.3 0.4 8.8-0.9q6.8-3.7 12.7-8.7c8-6.8 14.7-15.1 20.4-23.8 0.4-0.7 1.6-0.3 1.3 0.5-5 14.5-10.9 29.8-23.9 39-5.2 3.7-12.5 7.2-19.1 6.6-3.1-0.2-3.1-2.7-3.4-5.2l-1.9-14.1c-0.1-0.9 1.4-0.9 1.5 0l1.5 11.7c0.3 2 0.1 5.8 2.6 6.2 1.5 0.2 3.4-0.3 4.9-0.5 6.2-1.3 11.9-4.5 16.6-8.7 10.4-9.2 15.4-22.6 19.8-35.4l1.4 0.6c-6.8 10.4-14.9 20.1-25 27.5q-3.8 2.9-8 5.2c-2.2 1.1-5.1 3.1-7.6 3.2-5.2 0.2-6.1-8.8-6.3-12.4z"/>
	<path id="Layer" class="s5" d="m49.3 104c-1.1-1.1-1.3-3-0.8-4.6 0.5-1.5 1.6-2.8 2.6-4.1q6.7-8.9 11.4-19.1c0.7-0.1 1.2 0.6 1.5 1.2q9 16.7 12.5 35.3c0.3 1.6 0.5 3.2 0.2 4.8-0.4 1.6-1.5 3.1-3.1 3.5q-1.9-3.3-4.6-6-2.6-2.7-5.8-4.7-3.2-2.1-6.8-3.3-3.6-1.3-7.3-1.7"/>
	<path id="Layer" class="s5" d="m49.1 106c-0.9-0.1-0.9-1.6 0-1.5q3.8 0.5 7.5 1.8 3.6 1.3 6.9 3.3 3.3 2.1 6 4.9 2.7 2.8 4.7 6.1l-0.8-0.4c4.4-1.4 2.4-7.6 1.7-10.8q-0.9-4.2-2.2-8.4-2.6-9-6.5-17.4-1.1-2.2-2.2-4.3c-0.3-0.5-0.5-1.6-1.1-1.8-0.7-0.1-0.8 0.8-1.1 1.4q-1.9 3.8-4.1 7.5c-1.5 2.6-3.1 5-4.9 7.5-1.9 2.5-5.8 6.4-3.2 9.6 0.6 0.7-0.4 1.7-1 1-3.5-4.3 1.2-8.9 3.7-12.4q5.4-7.7 9.4-16.2 0.2-0.4 0.6-0.4c1.6 0.1 2.1 1.4 2.7 2.7q1.8 3.3 3.3 6.7 3 6.6 5.2 13.6 2.4 7.5 3.7 15.2c0.5 3.2-0.1 6.8-3.6 8q-0.2 0-0.5-0.1-0.2-0.1-0.3-0.3-1.9-3.1-4.5-5.8-2.6-2.6-5.7-4.6-3.1-2-6.6-3.2-3.5-1.3-7.1-1.7z"/>
	<path id="Layer" class="s5" d="m157.1 68.3c-1.9 5.4-3.6 10.9-5.5 16.3q-0.5 1.3-0.9 2.7-2.4 6.5-5.7 12.7-1.3 2.3-2.6 4.7c-2.4 4.5-5 8.9-8.3 12.9q-0.7 0.9-1.4 1.7c-0.8 0.8-2 3.4-3.3 5.5q-5.8-3-12.2-4.8 0.4-0.9 0.8-2c1.9-5.3 4.5-12.4 4.7-12.9 4.2-11.7 14.7-26.8 33.3-37.6q0.4-0.2 0.8 0.1 0.4 0.3 0.3 0.7z"/>
	<path id="Layer" class="s2" d="m38.4 179.2q1.2 7 4 13.7c5.5 12.5 16.6 22.2 29.2 27.5 12.7 5.3 26.8 6.4 40.4 5 15.1-1.6 30.6-6.9 40.2-18.6 3.9-4.6 6.6-10.1 9.1-15.5 1.2-2.8 2.4-5.6 2.6-8.5 1.4 6.8 0.3 14-2.4 20.4-2.7 6.4-7 12.1-11.8 17.2q-2 2.1-4.3 4c-4.1 3-8.9 4.7-13.7 6.4l-15.2 5.3c-7.1 2.4-14.4 4.9-22 4.8q-5.2-0.2-10.3-1.3c-8.9-1.7-18.2-3.9-24.5-10.3-2.7-2.8-4.7-6.2-6.7-9.5-3.9-6.6-7.8-13.2-11.4-19.9-2.1-4.1-4.2-8.4-4.1-13"/>
	<path id="Layer" class="s2" d="m37.7 179.4c-0.2-0.9 1.2-1.3 1.4-0.4 2.4 12.1 7.5 22.7 16.9 30.8 16.9 14.9 41.3 17.9 62.8 13.9 10-1.9 19.9-5.5 27.7-12.1q6.1-5.3 10-12.2c2.8-5 6.2-10.8 6.6-16.6 0.1-0.8 1.3-1.1 1.5-0.2 2.6 13.9-4 27-13.2 37.1q-3.1 3.3-6.8 5.9-3.7 2.6-7.9 4.2c-6.3 2.4-12.8 4.5-19.1 6.7-6.4 2.2-12.7 4.4-19.5 5-6 0.5-12-0.7-17.8-1.9-5.4-1.2-10.8-2.7-15.7-5.6-4.9-3-8.2-7.2-11.1-12-3.6-5.9-7-11.8-10.3-17.7-2.9-5.4-6.3-11-6.4-17.4q0-0.3 0.2-0.4 0.2-0.2 0.5-0.2 0.3 0 0.5 0.2 0.2 0.1 0.2 0.4c0.2 7.2 4.6 13.8 8.1 19.9 3.2 5.7 6.4 11.4 10 16.9q2.3 3.6 5.5 6.4 3.2 2.8 7.2 4.5c4.7 2.1 9.9 3.3 15 4.3 6.4 1.2 12.5 1.8 18.8 0.5 6-1.2 11.7-3.4 17.5-5.4 5.8-2 11.8-3.8 17.5-6.2 5.8-2.5 10.2-6.3 14.2-11 8-9.3 13.6-21.4 11.2-33.9l1.4-0.1c-0.5 6.2-4.2 12.7-7.3 18q-4.5 7.8-11.6 13.3c-8.5 6.4-19 9.9-29.4 11.5-11.9 1.8-24.2 1.6-35.8-1.5-10.3-2.7-20-7.8-27.7-15.3-8.3-8-12.9-18.2-15.1-29.4z"/>
	<path id="Layer" class="s2" d="m93.1 214.8q2.9-0.3 5.6-1.4 0.5-0.3 1.1-0.3 0.6 0 1 0.4 3.6 2.2 7.7 2.3-2.6 1-5.3 1.4-2.8 0.3-5.5 0-2.8-0.3-5.4-1.2-2.6-0.9-4.9-2.5"/>
	<path id="Layer" class="s2" d="m87.8 212.9q2.2 1.5 4.8 2.4 2.5 0.9 5.2 1.2 2.6 0.3 5.3 0 2.7-0.4 5.2-1.3l0.2 1.4q-3.7-0.2-7-1.8c-2.6-1.4-5.6 0.4-8.4 0.8-0.9 0.1-0.9-1.3 0-1.5q2.6-0.3 5-1.2 1-0.6 2.2-0.4c1.2 0.3 2.4 1.3 3.6 1.7q2.3 0.8 4.6 1 0.3 0 0.5 0.2 0.2 0.1 0.2 0.4 0.1 0.3-0.1 0.5-0.1 0.2-0.4 0.3-2.7 1-5.5 1.3-2.8 0.4-5.6 0-2.8-0.3-5.5-1.2-2.7-1-5.1-2.5c-0.7-0.6 0-1.8 0.8-1.3z"/>
	<path id="Layer" class="s6" d="m37.5 233.4c-0.3 9.3 4.4 18.3 11.1 24.7 6.8 6.3 15.4 10.3 24.4 12.9q8.8 2.6 18 3.4 9.2 0.8 18.4-0.2c2.9-0.3 5.9-0.7 8.8-1.2 12.6-2.2 25.7-5.4 35.1-14 3.3-3 6-6.5 8.7-10 1.9-2.5 3.9-5 4.6-8.1 1.1-3.9 0-8.2 0.8-12.2 4.9 12.2 1.9 27.2-7.3 36.5-7.8 7.8-18.8 11.3-29.3 14.5-2.9 0.9-5.9 1.9-9 2.5-6.6 1.3-13.5 1.2-20.3 1.1-6.4-0.1-12.8-0.2-19.1-1.1-8.9-1.2-17.5-4.2-25.7-7.7-4.1-1.8-8.3-3.9-11.3-7.2-2.2-2.4-3.7-5.4-5.1-8.3-3.1-6.3-6.1-13.3-4.7-20.2"/>
	<path id="Layer" class="s6" d="m36.8 233.4q0-0.3 0.2-0.5 0.2-0.2 0.5-0.2 0.3 0 0.5 0.2 0.2 0.2 0.2 0.5c-0.1 12.7 7.9 23.4 18.3 29.8 19.9 12.3 45 12.5 67.3 8 10.4-2.1 21-5.5 29-12.7q6.2-5.8 10.9-13 1.3-2 2-4.2 0.7-2.3 0.7-4.7c0-2.7-0.2-5.3 0.3-8 0.1-0.8 1.1-0.6 1.4 0q0.8 2.1 1.3 4.3 0.5 2.2 0.8 4.5 0.2 2.3 0.2 4.5-0.1 2.3-0.4 4.6-0.3 2.2-1 4.4-0.6 2.2-1.5 4.3-0.9 2.1-2 4.1-1.2 2-2.6 3.8c-7.7 9.6-19.9 13.6-31.2 17.1-6.9 2.1-13.7 3.6-21 3.8q-11 0.4-22-0.4-10.5-0.7-20.5-4c-6.3-2-13-4.4-18.7-8-5.4-3.4-8.2-8.6-10.8-14.3-2.8-5.9-5-12.1-3.8-18.7 0.2-0.9 1.6-0.5 1.4 0.4-1.4 7.7 2.3 15.2 5.7 21.8 1.7 3.3 3.7 6.3 6.6 8.5q3.9 2.7 8.4 4.5 9.1 4.1 18.9 6.5c6.6 1.5 13.3 2 20.1 2.2 6.4 0.2 12.9 0.4 19.4-0.2 6.7-0.5 13-2.6 19.3-4.6 10.9-3.4 22.2-8 28.7-17.8q2.2-3.4 3.6-7.3 1.3-3.8 1.8-7.8 0.4-4-0.1-8-0.6-4.1-2-7.8h1.4c-0.7 3.7 0.1 7.5-0.6 11.3-0.5 2.9-2.2 5.5-3.9 7.8-3.9 5.1-7.8 10.2-13 14-9 6.7-20.2 9.5-31.1 11.4-12.3 2.1-24.7 2.7-37.1 0.4-20.7-3.7-45.9-16.1-45.6-40.5z"/>
	<path id="Layer" class="s0" d="m118.2 211.5c-2.5 4.6-9.5 6.7-14.8 5q-1.8-0.6-3.1-2.1-1.6 1.8-3.8 2.6c-6 2.2-11.3-0.5-13.5-6-1.1-2.6 2.7-4.7 3.7-2.1 1.4 3.4 5.2 5.4 8.7 3.9q1.2-0.6 2-1.6 0.8-1.1 1.1-2.4c-0.1-1.3 0-2.5 0.1-3.8 0-0.2-0.1-0.4-0.1-0.6-2-1-3.8-2.6-5.3-4.1q-0.4-0.4-0.5-0.8-0.2-0.5-0.1-1-0.1-0.5 0-1 0.1-0.5 0.3-0.9 0.3-0.4 0.6-0.7 0.4-0.4 0.8-0.5 3.8-1.8 7.8-1.6c2.1 0.2 5.1 0.9 5.7 3.2 0.6 2-1.2 4.1-2.5 5.5q-1.1 1.1-2.4 1.9 0 0.3 0 0.6 0.1 1.7-0.1 3.3c0 1.6 0.3 3.3 1.8 4q0.6 0.3 1.2 0.4 0.6 0.2 1.2 0.3 0.7 0 1.3-0.1 0.7 0 1.3-0.2 0.6-0.2 1.1-0.5 0.6-0.3 1.1-0.7 0.5-0.4 0.9-0.9 0.4-0.5 0.8-1.1c1.4-2.4 6-0.5 4.7 2z"/>
	<path id="Layer" class="s0" d="m80.6 182.6c-1.5 2.1-3.3 2.5-4.9 1.8-2.9-0.5-5.4-4.6-5.9-7.2-0.9-4.4-0.1-11.1 3-14.5 3.7-3.9 7.9 1.2 9 4.7 1.3 4.4 1.4 11.2-1.2 15.2z"/>
	<path id="Layer" class="s0" d="m130.2 165.5c1.9 4.4 2.6 10.5 0.2 14.9q-1 1.8-2.7 2.9-0.7 0.8-1.8 1.2-1 0.3-2 0.2c-2.8-0.4-4-3.4-4.6-5.8-1-4.5-1-10.4 1.6-14.4 1.2-1.8 3-3.4 5.2-3.1 2.1 0.3 3.3 2.3 4.1 4.1z"/>
	<g id="Clip-Path" clip-path="url(#cp2)">
		<g id="Layer">
			<path id="Layer" fill-rule="evenodd" class="s0" d="m154.2 104.3c-4.2 7.8-9.9 14.7-15.7 21.4 22.1 16 34 45.1 26.7 72q-2.5 9.4-8.5 17.2c7.9 3.5 13.7 10.9 15.3 19.5 2.1 10.4-1.4 21.1-7.9 29.4q-4.2 5.4-9.8 9.5c-3.9 3.1-8.7 4.9-13.4 6.7q-13.9 5.2-28.8 6.4-12.3 1.1-24.5-0.4-12.2-1.4-23.9-5.3c-6.8-2.4-13.4-5.3-18.7-10.3q-4-3.9-6.9-8.6-2.8-4.8-4.3-10.2c-3.6-13.4 2.2-29.4 15.5-34.6q-6.3-6.3-9.7-14.6c-9.7-23.4-2.4-51.8 15.2-69.4q2.9-2.9 6.2-5.5c-0.6-0.6-1.2-1.3-1.6-1.9q-1.3-1.6-2.5-3.3-2.4-3.3-4.5-6.8-3.4-5.8-6.1-12-4.8 5.1-10.5 9c-3.4 2.3-7.5 5.1-11.6 5.9-4.4 1-6.9-1.9-8.2-5.7-3.1-9.2-1-19.4 0.5-28.7 3.1-18.3 8.4-37.7 22.6-50.6 3.4-3 6.4-4.4 10.8-2.3q5.6 2.8 9.7 7.6c6 6.8 10.5 15.2 14.8 23.2 8.8 16.2 15.6 33.7 17.6 52.1q6.1-0.8 12.3-0.4c3.9-20.5 9.8-41 18.4-60q5.1-11.4 12.7-21.3 7.5-10 17.1-18 4.6-3.9 9.7-7.3c2.8-1.9 6.3-4.7 9.9-4.6 4.5 0.1 4.5 4.6 4.5 8q0.1 7.1-0.3 14.2-1.6 27.9-11 54.3-4.6 13.1-11.1 25.4zm-90.8-40.9c0.9-2.7 1.6 5.5 1.3 9.3q6.5 9.9 10.6 21.1 4.1 11.2 5.4 23c1.7-0.6 3.4-1.1 5.1-1.5q1-0.3 1.9-0.5c-1.9-18.6-9.1-36.3-18.1-52.6-3.8-7-7.8-14.4-13.1-20.4-2.4-2.8-5.2-5.2-8.5-6.8-2.7-1.3-4.1 0-6.1 1.8q-2 1.8-3.8 3.9c-11.3 12.8-15 30.2-17.7 46.6q-1.3 6.5-1.6 13.2c-0.1 3.9-0.1 9.1 2 12.6 1.4 2.2 3.8 0.7 5.6-0.2q2.5-1.2 4.9-2.7 5.2-3.2 9.6-7.4c11.1-10.6 17.7-25 22.5-39.4zm88.3 36.2q6.6-13 11.1-26.8 8.1-24.6 9.3-50.4 0.3-6.5 0.2-12.9c0-1.1 0.4-2.8-0.9-2.8-0.7 0-1.6 0.6-2.1 1q-2.5 1.4-4.9 3.1-9.5 6.3-17.4 14.5c-11.1 11.6-18.8 25.3-24.6 40.3q-8.9 23.6-13.8 48.4c4.6 0.6 8.8 2.5 12.7 5.8 2 1.8 2.3 2.4-0.4 1.5q-6.9-2.4-14.3-3.2-0.6 0.1-1.2-0.1-11.3-0.9-22.1 2.5-4.5 1.4-8.8 3.6-4.2 2.1-8.1 4.8-3.9 2.8-7.4 6.1-3.4 3.2-6.4 7c-13.7 18.1-18 45.1-5.7 65.1 6.4 10.4 17.3 16.5 28.5 20.6q9.2 3.4 18.9 4.6 9.8 1.1 19.5-0.1c11.8-1.5 24.2-5.6 33.4-13.4 9.3-7.8 14.3-19.3 15.5-31.2 2.3-23.4-9-46.6-28.4-59.6q-0.4-0.3-0.7-0.7-0.2-0.4-0.3-0.9 0-0.5 0.1-1 0.1-0.4 0.5-0.8 0.1-0.4 0.4-0.7c6.6-7.6 12.8-15.2 17.4-24.3zm14.6 130.9q-0.9-2.1-2.1-3.9-1.3-1.8-2.8-3.4-1.6-1.5-3.5-2.8c1.3 4.8-0.7 9.8-4.7 13.6-6.9 6.4-16.6 9.7-25.6 11.5-12.8 2.6-26.2 2.6-39.2 1-12.5-1.6-42.2-7.5-38.7-24.9-6.1 3-10.5 9-12.1 15.7-1.6 6.5-0.2 13.4 2.7 19.4q2.3 4.7 5.8 8.6 3.5 3.8 8 6.5c5.1 3 10.9 4.9 16.5 6.4q11 3.1 22.4 4 11.3 0.8 22.6-0.5 13.1-1.5 25.4-6.4c4.4-1.7 8.6-3.6 12.2-6.6q4.8-3.8 8.5-8.8c5.1-7.1 8-16.4 6-25.2q-0.5-2.2-1.4-4.2zm-105.2-109.7c1 1.3 2.4 2.7 3.4 4.1q5.7-3.9 12.1-6.5-1.1-10.9-4.7-21.3-3.5-10.3-9.2-19.6c-3.5 8.1-7.8 15.7-13.3 22.4q3.1 7.3 7.2 14.1 2.1 3.5 4.5 6.8z"/>
		</g>
	</g>
	<path id="Layer" class="s0" d="m167.4 29.9q-1.2 15.1-4.7 29.8c-4.8 20.1-13.3 38.4-24.3 55.5-1.9 3.1 21.4-44.9 24.1-80.3-9.4 8.7-16.5 19.7-22.5 30.8-7 13-12.6 26.7-17.6 40.5 4-18.7 12.8-41.5 19.2-51.9 6-9.6 13.1-18.9 22.1-26 1.3-1 3.8-0.5 3.7 1.6z"/>
	<path id="Layer" class="s4" d="m72.8 171q-0.4-1.1-0.2-2.3c0.2-0.8 1-1.4 1.7-1.2 0.7 0.3 1 1.1 1.2 1.8q0.3 1.2 0.1 2.3c-0.3 0.8-1.1 1.4-1.8 1.1q-0.6-0.2-0.9-0.7-0.5-1-0.5-2.1 0-1 0.6-2"/>
	<path id="Layer" class="s4" d="m72.3 167.6q0.2-0.3 0.4-0.3 0.3-0.1 0.6 0.1 0.2 0.1 0.3 0.4 0.1 0.2-0.1 0.5-0.7 1.2-0.3 2.6c0.1 0.5 0.5 1.3 1.1 1.1 0.4-0.1 0.6-0.7 0.6-1 0.1-0.6-0.1-2-0.5-2.4q-0.1-0.5-0.6-0.2-0.2-0.1-0.4 0.1-0.1 0.1-0.1 0.4-0.2 1 0.2 1.9 0.1 0.3-0.1 0.5-0.1 0.2-0.4 0.3-0.3 0.1-0.5 0-0.3-0.2-0.4-0.4c-0.3-1.1-0.6-2.3 0-3.3q0.3-0.6 0.9-0.9 0.6-0.3 1.2-0.3c1.8 0.3 2.3 3.1 2.1 4.6-0.2 1.6-2 3-3.4 1.7-1.6-1.3-1.5-3.8-0.6-5.4z"/>
	<path id="Layer" class="s4" d="m77.2 174.9v-0.5q0.7 0.1 1 0.8c0.1 0.5-0.2 1-0.7 0.9q-0.2 0-0.4-0.2-0.1-0.2-0.1-0.4 0-0.5 0.1-0.9"/>
	<path id="Layer" class="s4" d="m76.5 174.4c0.3-0.9 1.7-0.5 1.4 0.4q-0.1 0.2-0.2 0.5c0 0 0 0.2 0 0.2q0.1-0.1-0.1-0.1c-0.3 0.1-0.1 0-0.1 0 0 0 0-0.1 0 0 0.1 0 0-0.1 0-0.1q-0.2-0.1-0.5-0.2l1-0.7-0.1 0.5q0 0.3-0.2 0.5-0.2 0.1-0.5 0.1-0.3 0-0.5-0.1-0.2-0.2-0.2-0.5v-0.5q0-0.2 0.1-0.3 0.1-0.2 0.2-0.3 0.1-0.1 0.3-0.1 0.2-0.1 0.3 0 1 0.2 1.4 1.1 0.2 0.5 0.1 0.9-0.1 0.5-0.4 0.8-0.2 0.2-0.5 0.3-0.2 0.1-0.5 0.1-0.2-0.1-0.4-0.2-0.3-0.1-0.4-0.3-0.4-0.4-0.4-1-0.1-0.5 0.2-1z"/>
	<path id="Layer" class="s4" d="m121.9 171q-0.5-1.1-0.3-2.3c0.2-0.7 1-1.4 1.7-1.2 0.7 0.3 1 1.1 1.2 1.8q0.3 1.2 0.1 2.3c-0.3 0.8-1.1 1.4-1.8 1.1q-0.6-0.2-0.8-0.7-0.6-1-0.6-2 0-1.1 0.6-2.1"/>
	<path id="Layer" class="s4" d="m121.3 167.6q0.2-0.3 0.5-0.3 0.2-0.1 0.5 0.1 0.2 0.1 0.3 0.4 0.1 0.3 0 0.5-0.8 1.2-0.4 2.6c0.2 0.5 0.5 1.3 1.2 1.1 0.4-0.1 0.5-0.7 0.6-1 0-0.5-0.2-2-0.5-2.4q-0.2-0.5-0.6-0.2-0.5-0.1-0.6 0.5-0.1 1 0.3 1.9 0 0.3-0.1 0.5-0.2 0.2-0.5 0.3-0.2 0.1-0.5 0-0.2-0.2-0.3-0.4c-0.3-1.1-0.6-2.3 0-3.3q0.3-0.6 0.8-0.9 0.6-0.3 1.2-0.2c1.9 0.2 2.4 3 2.2 4.5-0.2 1.6-2.1 3-3.5 1.7-1.5-1.3-1.5-3.8-0.5-5.4z"/>
	<path id="Layer" class="s4" d="m126.2 174.9l0.1-0.5q0.7 0.1 0.9 0.8c0.2 0.5-0.2 1-0.6 1q-0.3-0.1-0.4-0.3-0.2-0.2-0.2-0.4 0-0.5 0.2-0.9"/>
	<path id="Layer" class="s4" d="m125.5 174.4c0.3-0.9 1.7-0.5 1.4 0.4q-0.1 0.2-0.2 0.5c0 0 0 0.2 0 0.2 0.1-0.1 0-0.1-0.1-0.1-0.3 0.1-0.1 0-0.1 0 0 0 0-0.1 0 0 0.1 0.1 0-0.1 0-0.1q-0.2-0.1-0.5-0.2l1-0.7-0.1 0.5q0 0.3-0.2 0.5-0.2 0.2-0.5 0.2-0.3 0-0.5-0.2-0.2-0.2-0.2-0.5v-0.5q0-0.2 0.1-0.3 0.1-0.2 0.2-0.3 0.1-0.1 0.3-0.1 0.2-0.1 0.3 0 1 0.2 1.5 1.1 0.1 0.5 0 0.9-0.1 0.5-0.4 0.8-0.2 0.2-0.4 0.3-0.3 0.1-0.5 0.1-0.3-0.1-0.5-0.2-0.2-0.1-0.4-0.3-0.3-0.4-0.4-1 0-0.5 0.2-1z"/>
	<path id="Layer" class="s7" d="m81.8 190.2l-2.1 4.3c-0.4 0.8-1.6 0.1-1.2-0.7l2-4.3c0.4-0.9 1.7-0.1 1.3 0.7z"/>
	<path id="Layer" class="s7" d="m75.9 190.6l-1.4 3.8c-0.4 0.9-1.8 0.5-1.4-0.3l1.5-3.9c0.3-0.9 1.7-0.5 1.3 0.4z"/>
	<path id="Layer" class="s7" d="m69 190.3q0.2-0.1 0.5 0 0.3 0 0.4 0.3 0.2 0.2 0.1 0.5-0.5 1.9-1.4 3.8c-0.4 0.8-1.6 0.1-1.2-0.8q0.8-1.6 1.2-3.4 0.1-0.2 0.4-0.4z"/>
	<path id="Layer" class="s7" d="m121.3 189.5l2.1 4.3c0.4 0.8-0.9 1.5-1.3 0.7l-2-4.3c-0.4-0.8 0.8-1.5 1.2-0.7z"/>
	<path id="Layer" class="s7" d="m127.3 190.2l1.5 3.9c0.3 0.8-1.1 1.2-1.4 0.4l-1.5-3.9c-0.4-0.9 1.1-1.2 1.4-0.4z"/>
	<path id="Layer" class="s7" d="m131.9 190.6q0.2-0.2 0.4-0.3 0.3-0.1 0.6 0 0.2 0.2 0.3 0.4 0.5 1.8 1.2 3.4c0.4 0.9-0.8 1.6-1.2 0.8q-0.9-1.8-1.4-3.8 0-0.3 0.1-0.5z"/>
	<g id="Layer">
		<g id="Layer">
			<g id="Layer">
				<path id="Layer" fill-rule="evenodd" class="s0" d="m23.1 348c-1.1 0-2.1 0-3.1-0.4-2.9-1.2-2.6-11.8-2.6-14.5 0-2.8 0.1-5.6 0.5-8.4 0.2-1.1 0.7-3 1.6-3.8 1.7-1.5 7.2-1.6 9.5-1.6 5.5 0 11.4 3.3 11.4 9.3 0 1.1-0.2 2.1-0.8 3-0.8 1.4-2.1 2.6-3.4 3.5-0.2 0.1-0.8 0.5-0.8 0.7 0 0.3 1.1 1.3 1.4 1.6 1.1 1.3 3.2 7.3 3.2 9.1 0 1.4-4.2 1.6-5.2 1.6-5.2 0-1.7-9.8-8.4-9.8-1 0-1 2.7-1 3.4 0 1 0.1 2 0.1 3 0 1.8-0.1 3.3-2.4 3.3zm2.3-17.3c0 0.8 0.1 1.9 1.1 1.9 2.9 0 5.7-0.3 5.7-3.9 0-2.1-2.1-3.5-4.1-3.5h-1.1c-1.3 0-1.6 0.9-1.6 2z"/>
			</g>
		</g>
	</g>
	<g id="Layer">
		<g id="Layer">
			<g id="Layer">
				<path id="Layer" class="s0" d="m55.5 341.9c2.3 0 4.5-0.1 6.7-0.1 2 0 2.3 0.6 2.3 2.5 0 3.3-3.7 3.9-6.4 3.9-2.8 0-6.2 0.3-8.9-0.8-2.9-1.2-3.7-3.7-3.9-6.7q-0.2-2.9-0.2-5.9c0-1.6-0.1-3.2-0.1-4.8 0-10.2 4.7-10.3 13.3-10.3 1.8 0 4.1 0.4 5.4 1.8 0.7 0.8 0.9 2 0.9 3.1 0 1.7-2.6 1.7-3.8 1.7-1.4 0-2.7-0.2-4-0.2-2.3 0-3.4-0.1-3.4 2.6 0 2 2.4 2.1 3.8 2.1 1.3 0 2.5-0.1 3.7-0.1 1 0 2.2 0.2 2.8 1 0.4 0.5 0.4 1.7 0.4 2.4 0 0.5 0 1.1-0.3 1.6-0.8 1.1-4.8 0.9-6.1 0.9-1 0-3-0.2-3.8 0.5-0.2 0.2-0.4 0.6-0.5 1-0.1 0.5-0.1 1.1-0.1 1.7 0 1.4 0.8 2.1 2.2 2.1z"/>
			</g>
		</g>
	</g>
	<g id="Layer">
		<g id="Layer">
			<g id="Layer">
				<path id="Layer" fill-rule="evenodd" class="s0" d="m69.6 344.8c0-3.9 6-22.4 9.1-24.5 0.9-0.6 1.7-0.6 2.8-0.6 1.7 0 2.7 0.2 3.8 1.6 2.5 3 8.2 19.9 8.2 23.9 0 2.8-3.5 2.8-5.5 2.8-4.8 0 1.3-5.3-7.1-5.3-6.9 0-1.1 5.2-6.7 5.2-2.6 0-4.6 0.2-4.6-3.1zm12.4-7.9c0.8 0 1.4-0.5 1.4-1.3 0-0.9-1-7-2-7-0.8 0-2 6.1-2 7 0 1.1 0.9 1.3 1.8 1.3z"/>
			</g>
		</g>
	</g>
	<g id="Layer">
		<g id="Layer">
			<g id="Layer">
				<path id="Layer" fill-rule="evenodd" class="s0" d="m108.7 319.4c4.8 0 11.1 2.3 11.1 8 0 3.3-2.5 4.4-5 5.8 0.2 0.3 0.9 0.5 1.2 0.7 2.7 0.9 4.7 2.6 4.7 5.6 0 7-6.8 9.1-12.7 9.1-2 0-4.4 0-6.2-0.7-3.4-1.2-3.4-9-3.4-11.9v-3.2c0-2.6 0.1-8.5 1.2-10.7 0.3-0.8 0.9-1.3 1.6-1.7 1.7-0.8 3.3-1 5.1-1zm-2.2 8.1c0 0.6-0.1 1.2-0.1 1.8 0 0.8 0.2 1.6 1.2 1.6 1.8 0 4.8-0.3 4.8-2.7 0-2.6-2.1-2.9-4.2-2.9-1.6 0-1.7 0.8-1.7 2.2zm0 12.9c0 1.4 0.3 2.3 1.9 2.3 2.5 0 4.6-0.7 4.6-3.6 0-2.4-2.7-2.8-4.5-2.8-1.7 0-2 0.3-2 2z"/>
			</g>
		</g>
	</g>
	<g id="Layer">
		<g id="Layer">
			<g id="Layer">
				<path id="Layer" fill-rule="evenodd" class="s0" d="m134.6 319.4c4.8 0 11.1 2.3 11.1 8 0 3.3-2.5 4.4-5 5.8 0.2 0.3 0.8 0.5 1.2 0.7 2.7 0.9 4.6 2.6 4.6 5.6 0 7-6.7 9.1-12.6 9.1-2 0-4.4 0-6.3-0.7-3.3-1.2-3.3-9-3.3-11.9v-3.2c0-2.6 0.1-8.5 1.2-10.7 0.3-0.8 0.8-1.3 1.6-1.7 1.7-0.8 3.3-1 5.1-1zm-2.3 8.1c0 0.6 0 1.2 0 1.8 0 0.8 0.2 1.6 1.1 1.6 1.9 0 4.9-0.3 4.9-2.7 0-2.6-2.2-2.9-4.2-2.9-1.6 0-1.8 0.8-1.8 2.2zm0.1 12.9c0 1.4 0.2 2.3 1.8 2.3 2.6 0 4.7-0.7 4.7-3.6 0-2.4-2.7-2.8-4.5-2.8-1.8 0-2 0.3-2 2z"/>
			</g>
		</g>
	</g>
	<g id="Layer">
		<g id="Layer">
			<g id="Layer">
				<path id="Layer" class="s0" d="m159.8 336.7c0 2-0.1 7.8-1 9.6-0.6 1.3-1.8 1.9-3.2 1.9-1 0-2 0-2.9-0.5-1.9-1.1-2-9-2-11.1 0-1.8-0.1-3.5-0.1-5.2 0-2.3 0.1-9.9 2.3-11.1 0.7-0.4 1.4-0.5 2.1-0.5 1.1 0 1.9-0.1 2.8 0.5 1.8 1.1 2 7.4 2 9.4z"/>
			</g>
		</g>
	</g>
	<g id="Layer">
		<g id="Layer">
			<g id="Layer">
				<path id="Layer" class="s0" d="m186.1 326.4c-0.6 0-1.1-0.1-1.7-0.1-3 0-3.4 2.3-3.4 4.7 0 1.6 0 3.3 0 4.9 0 2-0.1 10.4-1.4 11.7-0.7 0.7-1.8 0.6-2.8 0.6-0.8 0-1.8 0.1-2.5-0.3-2-1.2-1.9-7.9-1.9-10.1 0-2.1 0-4.1 0-6.2 0-0.9 0-1.9-0.2-2.9-0.8-4.3-7.1-0.2-7.1-4 0-0.9 0.2-2.8 0.8-3.4 1.5-1.5 7.3-1.6 9.4-1.6 2.5 0 11.7-0.5 12.8 2.5 0.1 0.4 0.2 2.1 0.2 2.5 0 1.4-1 1.7-2.2 1.7z"/>
			</g>
		</g>
	</g>
</svg>