<svg xmlns="http://www.w3.org/2000/svg" width="44" height="52" fill="none" viewBox="0 0 44 52">
  <path fill="#D0BEE8" stroke="#AAA2FF" stroke-width=".5" d="m43.205 33.495-.002.016v.015c0 5.003-2.493 8.521-6.046 10.8-3.562 2.285-8.187 3.319-12.405 3.319-4.243 0-6.746-.702-8.219-2.579-.74-.944-1.238-2.207-1.55-3.881-.31-1.675-.432-3.745-.432-6.29 0-2.496.979-5.7 2.556-9.172 1.574-3.467 3.733-7.177 6.065-10.68 2.333-3.503 4.836-6.793 7.098-9.42 2.063-2.395 3.91-4.221 5.236-5.158.097 6.307 2.161 11.173 4.145 15.848l.34.804c2.13 5.043 4.03 9.95 3.214 16.378Z"/>
  <path fill="#D0BEE8" stroke="#AAA2FF" stroke-width=".5" d="m.438 33.496.002.015v.015c0 5.006 2.432 8.524 5.892 10.802 3.47 2.283 7.976 3.317 12.085 3.317 4.133 0 6.569-.702 8.002-2.576.723-.945 1.208-2.208 1.511-3.883.303-1.675.422-3.746.422-6.291 0-2.498-.954-5.702-2.492-9.175-1.534-3.466-3.637-7.177-5.911-10.68-2.273-3.502-4.713-6.792-6.917-9.418-2.005-2.39-3.8-4.21-5.09-5.15-.097 6.303-2.107 11.166-4.04 15.84l-.331.803c-2.076 5.042-3.928 9.95-3.133 16.38Z"/>
  <path fill="#D0BEE8" stroke="#AAA2FF" stroke-width=".5" d="M34.402 32.158c0 5.067-1.166 8.935-3.352 11.533-2.18 2.591-5.403 3.954-9.599 3.954-4.195 0-7.419-1.363-9.598-3.954C9.667 41.093 8.5 37.225 8.5 32.158c0-5.041 1.904-10.13 4.578-15.17 1.963-3.7 4.331-7.355 6.651-10.936.765-1.18 1.524-2.353 2.262-3.516a397.708 397.708 0 0 0 2.286 3.89c2.05 3.459 4.14 6.985 5.888 10.555 2.469 5.04 4.237 10.132 4.237 15.177Z"/>
</svg>
