<svg width="35" height="35" viewBox="0 0 35 35" fill="none" xmlns="http://www.w3.org/2000/svg">
<path d="M15.3125 30.625C15.3125 30.625 13.125 30.625 13.125 28.4375C13.125 26.25 15.3125 19.6875 24.0625 19.6875C32.8125 19.6875 35 26.25 35 28.4375C35 30.625 32.8125 30.625 32.8125 30.625H15.3125ZM24.0625 17.5C25.803 17.5 27.4722 16.8086 28.7029 15.5779C29.9336 14.3472 30.625 12.678 30.625 10.9375C30.625 9.19702 29.9336 7.52782 28.7029 6.29711C27.4722 5.0664 25.803 4.375 24.0625 4.375C22.322 4.375 20.6528 5.0664 19.4221 6.29711C18.1914 7.52782 17.5 9.19702 17.5 10.9375C17.5 12.678 18.1914 14.3472 19.4221 15.5779C20.6528 16.8086 22.322 17.5 24.0625 17.5Z" fill="#777777"/>
<path fill-rule="evenodd" clip-rule="evenodd" d="M11.41 30.625C11.0857 29.9421 10.924 29.1934 10.9375 28.4375C10.9375 25.4734 12.425 22.4219 15.1725 20.3C13.8011 19.8774 12.3724 19.6708 10.9375 19.6875C2.1875 19.6875 0 26.25 0 28.4375C0 30.625 2.1875 30.625 2.1875 30.625H11.41Z" fill="#777777"/>
<path d="M9.84375 17.5C11.2942 17.5 12.6852 16.9238 13.7107 15.8982C14.7363 14.8727 15.3125 13.4817 15.3125 12.0312C15.3125 10.5808 14.7363 9.18985 13.7107 8.16426C12.6852 7.13867 11.2942 6.5625 9.84375 6.5625C8.39335 6.5625 7.00235 7.13867 5.97676 8.16426C4.95117 9.18985 4.375 10.5808 4.375 12.0312C4.375 13.4817 4.95117 14.8727 5.97676 15.8982C7.00235 16.9238 8.39335 17.5 9.84375 17.5Z" fill="#777777"/>
</svg>
