<svg width="35" height="35" viewBox="0 0 35 35" fill="none" xmlns="http://www.w3.org/2000/svg">
<path d="M17.5 2.1875C9.04395 2.1875 2.1875 9.04395 2.1875 17.5C2.1875 25.9561 9.04395 32.8125 17.5 32.8125C25.9561 32.8125 32.8125 25.9561 32.8125 17.5C32.8125 9.04395 25.9561 2.1875 17.5 2.1875ZM23.5327 22.2065L22.5552 23.5396C22.5339 23.5686 22.5071 23.5931 22.4764 23.6118C22.4456 23.6304 22.4114 23.6428 22.3758 23.6482C22.3403 23.6536 22.304 23.6519 22.2691 23.6432C22.2341 23.6346 22.2013 23.6191 22.1724 23.5977L16.519 19.4756C16.4838 19.4503 16.4552 19.4169 16.4356 19.3783C16.4159 19.3396 16.4059 19.2968 16.4062 19.2534V9.84375C16.4062 9.69336 16.5293 9.57031 16.6797 9.57031H18.3237C18.4741 9.57031 18.5972 9.69336 18.5972 9.84375V18.3032L23.4712 21.8271C23.5942 21.9126 23.6216 22.0835 23.5327 22.2065Z" fill="#777777"/>
</svg>
