<svg xmlns="http://www.w3.org/2000/svg" width="36" height="52" fill="none" viewBox="0 0 36 52">
  <path fill="#5CAF5F" stroke="#2E8F26" stroke-width="3" d="M16.055 3.833a1.5 1.5 0 0 1 2.34.057l1.194-.908-1.193.908.54.71a3.513 3.513 0 0 0 4.57.904.513.513 0 0 1 .75.59l-1.799 6.05a1.5 1.5 0 0 1-1.437 1.073h-7.98a1.5 1.5 0 0 1-1.445-1.093L9.918 6.17a.57.57 0 0 1 .838-.647l.71-1.215-.71 1.215a3.57 3.57 0 0 0 4.535-.783l.764-.907Z"/>
  <path fill="#2A8A28" d="M14.444 5.507c.944-1.203 2.876-.536 2.876.993v5.97c0 .564-.458 1.022-1.022 1.022h-3.175a2 2 0 0 1-1.933-1.484L10.08 7.85c-.37-1.381 1.091-2.538 2.37-1.9a1.62 1.62 0 0 0 1.994-.442Z"/>
  <path fill="#5CAF5F" stroke="#2E8F26" stroke-width="3" d="M16.055 3.833a1.5 1.5 0 0 1 2.34.057l1.194-.908-1.193.908.54.71a3.513 3.513 0 0 0 4.57.904.513.513 0 0 1 .75.59l-1.799 6.05a1.5 1.5 0 0 1-1.437 1.073h-7.98a1.5 1.5 0 0 1-1.445-1.093L9.918 6.17a.57.57 0 0 1 .838-.647l.71-1.215-.71 1.215a3.57 3.57 0 0 0 4.535-.783l.764-.907Z"/>
  <path fill="#2A8A28" d="M14.444 5.507c.944-1.203 2.876-.536 2.876.993v5.97c0 .564-.458 1.022-1.022 1.022h-3.175a2 2 0 0 1-1.933-1.484L10.08 7.85c-.37-1.381 1.091-2.538 2.37-1.9a1.62 1.62 0 0 0 1.994-.442Z"/>
  <path fill="#FFC800" stroke="#FF9600" stroke-width="9" d="M4.5 26.981c0-5.148 4.44-10.707 12.615-10.707 4.495 0 8.288 1.169 10.82 2.894 2.477 1.689 3.565 3.73 3.565 5.85 0 .853-.315 2.28-1.193 4.269-.848 1.92-2.087 4.067-3.592 6.261-2.8 4.084-6.282 7.991-9.27 10.578-3.094-3.017-6.349-6.55-8.852-10.061C5.803 32.152 4.5 29.02 4.5 26.98Z"/>
</svg>
